<svg width="248" height="212" viewBox="0 0 248 212" fill="none" xmlns="http://www.w3.org/2000/svg">
<path d="M229.437 197.417L227.394 180.216" stroke="#263238" stroke-width="0.985332" stroke-linecap="round" stroke-linejoin="round"/>
<path d="M227.384 180.699C227.384 180.699 223.715 178.138 223.715 172.281C223.715 166.424 228.609 161.67 228.609 161.67C228.609 161.67 233.914 167.527 232.689 173.379C231.464 179.231 227.384 180.699 227.384 180.699Z" fill="#00847A" stroke="#263238" stroke-width="0.985332" stroke-linecap="round" stroke-linejoin="round"/>
<path d="M227.394 180.216L228.329 167.291" stroke="#263238" stroke-width="0.985332" stroke-linecap="round" stroke-linejoin="round"/>
<path d="M231.322 196.148C233.103 192.031 235.277 188.06 237.82 184.278" stroke="#263238" stroke-width="0.985332" stroke-linecap="round" stroke-linejoin="round"/>
<path d="M235.899 187.389C235.899 187.389 233.861 183.635 236.743 178.393C239.626 173.152 246.361 170.818 246.361 170.818C246.361 170.818 248.235 178.171 244.25 182.939C240.264 187.706 235.899 187.389 235.899 187.389Z" fill="#00847A" stroke="#263238" stroke-width="0.985332" stroke-linecap="round" stroke-linejoin="round"/>
<path d="M235.899 187.389L243.326 176.438" stroke="#263238" stroke-width="0.985332" stroke-linecap="round" stroke-linejoin="round"/>
<path d="M226.128 197.682C225.021 194.375 223.516 191.186 221.641 188.171L218.785 183.758" stroke="#263238" stroke-width="0.985332" stroke-linecap="round" stroke-linejoin="round"/>
<path d="M221.081 187.171C218.827 187.792 216.435 187.891 214.128 187.459C211.82 187.027 209.672 186.078 207.884 184.7C201.549 179.927 201.903 170.188 201.903 170.188C201.903 170.188 214.182 168.616 219.138 174.857C220.575 176.604 221.505 178.644 221.844 180.794C222.183 182.944 221.921 185.135 221.081 187.171Z" fill="#00847A" stroke="#263238" stroke-width="0.985332" stroke-linecap="round" stroke-linejoin="round"/>
<path d="M221.081 187.171L206.527 173.568" stroke="#263238" stroke-width="0.985332" stroke-linecap="round" stroke-linejoin="round"/>
<path d="M236.152 193.733H220.616V207.398H236.152V193.733Z" fill="#263238" stroke="#263238" stroke-width="0.985332" stroke-linecap="round" stroke-linejoin="round"/>
<path d="M210.196 1H106.277V79.5243H210.196V1Z" fill="white" stroke="#263238" stroke-width="0.985332" stroke-linecap="round" stroke-linejoin="round"/>
<path d="M127.846 45.1457H127.002L126.859 44.284H125.835L125.687 45.1457H124.922L125.772 40.3779H126.996L127.846 45.1457ZM125.941 43.6354H126.743L126.342 41.2207L125.941 43.6354Z" fill="#263238"/>
<path d="M129.029 40.3779V44.0568C129.029 44.3977 129.198 44.5302 129.461 44.5302C129.725 44.5302 129.9 44.4071 129.9 44.0568V40.3779H130.686V44.0094C130.686 44.7717 130.264 45.2073 129.44 45.2073C128.617 45.2073 128.195 44.7717 128.195 44.0094V40.3779H129.029Z" fill="#263238"/>
<path d="M131.014 40.3779H133.595V41.0597H132.724V45.1457H131.906V41.0597H131.035L131.014 40.3779Z" fill="#263238"/>
<path d="M134.799 45.1457H133.959V40.3779H134.799V42.4233H135.743V40.3779H136.599V45.1457H135.743V43.1051H134.799V45.1457Z" fill="#263238"/>
<path d="M138.04 42.3854H139.185V43.0672H138.04V44.4876H139.481V45.1694H137.185V40.3779H139.46V41.0597H138.019L138.04 42.3854Z" fill="#263238"/>
<path d="M140.743 41.7178V45.1694H139.993V40.3779H141.049L141.909 43.2187V40.3779H142.653V45.1457H141.793L140.743 41.7178Z" fill="#263238"/>
<path d="M142.991 40.3779H145.578V41.0597H144.702V45.1457H143.867V41.0597H142.991V40.3779Z" fill="#263238"/>
<path d="M145.947 40.3779H146.781V45.1457H145.947V40.3779Z" fill="#263238"/>
<path d="M149.811 43.3704V44.0049C149.811 44.7671 149.389 45.2027 148.566 45.2027C147.742 45.2027 147.32 44.7671 147.32 44.0049V41.5239C147.32 40.7569 147.747 40.3213 148.566 40.3213C149.384 40.3213 149.811 40.7569 149.811 41.5239V41.9974H149.025V41.486C149.025 41.1451 148.856 41.0125 148.592 41.0125C148.328 41.0125 148.159 41.1451 148.159 41.486V44.0617C148.159 44.4026 148.323 44.5351 148.592 44.5351C148.861 44.5351 149.025 44.4168 149.025 44.0617V43.3799L149.811 43.3704Z" fill="#263238"/>
<path d="M153.021 45.1457H152.176L152.034 44.284H151.015L150.867 45.1457H150.102L150.952 40.3779H152.176L153.021 45.1457ZM151.115 43.6354H151.918L151.517 41.2207L151.115 43.6354Z" fill="#263238"/>
<path d="M152.878 40.3779H155.465V41.0597H154.605V45.1457H153.771V41.0597H152.894L152.878 40.3779Z" fill="#263238"/>
<path d="M156.663 42.3854H157.809V43.0672H156.663V44.4876H158.11V45.1694H155.829V40.3779H158.11V41.0597H156.663V42.3854Z" fill="#263238"/>
<path d="M160.586 43.5644L159.53 40.3779H160.411L161.05 42.5511L161.689 40.3779H162.486L161.43 43.5644V45.1457H160.596L160.586 43.5644Z" fill="#263238"/>
<path d="M162.628 41.524C162.628 41.2226 162.762 40.9336 162.999 40.7205C163.237 40.5074 163.559 40.3877 163.895 40.3877C164.231 40.3877 164.554 40.5074 164.791 40.7205C165.029 40.9336 165.162 41.2226 165.162 41.524V44.005C165.162 44.3063 165.029 44.5954 164.791 44.8085C164.554 45.0216 164.231 45.1413 163.895 45.1413C163.559 45.1413 163.237 45.0216 162.999 44.8085C162.762 44.5954 162.628 44.3063 162.628 44.005V41.524ZM163.462 44.0523C163.462 44.3932 163.631 44.5258 163.895 44.5258C164.159 44.5258 164.328 44.3979 164.328 44.0523V41.4767C164.328 41.1358 164.159 41.0032 163.895 41.0032C163.631 41.0032 163.462 41.1358 163.462 41.4767V44.0523Z" fill="#263238"/>
<path d="M166.498 40.3779V44.0568C166.498 44.3977 166.667 44.5302 166.931 44.5302C167.195 44.5302 167.364 44.4071 167.364 44.0568V40.3779H168.155V44.0094C168.155 44.7717 167.733 45.2073 166.91 45.2073C166.086 45.2073 165.664 44.7717 165.664 44.0094V40.3779H166.498Z" fill="#263238"/>
<path d="M170.473 45.1457C170.403 44.9568 170.377 44.7568 170.399 44.5586V43.8106C170.399 43.3702 170.23 43.2045 169.871 43.2045H169.581V45.1457H168.747V40.3779H170.008C170.874 40.3779 171.243 40.7378 171.243 41.4764V41.8504C171.271 42.0375 171.235 42.2275 171.141 42.3962C171.047 42.5649 170.899 42.7046 170.716 42.7973C171.133 42.9536 171.27 43.3134 171.27 43.8106V44.5586C171.253 44.7547 171.284 44.9517 171.36 45.1363L170.473 45.1457ZM169.56 41.0597V42.5227H169.913C170.225 42.5227 170.415 42.3996 170.415 42.0209V41.5474C170.415 41.2065 170.288 41.0739 169.992 41.0739L169.56 41.0597Z" fill="#263238"/>
<path d="M175.662 45.1457H174.817L174.675 44.284H173.645L173.503 45.1457H172.737L173.608 40.3779H174.833L175.662 45.1457ZM173.756 43.6354H174.558L174.136 41.2444L173.756 43.6354Z" fill="#263238"/>
<path d="M178.465 43.3704V44.0049C178.465 44.7671 178.037 45.2027 177.219 45.2027C176.401 45.2027 175.973 44.7671 175.973 44.0049V41.5239C175.973 40.7569 176.396 40.3213 177.219 40.3213C178.043 40.3213 178.465 40.7569 178.465 41.5239V41.9974H177.673V41.486C177.673 41.1451 177.504 41.0125 177.24 41.0125C176.976 41.0125 176.807 41.1451 176.807 41.486V44.0617C176.807 44.4026 176.976 44.5351 177.24 44.5351C177.504 44.5351 177.673 44.4168 177.673 44.0617V43.3799L178.465 43.3704Z" fill="#263238"/>
<path d="M181.395 43.3704V44.0049C181.395 44.7671 180.972 45.2027 180.149 45.2027C179.325 45.2027 178.903 44.7671 178.903 44.0049V41.5239C178.903 40.7569 179.331 40.3213 180.149 40.3213C180.967 40.3213 181.395 40.7569 181.395 41.5239V41.9974H180.603V41.486C180.603 41.1451 180.439 41.0125 180.17 41.0125C179.901 41.0125 179.737 41.1451 179.737 41.486V44.0617C179.737 44.4026 179.906 44.5351 180.17 44.5351C180.434 44.5351 180.603 44.4168 180.603 44.0617V43.3799L181.395 43.3704Z" fill="#263238"/>
<path d="M181.833 41.5241C181.822 41.3684 181.846 41.2123 181.905 41.0654C181.964 40.9185 182.055 40.784 182.174 40.6702C182.293 40.5564 182.437 40.4656 182.597 40.4036C182.756 40.3416 182.928 40.3096 183.102 40.3096C183.276 40.3096 183.448 40.3416 183.608 40.4036C183.768 40.4656 183.911 40.5564 184.03 40.6702C184.149 40.784 184.241 40.9185 184.3 41.0654C184.359 41.2123 184.383 41.3684 184.372 41.5241V44.005C184.383 44.1608 184.359 44.3169 184.3 44.4637C184.241 44.6106 184.149 44.7451 184.03 44.8589C183.911 44.9728 183.768 45.0635 183.608 45.1255C183.448 45.1876 183.276 45.2196 183.102 45.2196C182.928 45.2196 182.756 45.1876 182.597 45.1255C182.437 45.0635 182.293 44.9728 182.174 44.8589C182.055 44.7451 181.964 44.6106 181.905 44.4637C181.846 44.3169 181.822 44.1608 181.833 44.005V41.5241ZM182.672 44.0524C182.672 44.3933 182.836 44.5259 183.105 44.5259C183.374 44.5259 183.538 44.398 183.538 44.0524V41.4767C183.538 41.1358 183.369 41.0033 183.105 41.0033C182.841 41.0033 182.672 41.1358 182.672 41.4767V44.0524Z" fill="#263238"/>
<path d="M185.708 40.3779V44.0568C185.708 44.3977 185.877 44.5302 186.14 44.5302C186.404 44.5302 186.573 44.4071 186.573 44.0568V40.3779H187.365V44.0094C187.365 44.7717 186.943 45.2073 186.119 45.2073C185.296 45.2073 184.874 44.7717 184.874 44.0094V40.3779H185.708Z" fill="#263238"/>
<path d="M188.68 41.7178V45.1694H187.93V40.3779H188.986L189.846 43.2187V40.3779H190.59V45.1457H189.73L188.68 41.7178Z" fill="#263238"/>
<path d="M190.934 40.3779H193.52V41.0597H192.644V45.1457H191.81V41.0597H190.934V40.3779Z" fill="#263238"/>
<path d="M170.491 25.7559C171.538 19.9267 167.118 14.44 160.619 13.5011C154.12 12.5621 148.002 16.5266 146.956 22.3558C145.909 28.1851 150.329 33.6718 156.828 34.6107C163.327 35.5496 169.445 31.5852 170.491 25.7559Z" fill="#00847A"/>
<path d="M163.922 21.5909C163.922 22.5133 163.617 23.4149 163.045 24.1819C162.474 24.9488 161.662 25.5465 160.712 25.8995C159.762 26.2525 158.716 26.3449 157.708 26.1649C156.699 25.985 155.773 25.5408 155.045 24.8886C154.318 24.2364 153.823 23.4054 153.622 22.5007C153.422 21.5961 153.525 20.6584 153.918 19.8062C154.312 18.954 154.978 18.2257 155.833 17.7132C156.688 17.2008 157.694 16.9272 158.722 16.9272C160.101 16.9272 161.424 17.4186 162.399 18.2932C163.374 19.1678 163.922 20.354 163.922 21.5909Z" fill="#263238"/>
<path d="M150.165 31.491C151.275 32.5199 152.605 33.3381 154.075 33.8968C155.545 34.4556 157.125 34.7435 158.722 34.7435C160.319 34.7435 161.899 34.4556 163.369 33.8968C164.839 33.3381 166.169 32.5199 167.279 31.491V31.1833C167.28 30.6432 167.162 30.1083 166.932 29.6091C166.702 29.1099 166.364 28.6563 165.939 28.2742C165.513 27.8921 165.008 27.589 164.452 27.3821C163.895 27.1753 163.299 27.0688 162.697 27.0688H154.752C153.536 27.0688 152.369 27.5023 151.509 28.2739C150.648 29.0455 150.165 30.0921 150.165 31.1833V31.491Z" fill="#263238"/>
<path d="M194.444 53.7393H122.536V61.5798H194.444V53.7393Z" stroke="#263238" stroke-width="0.985332" stroke-miterlimit="10"/>
<path d="M194.444 65.4956H122.536V73.3362H194.444V65.4956Z" fill="#00847A" stroke="#263238" stroke-width="0.985332" stroke-miterlimit="10"/>
<path d="M146.655 57.8822V58.3556H145.356V60.0506H146.94V60.5241H144.754V55.7705H146.94V56.244H145.356V57.8727L146.655 57.8822Z" fill="#BDBDBD"/>
<path d="M148.022 60.543H147.494V55.7705H148.27L149.5 59.2173V55.7705H150.028V60.543H149.41L148.048 56.6843L148.022 60.543Z" fill="#BDBDBD"/>
<path d="M151.379 60.5428V56.2533H150.382V55.7798H152.937V56.2533H151.965V60.5428H151.379Z" fill="#BDBDBD"/>
<path d="M155.254 57.8822V58.3556H153.955V60.0506H155.539V60.5241H153.354V55.7705H155.539V56.244H153.955V57.8727L155.254 57.8822Z" fill="#BDBDBD"/>
<path d="M157.281 55.7705C158.12 55.7705 158.469 56.154 158.469 56.8595V57.2477C158.505 57.4552 158.459 57.6676 158.338 57.8477C158.218 58.0277 158.03 58.164 157.809 58.2325C158.295 58.3604 158.474 58.706 158.474 59.2268V59.9702C158.459 60.1659 158.495 60.3622 158.58 60.543H157.983C157.899 60.3588 157.864 60.1592 157.883 59.9607V59.2363C157.883 58.6965 157.603 58.5261 157.107 58.5261H156.716V60.5667H156.125V55.7705H157.281ZM157.133 58.0195C157.603 58.0195 157.883 57.8822 157.883 57.3661V56.8926C157.883 56.4665 157.709 56.2392 157.265 56.2392H156.716V58.0053L157.133 58.0195Z" fill="#BDBDBD"/>
<path d="M162.618 56.9211V57.3425H162.053V56.869C162.053 56.4382 161.863 56.1778 161.43 56.1778C160.997 56.1778 160.807 56.4382 160.807 56.869V59.3879C160.807 59.8187 161.002 60.0791 161.43 60.0791C161.858 60.0791 162.053 59.8187 162.053 59.3879V58.7676H162.618V59.3594C162.618 60.0838 162.232 60.5621 161.414 60.5621C160.596 60.5621 160.221 60.0886 160.221 59.3594V56.8927C160.221 56.173 160.601 55.6948 161.414 55.6948C162.227 55.6948 162.618 56.2014 162.618 56.9211Z" fill="#BDBDBD"/>
<path d="M163.109 56.921C163.109 56.1919 163.51 55.7231 164.323 55.7231C165.136 55.7231 165.548 56.1966 165.548 56.921V59.3878C165.548 60.1122 165.147 60.5904 164.323 60.5904C163.5 60.5904 163.109 60.1169 163.109 59.3878V56.921ZM163.695 59.4162C163.695 59.8518 163.901 60.1074 164.323 60.1074C164.745 60.1074 164.956 59.8518 164.956 59.4162V56.8973C164.956 56.4665 164.756 56.2061 164.323 56.2061C163.89 56.2061 163.695 56.4665 163.695 56.8973V59.4162Z" fill="#BDBDBD"/>
<path d="M167.353 55.7705C168.182 55.7705 168.562 56.2203 168.562 56.9589V59.3641C168.562 60.0933 168.182 60.543 167.353 60.543H166.107V55.7705H167.353ZM167.353 60.0317C167.775 60.0317 167.981 59.795 167.981 59.3594V56.9068C167.981 56.4712 167.775 56.2298 167.342 56.2298H166.704V60.0175L167.353 60.0317Z" fill="#BDBDBD"/>
<path d="M171.006 57.8822V58.3556H169.707V60.0506H171.291V60.5241H169.1V55.7705H171.291V56.244H169.707V57.8727L171.006 57.8822Z" fill="#BDBDBD"/>
<path d="M153.654 67.5693C154.478 67.5693 154.858 68.0428 154.858 68.7577V71.1629C154.858 71.8921 154.478 72.3419 153.654 72.3419H152.403V67.5693H153.654ZM153.654 71.8589C154.082 71.8589 154.288 71.6175 154.288 71.1819V68.7293C154.288 68.2937 154.082 68.057 153.649 68.057H153.021V71.8447L153.654 71.8589Z" fill="#263238"/>
<path d="M155.37 68.7055C155.37 67.9764 155.771 67.5029 156.584 67.5029C157.397 67.5029 157.809 67.9764 157.809 68.7055V71.1723C157.833 71.3262 157.819 71.483 157.768 71.6315C157.717 71.78 157.63 71.9165 157.512 72.031C157.395 72.1456 157.251 72.2355 157.091 72.2941C156.93 72.3527 156.757 72.3787 156.584 72.3702C155.771 72.3702 155.37 71.8967 155.37 71.1723V68.7055ZM155.951 71.2007C155.951 71.6363 156.157 71.8872 156.584 71.8872C157.012 71.8872 157.212 71.6363 157.212 71.2007V68.7055C157.212 68.2747 157.017 68.0143 156.584 68.0143C156.151 68.0143 155.951 68.2747 155.951 68.7055V71.2007Z" fill="#263238"/>
<path d="M158.891 72.3419H158.363V67.5693H159.113L160.343 71.0209V67.5693H160.87V72.3419H160.253L158.891 68.4831V72.3419Z" fill="#263238"/>
<path d="M163.367 69.6857V70.1592H162.069V71.8589H163.652V72.3324H161.467V67.5693H163.658V68.0428H162.074V69.6715L163.367 69.6857Z" fill="#263238"/>
<path d="M210.196 1H106.277V4.7972H210.196V1Z" fill="#00847A" stroke="#263238" stroke-width="0.985332" stroke-linecap="round" stroke-linejoin="round"/>
<path d="M36.739 122.335V121.634" stroke="#263238" stroke-width="0.985332" stroke-linecap="round" stroke-linejoin="round"/>
<path d="M36.739 120.247V60.2165C36.739 59.0036 37.0054 57.8027 37.5231 56.6822C38.0407 55.5618 38.7994 54.5438 39.7558 53.6864C40.7123 52.829 41.8476 52.149 43.0971 51.6853C44.3466 51.2216 45.6858 50.9833 47.038 50.9839H96.0097" stroke="#263238" stroke-width="0.985332" stroke-linecap="round" stroke-linejoin="round" stroke-dasharray="2.93 2.93"/>
<path d="M96.8066 50.9839H97.5826" stroke="#263238" stroke-width="0.985332" stroke-linecap="round" stroke-linejoin="round"/>
<path d="M102.73 51.3675L94.3152 47.0068V55.7233L102.73 51.3675Z" fill="#263238"/>
<path d="M183.058 180.803H183.839" stroke="#263238" stroke-width="0.985332" stroke-linecap="round" stroke-linejoin="round"/>
<path d="M185.385 180.803H188.273C191.013 180.803 193.641 179.827 195.578 178.089C197.515 176.352 198.604 173.995 198.604 171.537V83.9463" stroke="#263238" stroke-width="0.985332" stroke-linecap="round" stroke-linejoin="round" stroke-dasharray="2.93 2.93"/>
<path d="M198.604 83.2551V82.5591" stroke="#263238" stroke-width="0.985332" stroke-linecap="round" stroke-linejoin="round"/>
<path d="M180.112 180.396L188.526 184.752V176.036L180.112 180.396Z" fill="#263238"/>
<path d="M136.018 123.561C136.467 122.795 137.141 122.154 137.967 121.707C138.794 121.261 139.741 121.026 140.706 121.028H185.866C185.866 121.028 189.128 121.028 188.152 126.592C187.175 132.155 173.788 166.121 170.52 176.367C167.253 186.613 166.604 208.283 166.604 208.283H112.411C112.411 208.283 116.756 156.548 136.018 123.561Z" fill="white" stroke="#263238" stroke-width="0.985332" stroke-linecap="round" stroke-linejoin="round"/>
<path d="M178.032 130.692C173.466 140.246 163.779 178.038 162.238 208.283H166.604C166.604 208.283 167.274 186.599 170.521 176.367C173.767 166.135 187.17 132.155 188.152 126.592C189.134 121.028 185.866 121.028 185.866 121.028C185.866 121.028 181.691 123.031 178.032 130.692Z" fill="#263238" stroke="#263238" stroke-width="0.985332" stroke-linecap="round" stroke-linejoin="round"/>
<path d="M92.1562 121.795C92.1562 121.795 83.8685 120.891 78.3943 115.73C72.9202 110.57 90.2928 92.166 99.5677 87.8291C108.843 83.4921 112.664 84.6805 122.61 91.2569C132.555 97.8334 142.263 108.387 142.141 115.465C142.02 122.544 137.723 125.929 143.725 129.418C149.727 132.908 166.714 142.817 169.195 149.626C171.676 156.434 167.374 164.905 157.413 169.511C147.452 174.118 131.109 173.905 115.367 169.341C99.6257 164.777 96.1998 150.336 98.2269 144.46C100.254 138.585 105.617 134.546 104.002 130.076C102.387 125.607 92.1562 121.795 92.1562 121.795Z" fill="#263238" stroke="#263238" stroke-width="0.985332" stroke-linecap="round" stroke-linejoin="round"/>
<path d="M99.2615 142.093C99.2615 142.093 90.6887 141.023 86.7296 143.319C82.7705 145.615 63.2072 175.605 63.2072 175.605L52.4014 162.561L43.0315 166.334C43.0315 166.334 47.4235 181.58 52.5334 189.165C57.6433 196.75 60.5572 197.517 62.3098 197.266C67.5252 196.522 82.6332 180.846 82.6332 180.846L88.1232 197.228L84.3964 209.136H153.813L145.393 196.541C145.393 196.541 156.378 151.089 153.581 146.273C150.783 141.458 134.482 142.093 129.356 142.093H114.681C112.457 142.488 110.197 142.698 107.929 142.718C105.03 142.642 102.137 142.433 99.2615 142.093Z" fill="#00847A"/>
<path d="M145.631 143.627L145.773 143.679L144.443 146.719L144.295 146.667L145.631 143.627ZM145.267 147.008L145.409 147.06L146.745 144.02L146.597 143.968L145.267 147.008ZM151.321 156.681L151.168 156.643L150.582 158.513H150.746L151.321 156.681ZM152.324 156.936L152.171 156.898L151.643 158.513H151.802L152.324 156.936ZM145.99 157.04L146.486 158.513H146.65L146.122 156.998L145.99 157.04ZM147.141 156.733L146.987 156.77L147.573 158.513H147.737L147.141 156.733ZM151.39 149.777L153.201 146.937L153.069 146.866L151.258 149.706L151.39 149.777ZM152.298 150.251L153.992 147.595C153.992 147.514 153.992 147.443 153.961 147.367L152.161 150.185L152.298 150.251ZM153.486 154.29L153.787 153.934L153.818 153.674L153.359 154.204L153.486 154.29ZM149.004 151.406L151.527 153.773L151.638 153.679L149.115 151.311L149.004 151.406ZM148.207 152.036L150.725 154.403L150.841 154.308L148.318 151.941L148.207 152.036ZM145.425 152.036L145.467 151.899L143.519 151.468V151.61L145.425 152.036ZM143.493 150.615L145.684 151.113L145.721 150.975L143.519 150.502L143.493 150.615ZM145.937 154.843L145.889 154.711L143.519 155.45V155.596L145.937 154.843ZM145.562 153.821L143.493 154.436V154.583L145.604 153.953L145.562 153.821ZM144.417 180.273L145.747 177.234L145.604 177.182L144.269 180.221L144.417 180.273ZM146.57 177.522L145.24 180.562L145.383 180.614L146.718 177.575L146.57 177.522ZM146.502 191.774L146.095 190.557L145.942 190.595L146.438 192.063L146.502 191.774ZM149.141 171.33L148.993 171.377L150.229 174.45H150.26L150.308 174.237L149.141 171.33ZM149.97 171.06L150.619 172.665C150.619 172.575 150.656 172.485 150.672 172.39L150.118 171.012L149.97 171.06ZM152.282 163.058L152.367 163.309L152.414 163.025L152.282 163.058ZM148.809 162.873L148.598 166.131H148.751L148.962 162.869L148.809 162.873ZM149.637 166.188H149.791L150.002 162.926H149.849L149.637 166.188ZM145.198 162.731L145.272 162.608L143.477 161.742V161.903L145.198 162.731ZM143.477 160.838L145.689 161.903L145.763 161.78L143.519 160.714L143.477 160.838ZM144.86 165.766L144.76 165.662L143.519 166.713V166.898L144.86 165.766ZM144.179 165.061L144.079 164.952L143.477 165.425V165.61L144.179 165.061ZM143.519 170.662V170.809L146.803 169.658L146.745 169.53L143.519 170.662ZM143.519 169.658V169.81L146.423 168.792L146.365 168.659L143.519 169.658ZM145.457 175.586L145.494 175.449L143.519 175.051V175.193L145.457 175.586ZM145.684 174.677L145.721 174.54L143.519 174.095V174.237L145.684 174.677ZM145.425 185.652L145.467 185.519L143.493 185.07V185.216L145.425 185.652ZM143.519 184.231L145.71 184.733L145.747 184.596L143.519 184.094V184.231ZM145.963 188.46L145.916 188.327L143.519 189.037V189.189L145.963 188.46ZM145.636 187.574L145.589 187.442L143.519 188.057V188.204L145.636 187.574ZM150.329 159.82L150.746 158.508H150.582L150.181 159.782L150.329 159.82ZM151.823 158.508H151.665L151.184 160.033L151.332 160.075L151.823 158.508ZM147.019 160.16L147.172 160.123L146.644 158.508H146.481L147.019 160.16ZM148.165 159.853L147.716 158.508H147.552L148.017 159.895L148.165 159.853ZM149.036 204.998L150.271 208.066L150.419 208.018L149.183 204.95L149.036 204.998ZM151.395 207.701L150.16 204.633L150.012 204.68L151.253 207.749L151.395 207.701ZM153.143 208.459L152.99 208.421L152.768 209.131H152.931L153.143 208.459ZM143.519 195.524L145.24 196.352L145.314 196.229L143.519 195.363V195.524ZM143.519 194.463L145.631 195.5L145.663 195.358L143.519 194.307V194.463ZM144.876 199.382L144.776 199.273L143.519 200.282V200.462L144.876 199.382ZM144.195 198.672L144.095 198.568L143.493 199.042V199.226L144.195 198.672ZM146.718 203.104L143.519 204.25V204.401L146.803 203.246L146.718 203.104ZM143.493 203.383L146.396 202.365L146.338 202.237L143.493 203.232V203.383ZM143.493 208.624V208.771L145.24 209.122H145.441L145.467 209.027L143.493 208.624ZM145.657 208.25L145.694 208.113L143.493 207.668V207.815L145.657 208.25ZM106.821 146.653L106.963 146.705L108.299 143.665L108.151 143.613L106.821 146.653ZM107.787 146.993L107.935 147.045L109.265 144.006L109.122 143.954L107.787 146.993ZM141.899 151.231L143.482 151.596V151.453L141.925 151.098L141.899 151.231ZM142.194 150.194L142.152 150.327L143.493 150.634V150.488L142.194 150.194ZM143.519 155.596V155.45L142.464 155.767L142.511 155.899L143.519 155.596ZM142.105 154.877L142.152 155.009L143.493 154.611V154.465L142.105 154.877ZM139.296 158.513H139.476L140.162 157.443L140.03 157.372L139.296 158.513ZM140.5 158.513H140.679L141.065 157.907L140.933 157.836L140.5 158.513ZM132.65 157.206L132.529 157.296L133.643 158.513H133.843L132.65 157.206ZM133.336 156.704L134.989 158.513H135.189L133.458 156.619L133.336 156.704ZM129.398 158.3L129.256 158.347L129.319 158.513H129.488L129.398 158.3ZM130.232 158.03L130.428 158.503H130.591L130.38 157.973L130.232 158.03ZM124.521 158.503L124.97 156.917L124.816 156.884L124.357 158.503H124.521ZM125.825 157.111L125.429 158.503H125.571L125.957 157.149L125.825 157.111ZM113.858 156.671L113.705 156.633L113.113 158.503H113.277L113.858 156.671ZM114.855 156.927L114.707 156.889L114.18 158.503H114.343L114.855 156.927ZM108.521 157.031L109.017 158.503H109.181L108.653 156.988L108.521 157.031ZM109.666 156.723L109.518 156.761L110.104 158.503H110.263L109.666 156.723ZM113.921 149.768L115.732 146.927L115.594 146.856L113.784 149.697L113.921 149.768ZM114.692 150.166L114.824 150.232L116.634 147.391L116.497 147.32L114.692 150.166ZM135.348 152.249L138.7 153.523L138.758 153.395L135.406 152.121L135.348 152.249ZM134.941 153.106L138.293 154.379L138.351 154.252L134.973 152.983L134.941 153.106ZM137.765 148.201L137.913 148.239L138.906 145.1L138.753 145.057L137.765 148.201ZM138.763 148.456L138.916 148.494L139.903 145.35L139.756 145.313L138.763 148.456ZM133.315 142.614L134.371 145.739L134.519 145.701L133.49 142.567L133.315 142.614ZM134.308 142.344L135.364 145.469L135.511 145.431L134.456 142.306L134.308 142.344ZM122.805 155.729L121.749 152.604L121.602 152.642L122.657 155.771L122.805 155.729ZM123.803 155.459L122.747 152.334L122.594 152.372L123.65 155.502L123.803 155.459ZM127.92 153.65L131.526 153.177V153.04L127.92 153.513V153.65ZM128.068 154.574L131.674 154.1V153.963L128.068 154.436V154.574ZM130.708 150.592L130.861 150.625L131.674 147.443L131.521 147.41L130.708 150.592ZM132.534 147.618L131.721 150.8L131.874 150.833L132.687 147.652L132.534 147.618ZM119.765 148.778L119.897 148.854L121.844 146.094L121.712 146.023L119.765 148.778ZM122.726 146.596L122.594 146.52L120.646 149.28L120.778 149.356L122.726 146.596ZM119.342 143.419L122.679 142.112V142.079H122.393L119.295 143.291L119.342 143.419ZM119.696 144.143L119.759 144.271L123.096 142.969L123.032 142.841L119.696 144.143ZM116.529 142.079H116.365L115.542 144.645L115.695 144.683L116.529 142.079ZM114.707 144.446L115.447 142.079H115.283L114.554 144.389L114.707 144.446ZM128.992 143.083L128.633 142.093H128.469L128.812 143.116L128.992 143.083ZM127.846 143.39L128 143.352L127.577 142.098H127.414L127.846 143.39ZM115.895 154.214L116.017 154.299L118.234 151.709L118.107 151.624L115.895 154.214ZM116.719 154.782L116.845 154.867L119.057 152.273L118.936 152.187L116.719 154.782ZM111.535 151.416L114.058 153.783L114.174 153.688L111.651 151.321L111.535 151.416ZM110.754 152.036L113.277 154.403L113.388 154.308L110.87 151.941L110.754 152.036ZM124.574 147.85L124.51 147.978L127.862 149.257L127.926 149.124L124.574 147.85ZM124.917 147.121L128.269 148.395L128.332 148.267L124.98 146.993L124.917 147.121ZM107.977 152.036L108.014 151.899L106.04 151.468V151.61L107.977 152.036ZM106.045 150.615L108.23 151.113L108.273 150.975L106.04 150.502L106.045 150.615ZM108.489 154.843L108.436 154.711L106.04 155.45V155.596L108.489 154.843ZM108.109 153.821L106.045 154.436V154.583L108.156 153.953L108.109 153.821ZM108.151 177.182L106.821 180.221L106.963 180.273L108.299 177.234L108.151 177.182ZM109.122 177.522L107.787 180.562L107.935 180.614L109.265 177.575L109.122 177.522ZM142.01 161.183L143.493 161.903V161.742L142.083 161.06L142.01 161.183ZM142.574 160.236L142.5 160.355L143.493 160.828V160.667L142.574 160.236ZM143.519 166.713L142.047 167.859L142.147 167.963L143.519 166.898V166.713ZM141.466 167.258L143.519 165.667V165.482L141.366 167.149L141.466 167.258ZM143.356 170.742L143.408 170.875L143.519 170.832V170.686L143.356 170.742ZM142.976 169.876L143.028 170.004L143.519 169.833V169.682L142.976 169.876ZM143.503 175.084L141.92 174.762L141.883 174.899L143.498 175.226L143.503 175.084ZM143.503 174.137L142.152 173.863L142.12 174L143.503 174.279V174.137ZM143.503 185.098L141.936 184.705L141.899 184.842L143.482 185.207L143.503 185.098ZM142.205 183.839L142.163 183.976L143.519 184.231V184.089L142.205 183.839ZM143.519 189.189V189.037L142.464 189.354L142.511 189.487L143.519 189.189ZM143.519 188.204V188.057L142.131 188.469L142.178 188.602L143.519 188.204ZM122.087 160.17L118.735 158.892L118.677 159.019L122.029 160.298L122.087 160.17ZM118.271 159.881L121.623 161.155L121.681 161.027L118.329 159.753L118.271 159.881ZM140.151 191.03L140.019 190.964L139.296 192.105H139.476L140.151 191.03ZM141.054 191.504L140.922 191.433L140.489 192.115H140.669L141.054 191.504ZM132.518 190.893L133.632 192.115H133.833L132.64 190.803L132.518 190.893ZM133.326 190.301L134.978 192.115H135.179L133.447 190.221L133.326 190.301ZM129.388 191.902L129.245 191.949L129.309 192.115H129.478L129.388 191.902ZM130.222 191.632L130.417 192.105H130.581L130.37 191.575L130.222 191.632ZM124.943 190.529L124.79 190.491L124.331 192.115H124.516L124.943 190.529ZM125.798 190.723L125.402 192.115H125.571L125.957 190.756L125.798 190.723ZM113.831 190.278L113.678 190.24L113.087 192.134H113.251L113.831 190.278ZM114.829 190.533L114.681 190.495L114.153 192.115H114.317L114.829 190.533ZM108.494 190.637L108.991 192.115H109.154L108.626 190.6L108.494 190.637ZM109.492 190.372L110.078 192.115H110.236L109.64 190.33L109.492 190.372ZM115.568 180.477L113.757 183.318L113.895 183.389L115.705 180.548L115.568 180.477ZM116.624 181.007L116.486 180.936L114.681 183.777L114.813 183.848L116.624 181.007ZM131.346 165.449L129.024 162.926L128.908 163.015L131.209 165.544L131.346 165.449ZM130.544 166.041L128.211 163.503L128.089 163.593L130.396 166.121L130.544 166.041ZM124.838 164.658L126.073 167.726L126.221 167.679L124.985 164.611L124.838 164.658ZM125.819 164.341L127.055 167.409L127.197 167.362L125.962 164.294L125.819 164.341ZM138.747 187.001L135.395 185.728L135.337 185.855L138.689 187.129L138.747 187.001ZM138.341 187.863L134.989 186.585L134.931 186.717L138.283 187.991L138.341 187.863ZM138.742 178.668L137.755 181.812L137.903 181.85L138.895 178.706L138.742 178.668ZM139.893 178.962L139.745 178.924L138.753 182.063L138.906 182.101L139.893 178.962ZM134.524 179.298L133.468 176.173L133.321 176.211L134.376 179.341L134.524 179.298ZM135.522 179.028L134.466 175.903L134.313 175.941L135.369 179.071L135.522 179.028ZM124.964 170.851L123.154 173.692L123.286 173.758L125.096 170.918L124.964 170.851ZM124.194 170.458L124.056 170.387L122.251 173.228L122.383 173.294L124.194 170.458ZM118.044 173.039L115.737 170.501L115.615 170.591L117.922 173.119L118.044 173.039ZM118.846 172.447L116.545 169.919L116.423 170.009L118.725 172.537L118.846 172.447ZM111.561 171.42L112.797 174.492L112.944 174.445L111.704 171.372L111.561 171.42ZM112.538 171.102L113.773 174.175L113.921 174.128L112.686 171.055L112.538 171.102ZM137.713 173.588L137.866 173.621L138.763 170.458L138.61 170.42L137.713 173.588ZM139.771 170.686L139.618 170.653L138.721 173.815L138.874 173.848L139.771 170.686ZM133.817 173.342L130.465 172.068L130.407 172.196L133.759 173.474L133.817 173.342ZM134.223 172.485L130.85 171.211L130.792 171.339L134.144 172.613L134.223 172.485ZM122.805 189.321L121.749 186.192L121.602 186.234L122.657 189.359L122.805 189.321ZM123.803 189.051L122.747 185.922L122.594 185.964L123.65 189.089L123.803 189.051ZM131.526 186.783V186.646L127.92 187.12V187.257L131.526 186.783ZM131.674 187.707V187.569L128.068 188.043V188.18L131.674 187.707ZM130.85 184.231L131.663 181.05L131.51 181.017L130.697 184.203L130.85 184.231ZM131.864 184.44L132.677 181.258L132.524 181.225L131.711 184.411L131.864 184.44ZM121.834 179.705L121.702 179.629L119.765 182.371L119.897 182.447L121.834 179.705ZM122.715 180.202L122.583 180.127L120.636 182.887L120.768 182.963L122.715 180.202ZM122.668 175.719L122.61 175.591L119.268 176.898L119.332 177.025L122.668 175.719ZM123.085 176.576L123.022 176.448L119.685 177.754L119.749 177.882L123.085 176.576ZM116.671 175.155L116.523 175.113L115.542 178.233L115.695 178.271L116.671 175.155ZM114.681 178.043L115.668 174.899L115.52 174.862L114.528 178.005L114.681 178.043ZM128.96 176.656L127.905 173.531L127.751 173.569L128.807 176.699L128.96 176.656ZM126.77 173.815L127.825 176.94L127.978 176.902L126.923 173.777L126.77 173.815ZM121.707 165.766L118.799 167.736L118.894 167.845L121.802 165.88L121.707 165.766ZM119.522 168.607L122.425 166.638L122.335 166.529L119.427 168.493L119.522 168.607ZM117.009 165.904L116.001 162.765L115.848 162.807L116.861 165.942L117.009 165.904ZM114.85 163.063L115.858 166.24L116.011 166.202L115.014 163.053L114.85 163.063ZM111.377 162.878L111.165 166.136H111.318L111.53 162.873L111.377 162.878ZM112.2 166.192H112.358L112.57 162.93H112.411L112.2 166.192ZM118.181 185.278L118.054 185.193L115.842 187.787L115.964 187.872L118.181 185.278ZM119.004 185.846L118.883 185.761L116.666 188.355L116.793 188.441L119.004 185.846ZM111.482 184.984L114.005 187.352L114.122 187.252L111.598 184.885L111.482 184.984ZM110.754 185.652L113.277 188.019L113.388 187.925L110.87 185.557L110.754 185.652ZM137.264 167.466L137.142 167.381L134.851 169.919L134.973 170.009L137.264 167.466ZM136.335 166.794L134.044 169.332L134.165 169.421L136.451 166.879L136.335 166.794ZM136.974 161.979H136.82L136.409 165.222H136.567L136.974 161.979ZM135.786 161.856L135.379 165.103H135.532L135.939 161.86L135.786 161.856ZM127.926 182.735L124.574 181.462L124.51 181.59L127.862 182.863L127.926 182.735ZM124.917 180.728L128.269 182.001L128.332 181.874L124.98 180.6L124.917 180.728ZM107.766 162.779L107.84 162.656L106.045 161.789V161.95L107.766 162.779ZM106.045 160.885L108.257 161.95L108.331 161.827L106.04 160.714L106.045 160.885ZM107.428 165.814L107.322 165.71L106.04 166.713V166.898L107.428 165.814ZM106.747 165.108L106.641 164.999L106.045 165.473V165.657L106.747 165.108ZM109.265 169.54L106.045 170.671V170.818L109.323 169.668L109.265 169.54ZM108.943 168.801L108.89 168.669L106.04 169.658V169.81L108.943 168.801ZM107.982 175.595L108.014 175.458L106.045 175.06V175.202L107.982 175.595ZM106.04 174.237L108.204 174.677L108.241 174.54L106.04 174.095V174.237ZM107.977 185.652L108.014 185.519L106.045 185.07V185.216L107.977 185.652ZM106.04 184.231L108.225 184.733L108.267 184.596L106.04 184.094V184.231ZM108.484 188.46L108.431 188.327L106.04 189.037V189.189L108.484 188.46ZM108.156 187.574L108.104 187.442L106.04 188.057V188.204L108.156 187.574ZM138.204 160.203L138.335 160.269L139.46 158.508H139.296L138.204 160.203ZM139.106 160.677L139.238 160.743L140.663 158.518H140.484L139.106 160.677ZM134.941 159.73L133.827 158.508H133.627L134.82 159.815L134.941 159.73ZM135.627 159.228L135.749 159.138L135.173 158.508H134.973L135.627 159.228ZM130.623 161.368L129.472 158.527H129.303L130.475 161.434L130.623 161.368ZM131.452 161.098L131.6 161.051L130.576 158.508H130.412L131.452 161.098ZM123.903 160.052L124.056 160.085L124.505 158.508H124.341L123.903 160.052ZM124.911 160.284L125.065 160.317L125.592 158.508H125.429L124.911 160.284ZM112.849 159.81L113.261 158.499H113.097L112.696 159.772L112.849 159.81ZM114.343 158.499H114.18L113.699 160.023L113.852 160.066L114.343 158.499ZM109.54 160.151L109.687 160.113L109.159 158.499H108.996L109.54 160.151ZM110.685 159.843L110.231 158.499H110.073L110.532 159.886L110.685 159.843ZM142.078 194.667L142.004 194.79L143.488 195.509V195.348L142.078 194.667ZM142.569 193.848L142.495 193.971L143.488 194.444V194.288L142.569 193.848ZM143.519 200.462V200.282L142.047 201.423L142.147 201.527L143.519 200.462ZM143.519 199.231V199.046L141.366 200.718L141.466 200.822L143.519 199.231ZM143.356 204.306L143.408 204.439L143.519 204.401V204.25L143.356 204.306ZM142.976 203.44L143.028 203.573L143.519 203.397V203.246L142.976 203.44ZM141.92 208.321L141.883 208.459L143.498 208.785V208.639L141.92 208.321ZM143.503 207.682L142.152 207.408L142.12 207.545L143.503 207.829V207.682ZM122.087 193.758L118.735 192.484L118.677 192.612L122.029 193.885L122.087 193.758ZM118.271 193.469L121.623 194.747L121.681 194.615L118.329 193.341L118.271 193.469ZM128.908 196.589L131.209 199.117L131.33 199.027L129.024 196.504L128.908 196.589ZM130.528 199.619L128.211 197.096L128.089 197.181L130.396 199.709L130.528 199.619ZM126.205 201.276L124.97 198.203L124.822 198.251L126.057 201.324L126.205 201.276ZM127.181 200.959L125.946 197.886L125.804 197.934L127.039 201.006L127.181 200.959ZM125.07 204.515L124.938 204.444L123.127 207.285L123.259 207.356L125.07 204.515ZM124.167 204.041L124.03 203.975L122.225 206.816L122.356 206.887L124.167 204.041ZM118.017 206.622L115.737 204.117L115.615 204.202L117.922 206.731L118.017 206.622ZM118.82 206.03L116.518 203.506L116.397 203.592L118.698 206.12L118.82 206.03ZM112.918 208.028L111.677 204.96L111.535 205.007L112.77 208.075L112.918 208.028ZM113.895 207.711L112.659 204.643L112.511 204.69L113.747 207.758L113.895 207.711ZM138.705 204.051L138.552 204.018L137.655 207.18L137.808 207.214L138.705 204.051ZM139.713 204.278L139.56 204.245L138.663 207.412L138.816 207.446L139.713 204.278ZM133.817 206.958L130.465 205.684L130.407 205.812L133.759 207.086L133.817 206.958ZM134.223 206.096L130.85 204.799L130.792 204.927L134.144 206.205L134.223 206.096ZM116.518 208.705L116.37 209.178H116.534L116.666 208.762L116.518 208.705ZM115.663 208.487L115.515 208.449L115.288 209.159H115.452L115.663 208.487ZM127.762 207.18L128.427 209.159H128.591L127.915 207.138L127.762 207.18ZM126.917 207.408L126.77 207.446L127.34 209.159H127.503L126.917 207.408ZM121.802 199.534L121.707 199.425L118.799 201.39L118.894 201.504L121.802 199.534ZM122.425 200.282L122.335 200.168L119.427 202.133L119.522 202.247L122.425 200.282ZM116.861 199.586L117.009 199.543L116.001 196.409L115.848 196.447L116.861 199.586ZM116.011 199.804L115.014 196.646L114.866 196.684L115.874 199.818L116.011 199.804ZM111.318 199.804L111.53 196.546H111.377L111.165 199.809L111.318 199.804ZM112.374 199.861L112.585 196.598H112.427L112.216 199.856L112.374 199.861ZM137.28 201.082L137.158 200.992L134.867 203.53L134.989 203.62L137.28 201.082ZM136.351 200.405L134.06 202.943L134.181 203.033L136.467 200.495L136.351 200.405ZM136.989 195.595H136.836L136.425 198.838H136.583L136.989 195.595ZM135.802 195.476L135.395 198.72H135.548L135.955 195.472L135.802 195.476ZM107.782 196.395L107.856 196.272L106.061 195.405V195.566L107.782 196.395ZM108.346 195.448L106.04 194.307V194.463L108.251 195.533L108.346 195.448ZM107.428 199.382L107.322 199.273L106.04 200.277V200.462L107.428 199.382ZM106.747 198.672L106.641 198.568L106.045 199.042V199.226L106.747 198.672ZM109.265 203.104L106.045 204.235V204.387L109.323 203.232L109.265 203.104ZM106.045 203.383L108.943 202.365L108.89 202.237L106.045 203.232V203.383ZM106.045 208.624V208.771L107.792 209.122H107.988L108.014 209.027L106.045 208.624ZM108.209 208.25L108.246 208.113L106.045 207.668V207.815L108.209 208.25ZM138.341 193.852L139.465 192.091H139.296L138.24 193.781L138.341 193.852ZM140.489 192.091L139.111 194.245L139.243 194.316L140.669 192.091H140.489ZM134.825 193.398L134.946 193.308L133.833 192.091H133.632L134.825 193.398ZM135.633 192.806L135.754 192.716L135.179 192.091H134.978L135.633 192.806ZM130.628 194.946L129.478 192.105H129.309L130.481 195.008L130.628 194.946ZM131.457 194.681L131.605 194.629L130.581 192.091H130.417L131.457 194.681ZM124.067 193.668L124.516 192.091H124.352L123.914 193.635L124.067 193.668ZM124.922 193.862L125.075 193.895L125.603 192.091H125.439L124.922 193.862ZM112.86 193.388L113.272 192.082H113.108L112.707 193.35L112.86 193.388ZM114.19 192.082L113.71 193.606L113.863 193.644L114.354 192.082H114.19ZM109.55 193.734L109.698 193.691L109.17 192.082H109.006L109.55 193.734ZM110.542 193.464L110.696 193.426L110.242 192.082H110.083L110.542 193.464ZM104.456 151.245L106.04 151.61V151.468L104.482 151.113L104.456 151.245ZM104.752 150.208L104.715 150.341L106.055 150.649V150.502L104.752 150.208ZM106.04 155.596V155.45L104.984 155.767L105.037 155.899L106.04 155.596ZM104.657 154.877L104.704 155.009L106.045 154.611V154.465L104.657 154.877ZM101.817 158.513H101.996L102.682 157.443L102.545 157.372L101.817 158.513ZM103.015 158.513H103.194L103.585 157.907L103.448 157.836L103.015 158.513ZM95.1705 157.206L95.0491 157.296L96.163 158.513H96.3636L95.1705 157.206ZM95.8568 156.704L97.5038 158.513H97.7097L95.9782 156.619L95.8568 156.704ZM91.9188 158.3L91.771 158.347L91.8396 158.513H92.0033L91.9188 158.3ZM92.7528 158.03L92.9429 158.503H93.1118L92.9007 157.973L92.7528 158.03ZM87.0359 158.503L87.4846 156.917L87.3368 156.884L86.8775 158.503H87.0359ZM88.345 157.111L87.9491 158.503H88.1128L88.4928 157.149L88.345 157.111ZM75.7973 158.503L76.3726 156.671L76.2248 156.633L75.6336 158.503H75.7973ZM77.3809 156.927L77.2278 156.889L76.6999 158.503H76.8636L77.3809 156.927ZM97.8522 152.249L101.204 153.523L101.268 153.395L97.9155 152.121L97.8522 152.249ZM97.4457 153.106L100.814 154.403L100.877 154.275L97.5249 152.983L97.4457 153.106ZM100.27 148.201L100.423 148.239L101.41 145.1L101.262 145.057L100.27 148.201ZM101.273 148.456L101.421 148.494L102.413 145.35L102.265 145.313L101.273 148.456ZM95.8621 142.614L96.9178 145.739L97.0656 145.701L96.0099 142.567L95.8621 142.614ZM96.8598 142.344L97.9155 145.469L98.0633 145.431L97.0076 142.306L96.8598 142.344ZM84.1589 152.642L85.2147 155.771L85.3625 155.729L84.3067 152.604L84.1589 152.642ZM86.3549 155.483L85.2991 152.358L85.1513 152.396L86.2071 155.525L86.3549 155.483ZM90.4724 153.674L94.0778 153.201V153.063L90.4724 153.537V153.674ZM90.5938 154.46V154.597L94.1992 154.124V153.987L90.5938 154.46ZM94.2151 147.467L94.062 147.434L93.2543 150.615L93.4021 150.649L94.2151 147.467ZM95.0808 147.642L94.2679 150.824L94.4157 150.857L95.2286 147.675L95.0808 147.642ZM82.2849 148.778L82.4169 148.854L84.3648 146.094L84.2328 146.023L82.2849 148.778ZM83.1665 149.28L83.2985 149.356L85.2463 146.596L85.1144 146.52L83.1665 149.28ZM91.4965 143.064L91.1586 142.055H91.0003L91.3487 143.083L91.4965 143.064ZM90.351 143.371L90.4988 143.334L90.124 142.207L89.9709 142.235L90.351 143.371ZM78.3997 154.195L78.5211 154.28L80.733 151.69L80.6115 151.605L78.3997 154.195ZM81.567 152.254L81.4403 152.168L79.2285 154.763L79.3552 154.848L81.567 152.254ZM87.1098 147.855L87.0517 147.983L90.4038 149.261L90.4618 149.129L87.1098 147.855ZM87.4582 147.126L90.8102 148.4L90.8683 148.272L87.5162 146.998L87.4582 147.126ZM70.6926 177.215L69.3624 180.254L69.5049 180.306L70.8352 177.267L70.6926 177.215ZM71.6587 177.556L70.3284 180.595L70.4709 180.647L71.8065 177.608L71.6587 177.556ZM104.546 161.216L106.034 161.936V161.775L104.62 161.093L104.546 161.216ZM105.116 160.269L105.042 160.388L106.034 160.861V160.7L105.116 160.269ZM106.04 166.713L104.562 167.859L104.667 167.963L106.04 166.898V166.713ZM103.986 167.258L106.04 165.667V165.482L103.886 167.149L103.986 167.258ZM105.871 170.742L105.929 170.875L106.04 170.832V170.686L105.871 170.742ZM106.04 169.682L105.512 169.876L105.57 170.004L106.061 169.833L106.04 169.682ZM106.04 175.075L104.456 174.753L104.424 174.89L106.04 175.217V175.075ZM104.688 173.844L104.651 173.981L106.04 174.26V174.118L104.688 173.844ZM106.04 185.055L104.482 184.7L104.44 184.838L106.024 185.202L106.04 185.055ZM104.736 183.796L104.699 183.933L106.04 184.231V184.089L104.736 183.796ZM106.04 189.189V189.037L104.984 189.354L105.037 189.487L106.04 189.189ZM106.04 188.204V188.057L104.651 188.469L104.699 188.602L106.04 188.204ZM81.2292 159.019L84.5812 160.298L84.6446 160.17L81.2925 158.892L81.2292 159.019ZM80.8227 159.881L84.1748 161.155L84.2381 161.027L80.886 159.753L80.8227 159.881ZM102.709 191.03L102.571 190.964L101.817 192.105H101.996L102.709 191.03ZM103.611 191.504L103.474 191.433L103.041 192.115H103.221L103.611 191.504ZM95.0755 190.893L96.1894 192.115H96.39L95.1969 190.803L95.0755 190.893ZM95.8832 190.301L97.5302 192.115H97.7361L96.0046 190.221L95.8832 190.301ZM91.9452 191.902L91.7974 191.949L91.866 192.115H92.0296L91.9452 191.902ZM92.7792 191.632L92.9693 192.105H93.1382L92.927 191.575L92.7792 191.632ZM86.9039 192.105H87.0623L87.511 190.519L87.3632 190.481L86.9039 192.105ZM88.3714 190.713L87.9755 192.105H88.1391L88.5192 190.746L88.3714 190.713ZM71.1994 190.59L71.0516 190.628L71.3419 191.49L71.4686 191.386L71.1994 190.59ZM72.1971 190.32L72.044 190.363L72.1865 190.77L72.308 190.661L72.1971 190.32ZM78.2625 180.534L78.1252 180.467L76.3146 183.308L76.4518 183.379L78.2625 180.534ZM77.3545 183.848L79.1651 181.007L79.0279 180.936L77.2173 183.777L77.3545 183.848ZM93.8983 165.44L91.5757 162.926L91.4542 163.015L93.7611 165.544L93.8983 165.44ZM93.0907 166.031L90.7838 163.503L90.6677 163.593L92.9693 166.121L93.0907 166.031ZM87.3896 164.649L88.6248 167.717L88.7726 167.67L87.5374 164.602L87.3896 164.649ZM88.3661 164.332L89.6014 167.4L89.7492 167.352L88.5139 164.284L88.3661 164.332ZM101.289 186.992L97.9366 185.718L97.8733 185.846L101.225 187.12L101.289 186.992ZM100.882 187.854L97.5302 186.575L97.4668 186.708L100.819 187.981L100.882 187.854ZM101.283 178.659L100.291 181.803L100.444 181.84L101.431 178.697L101.283 178.659ZM102.434 178.952L102.286 178.914L101.289 182.054L101.437 182.091L102.434 178.952ZM97.0656 179.289L96.0099 176.164L95.8621 176.202L96.9178 179.331L97.0656 179.289ZM98.0633 179.019L97.0076 175.894L96.8598 175.932L97.9155 179.061L98.0633 179.019ZM87.5057 170.842L85.6951 173.683L85.8323 173.749L87.6429 170.908L87.5057 170.842ZM86.603 170.368L84.7924 173.209L84.9296 173.275L86.7403 170.435L86.603 170.368ZM78.1569 170.581L80.4637 173.11L80.5799 173.02L78.2889 170.501L78.1569 170.581ZM78.9593 169.99L81.2661 172.518L81.3875 172.428L79.1176 169.909L78.9593 169.99ZM74.0975 171.41L75.3327 174.483L75.4805 174.435L74.2453 171.363L74.0975 171.41ZM75.0793 171.093L76.3146 174.166L76.4571 174.118L75.2219 171.045L75.0793 171.093ZM100.233 173.588L100.386 173.621L101.278 170.458L101.13 170.42L100.233 173.588ZM102.292 170.686L102.139 170.653L101.241 173.815L101.394 173.848L102.292 170.686ZM96.3688 173.342L93.0168 172.068L92.9534 172.196L96.3055 173.474L96.3688 173.342ZM96.7753 172.485L93.4233 171.211L93.3599 171.339L96.712 172.613L96.7753 172.485ZM85.1619 185.964L86.2177 189.089L86.3655 189.051L85.3097 185.922L85.1619 185.964ZM94.0831 186.783V186.646L90.4777 187.12V187.257L94.0831 186.783ZM94.2256 187.707V187.569L90.6202 188.043V188.18L94.2256 187.707ZM93.4021 184.231L94.2151 181.05L94.062 181.017L93.2543 184.203L93.4021 184.231ZM94.4157 184.44L95.2286 181.258L95.0808 181.225L94.2679 184.411L94.4157 184.44ZM84.2487 179.629L82.8762 181.575L82.9342 181.755L84.3965 179.686L84.2487 179.629ZM85.1302 180.127L83.2721 182.759L83.3301 182.934L85.2622 180.202L85.1302 180.127ZM81.8151 176.898L81.8785 177.025L85.2147 175.719L85.1513 175.591L81.8151 176.898ZM85.6317 176.576L85.5684 176.448L82.2321 177.754L82.2902 177.882L85.6317 176.576ZM79.2179 175.155L79.0648 175.113L78.0619 178.233L78.2097 178.271L79.2179 175.155ZM77.2225 178.043L78.215 174.899L78.0671 174.862L77.0747 178.005L77.2225 178.043ZM91.5123 176.656L90.4566 173.531L90.3087 173.569L91.3645 176.699L91.5123 176.656ZM89.3163 173.815L90.3721 176.94L90.5199 176.902L89.4641 173.777L89.3163 173.815ZM84.2539 165.766L81.3506 167.736L81.4456 167.845L84.349 165.88L84.2539 165.766ZM81.9735 168.479L82.0685 168.593L84.9771 166.623L84.8821 166.514L81.9735 168.479ZM78.3997 162.798L79.408 165.932L79.5611 165.894L78.5475 162.755L78.3997 162.798ZM77.402 163.053L78.4103 166.192L78.5581 166.155L77.534 163.053H77.402ZM73.7068 166.126H73.8652L74.0764 162.864H73.918L73.7068 166.126ZM75.111 162.93H74.9579L74.7468 166.192H74.8998L75.111 162.93ZM76.3885 186.93L74.1608 184.852L74.05 184.946L76.2829 187.03L76.3885 186.93ZM73.4112 185.51L73.3109 185.652L75.5703 187.759L75.6758 187.659L73.4112 185.51ZM99.8054 167.423L99.6839 167.338L97.3982 169.876L97.5196 169.966L99.8054 167.423ZM98.8763 166.751L96.5853 169.289L96.7067 169.379L98.9977 166.836L98.8763 166.751ZM99.5256 161.979H99.3672L98.9607 165.222H99.1138L99.5256 161.979ZM98.3326 161.856L97.9261 165.103H98.0844L98.4909 161.86L98.3326 161.856ZM90.4724 182.735L87.1203 181.462L87.0623 181.59L90.4143 182.863L90.4724 182.735ZM90.8789 181.874L87.5268 180.6L87.4687 180.728L90.8208 182.001L90.8789 181.874ZM69.9747 165.818L69.8744 165.714L69.753 165.809L69.4891 166.197L69.9747 165.818ZM71.817 169.545L68.5969 170.676V170.823L71.8751 169.672L71.817 169.545ZM71.495 168.806L71.4369 168.673L68.5969 169.672V169.824L71.495 168.806ZM70.529 175.6L70.5659 175.463L68.5969 175.065V175.207L70.529 175.6ZM70.7613 174.691L70.7929 174.554L68.5969 174.109V174.251L70.7613 174.691ZM70.5237 185.652L70.5659 185.519L68.5969 185.07V185.216L70.5237 185.652ZM68.5969 184.231L70.7824 184.733L70.8193 184.596L68.5969 184.089V184.231ZM71.0358 188.46L70.9882 188.327L68.5969 189.032V189.184L71.0358 188.46ZM70.7085 187.574L70.661 187.442L68.5969 188.052V188.199L70.7085 187.574ZM100.761 160.208L100.898 160.274L102.022 158.513H101.817L100.761 160.208ZM101.664 160.681L101.801 160.748L103.221 158.522H103.041L101.664 160.681ZM97.5038 159.734L96.39 158.513H96.1894L97.3824 159.82L97.5038 159.734ZM98.1847 159.233L98.3062 159.143L97.7361 158.513H97.5302L98.1847 159.233ZM93.1804 161.373L92.0296 158.532H91.866L93.0326 161.439L93.1804 161.373ZM94.0145 161.103L94.1623 161.055L93.1382 158.513H92.9693L94.0145 161.103ZM86.4658 160.056L86.6189 160.089L87.0623 158.513H86.9039L86.4658 160.056ZM87.474 160.288L87.6218 160.321L88.1497 158.513H87.9861L87.474 160.288ZM75.2588 159.786L75.4119 159.824L75.8236 158.513H75.66L75.2588 159.786ZM76.9058 158.513H76.7422L76.2618 160.037L76.4096 160.08L76.9058 158.513ZM104.562 194.804L106.05 195.524V195.363L104.635 194.681L104.562 194.804ZM105.132 193.857L105.058 193.98L106.05 194.454V194.297L105.132 193.857ZM106.04 200.462V200.277L104.562 201.423L104.667 201.527L106.04 200.462ZM106.04 199.231V199.046L103.886 200.718L103.986 200.822L106.04 199.231ZM105.871 204.306L105.929 204.439L106.04 204.401V204.25L105.871 204.306ZM105.491 203.44L105.549 203.573L106.04 203.397V203.246L105.491 203.44ZM104.435 208.321L104.403 208.459L106.019 208.785V208.639L104.435 208.321ZM106.019 207.682L104.667 207.408L104.63 207.545L106.019 207.829V207.682ZM91.4542 196.589L93.7611 199.117L93.8825 199.027L91.5757 196.504L91.4542 196.589ZM93.0749 199.619L90.768 197.096L90.6519 197.181L92.9534 199.709L93.0749 199.619ZM88.7568 201.276L87.701 198.634L87.6271 198.866L88.6142 201.324L88.7568 201.276ZM89.7334 200.959L88.4981 197.886L88.3503 197.934L89.5855 201.006L89.7334 200.959ZM87.6218 204.515L87.4846 204.444L85.6739 207.285L85.8112 207.356L87.6218 204.515ZM86.5661 203.984L85.4522 205.774L85.278 206.328L86.7403 204.037L86.5661 203.984ZM101.246 204.06L101.099 204.027L100.201 207.19L100.354 207.223L101.246 204.06ZM102.26 204.287L102.107 204.254L101.21 207.422L101.363 207.455L102.26 204.287ZM96.3688 206.958L93.0168 205.684L92.9534 205.812L96.3055 207.086L96.3688 206.958ZM96.7753 206.096L93.4233 204.823L93.3599 204.95L96.712 206.229L96.7753 206.096ZM90.314 207.18L90.9792 209.159H91.1428L90.4618 207.138L90.314 207.18ZM89.4694 207.408L89.3163 207.446L89.8917 209.159H90.0554L89.4694 207.408ZM99.8106 201.063L99.6892 200.973L97.4035 203.511L97.5249 203.601L99.8106 201.063ZM98.8816 200.386L96.5905 202.924L96.712 203.014L99.003 200.476L98.8816 200.386ZM99.5256 195.576H99.3672L98.9607 198.819H99.1138L99.5256 195.576ZM98.3326 195.457L97.9261 198.701H98.0844L98.4909 195.453L98.3326 195.457ZM100.893 193.89L102.017 192.129H101.817L100.761 193.819L100.893 193.89ZM103.036 192.129L101.658 194.283L101.795 194.354L103.215 192.129H103.036ZM97.3771 193.436L97.4985 193.346L96.3847 192.129H96.1841L97.3771 193.436ZM98.1795 192.844L98.3009 192.754L97.7308 192.129H97.5249L98.1795 192.844ZM93.1751 194.984L92.0244 192.143H91.8607L93.0273 195.045L93.1751 194.984ZM94.0092 194.719L94.157 194.667L93.1329 192.129H92.964L94.0092 194.719ZM86.6716 192.915L86.7614 193.175L87.057 192.129H86.8986L86.6716 192.915ZM87.4687 193.9L87.6165 193.933L88.1444 192.129H87.9808L87.4687 193.9ZM68.428 170.742L68.4861 170.875L68.5969 170.832V170.686L68.428 170.742ZM68.5969 169.682L68.0691 169.876L68.1271 170.004L68.618 169.833L68.5969 169.682ZM66.9763 174.89L68.5969 175.217V175.075L67.0133 174.753L66.9763 174.89ZM67.2086 173.981L68.5969 174.26V174.118L67.2403 173.815L67.2086 173.981ZM68.5969 185.079L67.0133 184.724L66.9763 184.861L68.56 185.226L68.5969 185.079ZM67.2931 183.82L67.2561 183.957L68.5969 184.26V184.118L67.2931 183.82ZM68.5969 189.212V189.061L67.5412 189.378L67.5887 189.511L68.5969 189.212ZM68.5969 188.228V188.081L67.2033 188.493L67.2508 188.625L68.5969 188.228ZM65.2502 191.068L65.1182 191.002L64.3897 192.143H64.5692L65.2502 191.068ZM66.1528 191.542L66.0209 191.471L65.588 192.153H65.7675L66.1528 191.542ZM57.6223 190.931L58.7308 192.153H58.9367L57.7437 190.841L57.6223 190.931ZM58.4246 190.339L60.0769 192.153H60.2775L58.546 190.259L58.4246 190.339ZM55.4685 191.622L55.3207 191.67L55.516 192.143H55.6849L55.4685 191.622ZM53.1986 163.64L53.7265 164.247L53.1986 163.617V163.64ZM49.9205 164.696L51.161 167.764L51.3035 167.717L50.0841 164.602L49.9205 164.696ZM50.9023 164.379L52.1376 167.447L52.2854 167.4L51.0501 164.332L50.9023 164.379ZM63.809 186.992L60.457 185.718L60.3989 185.846L63.751 187.12L63.809 186.992ZM63.4026 187.854L60.0558 186.575L59.9924 186.708L63.3445 187.981L63.4026 187.854ZM63.809 178.659L62.8166 181.803L62.9644 181.84L63.9568 178.697L63.809 178.659ZM64.9598 178.952L64.8067 178.914L63.8196 182.054L63.9674 182.091L64.9598 178.952ZM59.5913 179.289L58.5355 176.164L58.3877 176.202L59.4435 179.331L59.5913 179.289ZM60.5837 179.019L59.5279 175.894L59.3801 175.932L60.4359 179.061L60.5837 179.019ZM50.1738 170.913L50.0419 170.842L48.2312 173.683L48.3685 173.749L50.1738 170.913ZM49.2712 170.439L49.1392 170.368L47.3285 173.209L47.4658 173.275L49.2712 170.439ZM58.9156 173.342L55.5635 172.068L55.5054 172.196L58.8575 173.474L58.9156 173.342ZM59.322 172.485L55.97 171.211L55.9119 171.339L59.264 172.613L59.322 172.485ZM53.0191 187.238L56.6246 186.765V186.627L53.0191 187.101V187.238ZM53.1669 188.161L56.7724 187.688V187.55L53.1669 188.024V188.161ZM55.8063 184.184L55.9594 184.213L56.7724 181.031L56.6193 180.998L55.8063 184.184ZM57.6328 181.206L56.8199 184.392L56.973 184.421L57.7859 181.239L57.6328 181.206ZM47.7086 175.572L46.3203 176.116L46.3731 176.249L47.772 175.7L47.7086 175.572ZM48.1204 176.429L46.6581 177.002L46.7109 177.134L48.1837 176.557L48.1204 176.429ZM52.8713 173.588L53.9271 176.718L54.0802 176.675L53.0244 173.55L52.8713 173.588ZM51.8736 173.858L52.9294 176.983L53.0825 176.945L52.0267 173.82L51.8736 173.858ZM43.9026 167.802L43.9976 167.911L46.9062 165.946L46.8112 165.833L43.9026 167.802ZM47.5344 166.69L47.4394 166.581L44.5308 168.546L44.6258 168.659L47.5344 166.69ZM53.0297 182.745L49.6776 181.471L49.6143 181.599L52.9663 182.873L53.0297 182.745ZM50.0207 180.737L53.3728 182.011L53.4361 181.883L50.0841 180.586L50.0207 180.737ZM67.1875 194.705L67.1136 194.828L67.2456 194.733L67.1875 194.705ZM67.6784 193.885L67.6045 194.009L67.9899 194.193L68.1166 194.094L67.6784 193.885ZM61.6975 197.304H61.8559L62.0723 195.552H61.9192L61.6975 197.304ZM60.6417 197.143L60.7948 197.186L61.0113 195.448H60.8582L60.6417 197.143ZM64.5428 192.105H64.3633L63.3076 193.796L63.4395 193.867L64.5428 192.105ZM65.7411 192.105H65.5616L64.1838 194.259L64.3211 194.331L65.7411 192.105ZM59.9027 193.412L60.0188 193.322L58.9103 192.105H58.7044L59.9027 193.412ZM60.7051 192.82L60.8265 192.73L60.2511 192.105H60.0505L60.7051 192.82ZM55.4896 192.105L56.2445 193.999L56.5348 194.302L55.6585 192.124L55.4896 192.105Z" fill="white"/>
<path d="M99.2615 142.093C99.2615 142.093 90.6887 141.023 86.7296 143.319C82.7705 145.615 63.2072 175.605 63.2072 175.605L52.4014 162.561L43.0315 166.334C43.0315 166.334 47.4235 181.58 52.5334 189.165C57.6433 196.75 60.5572 197.517 62.3098 197.266C67.5252 196.522 82.6332 180.846 82.6332 180.846L88.1232 197.228L84.3964 209.136H153.813L145.393 196.541C145.393 196.541 156.378 151.089 153.581 146.273C150.783 141.458 134.482 142.093 129.356 142.093H114.681C112.457 142.488 110.197 142.698 107.929 142.718C105.03 142.642 102.137 142.433 99.2615 142.093V142.093Z" stroke="#263238" stroke-width="0.985332"/>
<path d="M82.6386 180.846C80.6289 177.245 79.8485 173.192 80.3951 169.194C81.4139 162.817 85.8164 155.833 85.8164 155.833C85.8164 155.833 77.0325 167.196 77.0325 170.984C77.0325 174.772 79.6455 180.311 79.6455 180.311L77.365 186.149L82.6386 180.846Z" fill="#263238" stroke="#263238" stroke-width="0.985332" stroke-linecap="round" stroke-linejoin="round"/>
<path d="M106.531 135.81L106.763 142.496L100.476 142.704C100.476 142.704 99.1771 167.234 104.773 171.623C110.368 176.012 127.26 142.093 127.26 142.093L121.454 141.047L119.59 127.468L106.531 135.81Z" fill="#CFCFCF" stroke="#263238" stroke-width="0.985332" stroke-linecap="round" stroke-linejoin="round"/>
<path d="M120.261 130.119L106.815 141.482V137.463L120.261 130.119Z" fill="#263238" stroke="#263238" stroke-width="0.985332" stroke-linecap="round" stroke-linejoin="round"/>
<path d="M104.773 171.623C104.773 171.623 105.448 167.674 108.832 162.514L104.773 171.623Z" fill="white"/>
<path d="M104.773 171.623C104.773 171.623 105.448 167.674 108.832 162.514" stroke="#263238" stroke-width="0.985332" stroke-linecap="round" stroke-linejoin="round"/>
<path d="M103.823 98.1128L88.5139 112.388C89.7166 115.426 90.2996 118.634 90.2348 121.857C90.0553 126.914 95.1811 134.352 99.3725 137.808C103.564 141.264 112.116 135.952 115.309 134.077C117.442 132.781 119.431 131.303 121.248 129.665C122.413 129.619 123.546 129.31 124.541 128.765C125.536 128.22 126.361 127.458 126.938 126.549C126.938 126.549 104.694 105.229 103.823 98.1128Z" fill="#CFCFCF" stroke="#263238" stroke-width="0.985332" stroke-linecap="round" stroke-linejoin="round"/>
<path d="M99.6733 112.771C100.203 113.738 100.545 114.779 100.687 115.849C100.734 117.169 98.153 123.358 98.5225 123.77C98.8921 124.182 100.048 125.545 100.951 125.37" stroke="#263238" stroke-width="0.985332" stroke-linecap="round" stroke-linejoin="round"/>
<path d="M106.04 119.537C108.196 118.812 110.568 118.787 112.744 119.466" stroke="#263238" stroke-width="0.492666" stroke-linecap="round" stroke-linejoin="round"/>
<path d="M94.1252 120.03C95.2783 119.739 96.4697 119.589 97.6673 119.584" stroke="#263238" stroke-width="0.492666" stroke-linecap="round" stroke-linejoin="round"/>
<path d="M97.7412 109.272C97.1497 109.233 96.5561 109.316 96.0066 109.517C95.4572 109.717 94.9669 110.029 94.5739 110.427C93.2489 111.796 92.6049 112.989 92.2723 112.023C91.9398 111.057 93.4178 109.282 93.9405 108.922C94.4631 108.562 96.9124 107.151 97.7412 109.272Z" fill="#263238"/>
<path d="M104.292 108.477C105.845 108.472 107.377 108.796 108.763 109.424C110.785 110.418 109.819 108.401 108.399 107.824C106.979 107.246 104.519 107.303 104.292 108.477Z" fill="#263238"/>
<path d="M127.73 132.221C127.825 133.642 127.007 134.825 125.914 134.882C124.822 134.939 123.856 133.841 123.761 132.43C123.665 131.019 124.325 127.378 125.418 127.321C126.511 127.264 127.64 130.806 127.73 132.221Z" fill="#00847A" stroke="#263238" stroke-width="0.985332" stroke-linecap="round" stroke-linejoin="round"/>
<path d="M97.113 117.473C97.1869 118.42 96.7858 119.187 96.2209 119.22C95.6561 119.253 95.1652 118.529 95.0754 117.601C94.9857 116.673 95.4027 115.887 95.9675 115.854C96.5324 115.82 97.0655 116.564 97.113 117.473Z" fill="#263238"/>
<path d="M108.505 117.108C108.579 118.055 108.177 118.817 107.618 118.855C107.058 118.893 106.562 118.164 106.467 117.231C106.372 116.299 106.8 115.522 107.359 115.489C107.919 115.456 108.436 116.18 108.505 117.108Z" fill="#263238"/>
<path d="M100.877 128.064C100.877 128.064 103.564 128.836 107.212 126.038" stroke="#263238" stroke-width="0.985332" stroke-linecap="round" stroke-linejoin="round"/>
<path d="M52.4013 162.57L47.4867 156.666C47.2597 155.094 46.8216 151.846 46.7477 149.654C46.6474 146.671 46.811 144.848 44.9212 142.202C43.0314 139.555 37.7578 135.374 37.2616 134.404C36.7654 133.433 35.3296 136.17 36.2322 137.945C37.1349 139.721 37.9584 140.265 37.9584 140.265C37.9584 140.265 28.2506 135.938 27.9286 136.643C27.6066 137.349 32.4473 149.825 34.6644 153.115C35.5882 154.488 38.1484 156.325 39.3837 157.916C39.9878 158.701 40.5058 159.537 40.9304 160.411C42.0812 164.8 43.422 169.63 44.0977 169.805C45.6338 170.207 52.1532 170.302 52.4013 162.57Z" fill="#CFCFCF" stroke="#263238" stroke-width="0.985332" stroke-miterlimit="10"/>
<path d="M38.6026 149.005C38.5138 149.027 38.4213 149.032 38.3301 149.022C38.239 149.011 38.1512 148.984 38.0717 148.943C37.9923 148.901 37.9227 148.846 37.867 148.78C37.8114 148.715 37.7707 148.64 37.7474 148.56L30.0245 122.951C29.9832 122.796 30.0094 122.633 30.0977 122.494C30.186 122.356 30.3297 122.254 30.4996 122.207C30.678 122.165 30.8678 122.188 31.0279 122.27C31.1879 122.353 31.3053 122.488 31.3547 122.648L39.0988 148.248C39.1424 148.407 39.115 148.576 39.0223 148.717C38.9296 148.859 38.779 148.962 38.6026 149.005Z" fill="#263238" stroke="#263238" stroke-width="0.985332" stroke-miterlimit="10"/>
<path d="M33.0334 132.713C33.0334 132.713 25.5797 136.245 26.0389 136.937C26.4982 137.628 27.8601 140.095 28.483 140.038C29.1059 139.981 33.6299 136.667 33.9572 136.25C34.2845 135.834 33.0334 132.713 33.0334 132.713Z" fill="#CFCFCF" stroke="#263238" stroke-width="0.985332" stroke-miterlimit="10"/>
<path d="M34.3637 137.051C34.3637 137.051 28.1716 141.146 28.3722 141.743C28.5728 142.339 31.6081 149.399 32.136 149.972C32.6639 150.545 37.5098 148.551 37.5098 148.551L34.3637 137.051Z" fill="#CFCFCF" stroke="#263238" stroke-width="0.985332" stroke-miterlimit="10"/>
<path d="M35.3033 140.857C35.3033 140.857 29.3752 145.033 29.7658 145.166" stroke="#263238" stroke-width="0.985332" stroke-miterlimit="10"/>
<path d="M36.4224 145.384L31.4392 148.002" stroke="#263238" stroke-width="0.985332" stroke-miterlimit="10"/>
<path d="M37.9426 140.266L40.6771 142.661C40.6771 142.661 37.0452 149.617 40.524 153.456" stroke="#263238" stroke-width="0.985332" stroke-miterlimit="10"/>
<path d="M145.837 143.575C145.837 143.575 152.472 142.798 155.338 147.718C158.205 152.637 176.116 196.115 176.406 200.273C176.697 204.43 164.571 205.447 160.533 203.639C156.495 201.83 145.224 180.344 144.084 177.494" fill="#00847A"/>
<path d="M147.946 173.682L146.963 176.818L147.115 176.856L148.098 173.72L147.946 173.682Z" fill="white"/>
<path d="M150.239 164.838L149.231 161.699L149.078 161.742L150.091 164.876L150.239 164.838Z" fill="white"/>
<path d="M149.746 173.993L148.751 177.136L148.904 177.175L149.898 174.032L149.746 173.993Z" fill="white"/>
<path d="M151.274 171.936L148.967 169.407L148.845 169.497L151.152 172.021L151.274 171.936Z" fill="white"/>
<path d="M156.253 175.323L152.914 176.629L152.977 176.76L156.316 175.453L156.253 175.323Z" fill="white"/>
<path d="M155.94 179.089L155.808 179.014L153.86 181.774L153.992 181.85L155.94 179.089Z" fill="white"/>
<path d="M148.08 161.997L149.088 165.136L149.241 165.094L148.228 161.959L148.08 161.997Z" fill="white"/>
<path d="M152.979 181.272L153.111 181.348L155.059 178.592L154.927 178.517L152.979 181.272Z" fill="white"/>
<path d="M152.076 171.344L149.775 168.815L149.653 168.905L151.955 171.429L152.076 171.344Z" fill="white"/>
<path d="M155.567 165.451L152.656 167.414L152.751 167.527L155.663 165.564L155.567 165.451Z" fill="white"/>
<path d="M154.837 151.548L155.887 154.678L156.035 154.635L154.99 151.51L154.837 151.548Z" fill="white"/>
<path d="M155.032 164.829L154.937 164.715L152.029 166.68L152.124 166.794L155.032 164.829Z" fill="white"/>
<path d="M153.111 147.774L154.203 146.226C154.166 146.193 154.135 146.155 154.098 146.117L152.979 147.699L153.111 147.774Z" fill="white"/>
<path d="M149.917 153.669L150.044 153.755L152.256 151.16L152.134 151.075L149.917 153.669Z" fill="white"/>
<path d="M151.902 157.926L155.254 159.199L155.318 159.071L151.965 157.798L151.902 157.926Z" fill="white"/>
<path d="M155.835 151.278L156.885 154.408L157.033 154.365L155.988 151.24L155.835 151.278Z" fill="white"/>
<path d="M155.613 172.187L157.424 169.35L157.286 169.284L155.481 172.116L155.613 172.187Z" fill="white"/>
<path d="M151.563 158.669L151.503 158.795L154.857 160.071L154.916 159.944L151.563 158.669Z" fill="white"/>
<path d="M155.827 174.486L152.489 175.792L152.552 175.922L155.891 174.616L155.827 174.486Z" fill="white"/>
<path d="M164.107 203.705L164.049 203.833L165.733 204.477H166.144L164.107 203.705Z" fill="white"/>
<path d="M164.835 193.549L163.811 191.006L163.6 190.481L163.452 190.528L163.647 191.006L164.687 193.596L164.835 193.549Z" fill="white"/>
<path d="M161.33 196.087L163.637 198.615L163.753 198.525L161.451 195.997L161.33 196.087Z" fill="white"/>
<path d="M163.853 193.866L162.708 191.007L162.618 190.798L162.476 190.841L162.539 191.007L163.711 193.914L163.853 193.866Z" fill="white"/>
<path d="M164.877 186.476L161.272 186.93L161.293 187.067L164.899 186.613L164.877 186.476Z" fill="white"/>
<path d="M175.351 200.433L176.327 199.676L176.296 199.52L175.24 200.329L175.351 200.433Z" fill="white"/>
<path d="M149.094 153.101L149.215 153.186L151.432 150.592L151.306 150.506L149.094 153.101Z" fill="white"/>
<path d="M144.938 170.272L144.789 170.32L146.026 173.393L146.175 173.344L144.938 170.272Z" fill="white"/>
<path d="M174.664 199.728L176.058 198.649C176.041 198.599 176.027 198.548 176.016 198.497L174.564 199.624L174.664 199.728Z" fill="white"/>
<path d="M164.561 197.934L162.254 195.41L162.132 195.495L164.439 198.024L164.561 197.934Z" fill="white"/>
<path d="M145.652 161.876L145.44 165.138L145.598 165.146L145.81 161.885L145.652 161.876Z" fill="white"/>
<path d="M162.19 175.557L161.145 172.433L160.992 172.471L162.043 175.6L162.19 175.557Z" fill="white"/>
<path d="M159.178 163.181L159.034 163.228L160.27 166.301L160.414 166.254L159.178 163.181Z" fill="white"/>
<path d="M158.648 157.419L158.147 159.194L158.3 159.227L158.812 157.419L159.197 156.06L159.044 156.027L158.648 157.419Z" fill="white"/>
<path d="M157.577 157.419L157.139 158.963L157.292 158.996L157.735 157.419L158.189 155.833L158.036 155.8L157.577 157.419Z" fill="white"/>
<path d="M159.994 172.74L161.045 175.865L161.193 175.827L160.147 172.698L159.994 172.74Z" fill="white"/>
<path d="M158.191 163.511L158.047 163.558L159.284 166.631L159.428 166.584L158.191 163.511Z" fill="white"/>
<path d="M145.923 169.946L145.774 169.994L147.011 173.067L147.16 173.019L145.923 169.946Z" fill="white"/>
<path d="M153.992 148.248L154.879 146.993L154.784 146.861L153.86 148.177L153.992 148.248Z" fill="white"/>
<path d="M158.147 179.62L161.499 180.894L161.557 180.766L158.205 179.492L158.147 179.62Z" fill="white"/>
<path d="M148.935 145.852L148.798 145.781L146.987 148.613L147.125 148.684L148.935 145.852Z" fill="white"/>
<path d="M173.608 191.475L173.54 191.3L172.352 193.166L172.484 193.232L173.608 191.475Z" fill="white"/>
<path d="M170.204 194.458L170.051 194.444L169.639 197.687L169.797 197.701L170.204 194.458Z" fill="white"/>
<path d="M168.21 185.497L168.15 185.624L171.503 186.899L171.563 186.773L168.21 185.497Z" fill="white"/>
<path d="M172.695 191.007L173.154 190.292L173.091 190.112L172.516 191.007L171.434 192.702L171.571 192.768L172.695 191.007Z" fill="white"/>
<path d="M170.494 199.946L170.373 199.856L168.082 202.394L168.203 202.484L170.494 199.946Z" fill="white"/>
<path d="M171.397 185.685L168.61 184.625L168.552 184.752L171.465 185.86L171.397 185.685Z" fill="white"/>
<path d="M169.681 199.359L169.56 199.269L167.274 201.806L167.395 201.896L169.681 199.359Z" fill="white"/>
<path d="M165.912 180.145L165.759 180.112L164.946 183.294L165.099 183.327L165.912 180.145Z" fill="white"/>
<path d="M168.055 192.318L168.177 192.228L167.063 191.006L165.87 189.7L165.748 189.79L166.862 191.006L168.055 192.318Z" fill="white"/>
<path d="M147.89 149.076L148.027 149.147L149.838 146.311L149.701 146.245L147.89 149.076Z" fill="white"/>
<path d="M158.19 197.097L158.046 197.144L159.283 200.216L159.427 200.17L158.19 197.097Z" fill="white"/>
<path d="M171.972 202.952L171.819 202.915L171.539 203.899L171.714 203.857L171.972 202.952Z" fill="white"/>
<path d="M159.182 196.768L159.038 196.815L160.274 199.888L160.418 199.841L159.182 196.768Z" fill="white"/>
<path d="M164.043 170.245L165.437 170.775C165.437 170.714 165.384 170.652 165.363 170.596L164.101 170.122L164.043 170.245Z" fill="white"/>
<path d="M172.98 203.17L172.827 203.137L172.701 203.577L172.88 203.52L172.98 203.17Z" fill="white"/>
<path d="M154.911 193.521L152.145 192.47L152.261 192.664L154.848 193.649L154.911 193.521Z" fill="white"/>
<path d="M145.457 150.975L147.257 152.656L147.373 152.561L145.467 150.786L145.457 150.975Z" fill="white"/>
<path d="M161.33 162.499L162.565 163.849L162.391 163.441L161.467 162.409L161.33 162.499Z" fill="white"/>
<path d="M146.507 153.305L146.618 153.205L145.404 152.069L145.393 152.263L146.507 153.305Z" fill="white"/>
<path d="M166.54 175.108L167.591 178.237L167.739 178.195L166.693 175.07L166.54 175.108Z" fill="white"/>
<path d="M155.318 192.664L151.965 191.385L151.902 191.513L155.254 192.791L155.318 192.664Z" fill="white"/>
<path d="M151.432 184.184L151.306 184.099L149.094 186.688L149.215 186.774L151.432 184.184Z" fill="white"/>
<path d="M157.033 187.958L155.988 184.828L155.835 184.871L156.885 187.996L157.033 187.958Z" fill="white"/>
<path d="M156.035 188.227L154.99 185.098L154.837 185.14L155.887 188.265L156.035 188.227Z" fill="white"/>
<path d="M152.256 184.747L152.134 184.667L149.917 187.257L150.044 187.342L152.256 184.747Z" fill="white"/>
<path d="M146.935 158.944L147.088 158.981L147.579 157.419L148.075 155.842L147.927 155.8L147.415 157.419L146.935 158.944Z" fill="white"/>
<path d="M146.333 157.419L145.932 158.693L146.085 158.731L146.496 157.419L147.072 155.587L146.924 155.549L146.333 157.419Z" fill="white"/>
<path d="M148.935 179.44L148.798 179.369L146.987 182.205L147.125 182.271L148.935 179.44Z" fill="white"/>
<path d="M149.838 179.904L149.701 179.833L147.89 182.669L148.027 182.735L149.838 179.904Z" fill="white"/>
<path d="M158.194 169.748L156.384 172.579L156.516 172.65L158.326 169.814L158.194 169.748Z" fill="white"/>
<path d="M164.745 179.904L163.932 183.085L164.085 183.119L164.898 179.937L164.745 179.904Z" fill="white"/>
<path d="M165.854 171.794L163.695 170.975L163.637 171.102L165.928 171.974C165.901 171.922 165.88 171.855 165.854 171.794Z" fill="white"/>
<path d="M164.756 185.69L164.735 185.552L161.129 186.007L161.151 186.144L164.756 185.69Z" fill="white"/>
<path d="M166.677 189.108L166.556 189.198L168.208 191.007L168.863 191.726L168.984 191.636L168.409 191.007L166.677 189.108Z" fill="white"/>
<path d="M158.812 191.007L159.197 189.653L159.044 189.62L158.648 191.007L158.147 192.782L158.3 192.816L158.812 191.007Z" fill="white"/>
<path d="M157.801 180.365L157.742 180.491L161.095 181.767L161.155 181.641L157.801 180.365Z" fill="white"/>
<path d="M157.735 191.007L158.189 189.421L158.036 189.388L157.577 191.007L157.139 192.55L157.292 192.588L157.735 191.007Z" fill="white"/>
<path d="M168.763 197.597L169.169 194.354L169.016 194.34L168.604 197.583L168.763 197.597Z" fill="white"/>
<path d="M145.837 143.575C145.837 143.575 152.472 142.798 155.338 147.718C158.205 152.637 176.116 196.115 176.406 200.273C176.697 204.43 164.571 205.447 160.533 203.639C156.495 201.83 145.224 180.344 144.084 177.494" stroke="#263238" stroke-width="0.985332"/>
<path d="M105.723 202.848C105.723 202.848 92.1615 201.295 89.8494 201.551C87.5373 201.807 77.1538 208.023 77.1538 208.023H106.567L105.723 202.848Z" fill="#CFCFCF" stroke="#263238" stroke-width="0.985332" stroke-linecap="round" stroke-linejoin="round"/>
<path d="M161.705 194.563L105.749 202.848L106.567 208.023H175.562C176.098 205.462 176.388 202.864 176.427 200.258C176.427 196.376 173.83 191.978 173.83 191.978" fill="#00847A"/>
<path d="M166.34 203.109L167.39 206.233L167.538 206.196L166.493 203.066L166.34 203.109Z" fill="white"/>
<path d="M170.172 194.264L167.881 196.802L168.002 196.892L170.293 194.354L170.172 194.264Z" fill="white"/>
<path d="M167.073 196.215L167.195 196.305L169.48 193.767L169.359 193.677L167.073 196.215Z" fill="white"/>
<path d="M159.794 200.737L160.844 203.866L160.992 203.824L159.947 200.699L159.794 200.737Z" fill="white"/>
<path d="M168.536 205.926L167.485 202.796L167.337 202.839L168.388 205.963L168.536 205.926Z" fill="white"/>
<path d="M161.99 203.558L160.945 200.429L160.792 200.471L161.842 203.596L161.99 203.558Z" fill="white"/>
<path d="M171.622 197.325L170.725 200.491L170.879 200.526L171.775 197.36L171.622 197.325Z" fill="white"/>
<path d="M170.98 208.023H171.143L171.909 205.599L171.756 205.561L170.98 208.023Z" fill="white"/>
<path d="M158.004 207.488L157.946 207.616L159.013 208.023H159.414L158.004 207.488Z" fill="white"/>
<path d="M172.616 197.532L171.719 200.698L171.873 200.733L172.77 197.567L172.616 197.532Z" fill="white"/>
<path d="M145.718 197.942L145.569 197.99L146.805 201.063L146.954 201.015L145.718 197.942Z" fill="white"/>
<path d="M163.436 199.103L166.783 200.376L166.846 200.249L163.494 198.97L163.436 199.103Z" fill="white"/>
<path d="M164.545 207.905L164.513 208.023H164.672L164.698 207.933L164.545 207.905Z" fill="white"/>
<path d="M163.901 198.124L163.842 198.25L167.195 199.526L167.254 199.4L163.901 198.124Z" fill="white"/>
<path d="M148.645 197.493L150.952 200.022L151.073 199.932L148.766 197.403L148.645 197.493Z" fill="white"/>
<path d="M151.876 199.339L149.569 196.816L149.453 196.901L151.754 199.429L151.876 199.339Z" fill="white"/>
<path d="M174.469 194.136L174.791 193.885L174.728 193.748L174.369 194.032L174.469 194.136Z" fill="white"/>
<path d="M148.543 201.737L147.549 204.88L147.701 204.919L148.696 201.776L148.543 201.737Z" fill="white"/>
<path d="M175.139 200.859L176.412 201.12C176.412 201.073 176.412 201.025 176.412 200.978L175.166 200.722L175.139 200.859Z" fill="white"/>
<path d="M155.608 207.015L154.895 208.023H155.08L155.74 207.086L155.608 207.015Z" fill="white"/>
<path d="M176.375 201.925L174.944 201.636L174.907 201.769L176.364 202.067C176.369 202.02 176.375 201.972 176.375 201.925Z" fill="white"/>
<path d="M175.15 194.842L175.187 194.813L175.129 194.671L175.05 194.738L175.15 194.842Z" fill="white"/>
<path d="M155.625 202.479L152.286 203.785L152.349 203.915L155.688 202.609L155.625 202.479Z" fill="white"/>
<path d="M154.858 206.588L154.726 206.513L153.66 208.023H153.845L154.858 206.588Z" fill="white"/>
<path d="M149.556 202.016L148.562 205.159L148.714 205.198L149.708 202.055L149.556 202.016Z" fill="white"/>
<path d="M156.052 203.323L152.713 204.629L152.777 204.759L156.115 203.453L156.052 203.323Z" fill="white"/>
<path d="M158.126 197.815L157.994 197.744L156.183 200.58L156.315 200.651L158.126 197.815Z" fill="white"/>
<path d="M155.281 200.116L155.412 200.183L157.223 197.351L157.086 197.28L155.281 200.116Z" fill="white"/>
<path d="M118.179 202.481L114.84 203.787L114.903 203.917L118.242 202.611L118.179 202.481Z" fill="white"/>
<path d="M111.287 207.436L111.149 207.37L110.732 208.023H110.912L111.287 207.436Z" fill="white"/>
<path d="M110.252 204.922L111.16 202.043L110.991 202.067L110.104 204.884L110.252 204.922Z" fill="white"/>
<path d="M112.189 207.9L112.052 207.833L111.931 208.023H112.11L112.189 207.9Z" fill="white"/>
<path d="M129.741 199.515L129.805 199.387L129.604 199.316L129.319 199.354L129.741 199.515Z" fill="white"/>
<path d="M133.532 208.023H133.695L134.456 205.599L134.308 205.561L133.532 208.023Z" fill="white"/>
<path d="M134.899 198.53L134.281 200.717L134.429 200.755L135.068 198.506L134.899 198.53Z" fill="white"/>
<path d="M117.41 206.588L117.278 206.513L116.212 208.023H116.397L117.41 206.588Z" fill="white"/>
<path d="M118.292 207.086L118.16 207.015L117.442 208.023H117.627L118.292 207.086Z" fill="white"/>
<path d="M149.5 207.833L149.379 208.023H149.558L149.637 207.9L149.5 207.833Z" fill="white"/>
<path d="M172.759 205.817L172.062 208.023H172.225L172.906 205.855L172.759 205.817Z" fill="white"/>
<path d="M144.738 198.266L144.589 198.314L145.826 201.387L145.975 201.339L144.738 198.266Z" fill="white"/>
<path d="M135.305 205.817L134.614 208.023H134.772L135.458 205.855L135.305 205.817Z" fill="white"/>
<path d="M120.556 207.488L120.493 207.616L121.565 208.023H121.96L120.556 207.488Z" fill="white"/>
<path d="M148.735 207.436L148.597 207.37L148.18 208.023H148.36L148.735 207.436Z" fill="white"/>
<path d="M111.3 201.798L110.317 204.934L110.469 204.972L111.452 201.836L111.3 201.798Z" fill="white"/>
<path d="M141.328 204.174L141.181 204.122L139.85 207.161L139.993 207.213L141.328 204.174Z" fill="white"/>
<path d="M118.594 203.335L115.256 204.641L115.319 204.771L118.658 203.466L118.594 203.335Z" fill="white"/>
<path d="M142.294 204.51L142.147 204.462L140.816 207.502L140.964 207.549L142.294 204.51Z" fill="white"/>
<path d="M137.459 201.774L139.075 202.1L141.007 202.488L141.044 202.351L139.075 201.953L137.491 201.636L137.459 201.774Z" fill="white"/>
<path d="M141.239 201.579L141.276 201.442L139.074 200.997L137.723 200.722L137.686 200.859L139.074 201.139L141.239 201.579Z" fill="white"/>
<path d="M133.426 200.523L133.949 198.672L133.78 198.696L133.273 200.49L133.426 200.523Z" fill="white"/>
<path d="M129.398 200.249L127.688 199.595L127.403 199.638L129.335 200.376L129.398 200.249Z" fill="white"/>
<path d="M124.389 203.596L124.542 203.558L123.491 200.429L123.344 200.471L124.389 203.596Z" fill="white"/>
<path d="M123.544 203.824L122.494 200.699L122.346 200.737L123.396 203.866L123.544 203.824Z" fill="white"/>
<path d="M128.892 203.109L129.942 206.233L130.09 206.196L129.039 203.066L128.892 203.109Z" fill="white"/>
<path d="M127.091 207.905L127.06 208.023H127.223L127.245 207.933L127.091 207.905Z" fill="white"/>
<path d="M131.088 205.926L130.037 202.796L129.889 202.839L130.935 205.963L131.088 205.926Z" fill="white"/>
<path d="M161.705 194.563L105.749 202.848L106.567 208.023H175.562C176.098 205.462 176.388 202.864 176.427 200.258C176.427 196.376 173.83 191.978 173.83 191.978" stroke="#263238" stroke-width="0.985332"/>
<path d="M174.01 207.185H104.456L102.176 172.868C102.113 172.534 102.133 172.191 102.234 171.865C102.334 171.538 102.512 171.235 102.756 170.976C103.001 170.718 103.305 170.51 103.647 170.367C103.99 170.225 104.363 170.151 104.741 170.15H173.714C174.092 170.15 174.466 170.223 174.809 170.366C175.152 170.508 175.457 170.716 175.701 170.975C175.945 171.233 176.124 171.537 176.224 171.864C176.324 172.191 176.343 172.534 176.28 172.868L174.01 207.185Z" fill="#263238" stroke="#263238" stroke-width="0.985332" stroke-linecap="round" stroke-linejoin="round"/>
<path d="M107.871 170.974H173.213C173.582 170.971 173.947 171.04 174.283 171.176C174.619 171.312 174.918 171.513 175.159 171.763C175.4 172.014 175.577 172.309 175.677 172.627C175.778 172.946 175.8 173.28 175.741 173.607" stroke="white" stroke-width="0.985332" stroke-linecap="round" stroke-linejoin="round"/>
<path d="M102.693 173.081C102.742 172.505 103.033 171.967 103.508 171.576C103.982 171.185 104.604 170.97 105.248 170.974" stroke="white" stroke-width="0.985332" stroke-linecap="round" stroke-linejoin="round"/>
<path d="M174.3 203.842H104.155V207.185H174.3V203.842Z" fill="white" stroke="#263238" stroke-width="0.985332" stroke-linecap="round" stroke-linejoin="round"/>
<path d="M143.952 188.805C143.952 190.282 141.725 191.48 138.98 191.48C136.235 191.48 134.012 190.282 134.012 188.805C134.012 187.328 136.24 186.13 138.98 186.13C141.719 186.13 143.952 187.328 143.952 188.805Z" fill="white" stroke="#263238" stroke-width="0.985332" stroke-linecap="round" stroke-linejoin="round"/>
<path d="M35.2715 203.738C33.7973 203.672 32.3494 203.363 31.0009 202.824C30.6575 202.676 30.3911 202.414 30.2575 202.094C30.1239 201.774 30.1333 201.42 30.2839 201.106C30.4345 200.792 30.7145 200.542 31.0655 200.409C31.4165 200.275 31.8113 200.269 32.1676 200.391C33.5295 200.911 35.2768 201.233 35.7466 201.053C36.6018 200.187 37.9268 194.955 36.2164 192.46C36.1266 192.284 35.9911 192.13 35.8212 192.01C35.6513 191.891 35.4519 191.81 35.2398 191.773C34.2685 191.655 32.8327 192.55 32.3259 192.976C32.037 193.201 31.6618 193.317 31.2794 193.3C30.897 193.282 30.5372 193.132 30.2758 192.881C30.0144 192.63 29.8719 192.297 29.8781 191.954C29.8844 191.611 30.039 191.283 30.3094 191.04C30.5786 190.812 33.028 188.838 35.6305 189.146C36.2765 189.232 36.8917 189.451 37.4289 189.784C37.9661 190.117 38.4109 190.556 38.7291 191.068C41.2471 194.742 39.5262 201.749 37.5889 203.122C36.9163 203.557 36.0994 203.774 35.2715 203.738Z" fill="#263238" stroke="#263238" stroke-width="0.985332" stroke-linecap="round" stroke-linejoin="round"/>
<path d="M32.6585 188.066H16.3733V207.455H32.6585V188.066Z" fill="#263238" stroke="#263238" stroke-width="0.985332" stroke-linecap="round" stroke-linejoin="round"/>
<path d="M17.8513 187.006C17.8513 187.006 17.8513 185.391 21.1506 183.777C24.4499 182.162 26.2499 179.743 24.4499 175.169C22.6498 170.595 22.9507 167.366 26.5614 164.672" stroke="#263238" stroke-width="0.985332" stroke-linecap="round" stroke-linejoin="round"/>
<path d="M18.6008 169.795C18.7698 167.83 19.7463 166.169 21.7681 164.672" stroke="#263238" stroke-width="0.985332" stroke-linecap="round" stroke-linejoin="round"/>
<path d="M19.6513 175.169C19.3218 174.353 19.0554 173.518 18.8542 172.669" stroke="#263238" stroke-width="0.985332" stroke-linecap="round" stroke-linejoin="round"/>
<path d="M31.2491 176.746C31.1227 176.21 30.9551 175.684 30.7476 175.169L30.4731 174.44" stroke="#263238" stroke-width="0.985332" stroke-linecap="round" stroke-linejoin="round"/>
<path d="M24.1489 187.006C24.1489 187.006 24.1489 185.391 27.4482 183.777C29.6125 182.716 31.1434 181.31 31.4126 179.179" stroke="#263238" stroke-width="0.985332" stroke-linecap="round" stroke-linejoin="round"/>
<path d="M247 207.124H1.30225V212H247V207.124Z" fill="#263238"/>
</svg>
