<svg width="20" height="20" viewBox="0 0 20 20" fill="none" xmlns="http://www.w3.org/2000/svg">
<path fill-rule="evenodd" clip-rule="evenodd" d="M4.33333 0C3.8029 0 3.29419 0.210714 2.91912 0.585786C2.54405 0.960859 2.33333 1.46957 2.33333 2V5.33333H1V6.66667H2.33333V13.3333H1V14.6667H2.33333V18C2.33333 18.5304 2.54405 19.0391 2.91912 19.4142C3.29419 19.7893 3.8029 20 4.33333 20H16.3333C16.8638 20 17.3725 19.7893 17.7475 19.4142C18.1226 19.0391 18.3333 18.5304 18.3333 18V2C18.3333 1.46957 18.1226 0.960859 17.7475 0.585786C17.3725 0.210714 16.8638 0 16.3333 0L4.33333 0ZM7.66667 6.66667C7.66667 5.95942 7.94762 5.28115 8.44771 4.78105C8.94781 4.28095 9.62609 4 10.3333 4C11.0406 4 11.7189 4.28095 12.219 4.78105C12.719 5.28115 13 5.95942 13 6.66667C13 7.37391 12.719 8.05219 12.219 8.55229C11.7189 9.05238 11.0406 9.33333 10.3333 9.33333C9.62609 9.33333 8.94781 9.05238 8.44771 8.55229C7.94762 8.05219 7.66667 7.37391 7.66667 6.66667ZM6.33333 14.6667C6.33333 13.6058 6.75476 12.5884 7.50491 11.8382C8.25505 11.0881 9.27247 10.6667 10.3333 10.6667C11.3942 10.6667 12.4116 11.0881 13.1618 11.8382C13.9119 12.5884 14.3333 13.6058 14.3333 14.6667V16H6.33333V14.6667Z" fill="#00847A"/>
</svg>
