<svg width="89" height="88" viewBox="0 0 89 88" fill="none" xmlns="http://www.w3.org/2000/svg">
<path d="M44.5 7.33301C22.8494 7.33301 5.23529 24.7492 5.23529 46.1565C5.23529 67.5638 22.8494 84.9801 44.5 84.9801C66.1506 84.9801 83.7647 67.5638 83.7647 46.1565C83.7647 24.7492 66.1506 7.33301 44.5 7.33301ZM44.5 77.2154C27.1803 77.2154 13.0882 63.2816 13.0882 46.1565C13.0882 29.0315 27.1803 15.0977 44.5 15.0977C61.8197 15.0977 75.9118 29.0315 75.9118 46.1565C75.9118 63.2816 61.8197 77.2154 44.5 77.2154Z" fill="#00847A"/>
<path d="M39.9381 50.4699L31.4126 42.0549L26.1765 47.2469L39.9455 60.8319L64.8136 36.2433L59.57 31.0586L39.9381 50.4699Z" fill="#00847A"/>
</svg>
