<svg width="20" height="20" viewBox="0 0 20 20" fill="none" xmlns="http://www.w3.org/2000/svg">
<path d="M12.7408 12.2299C12.6184 12.1899 11.8454 11.8414 12.3284 10.373H12.3215C13.5808 9.07606 14.5431 6.98914 14.5431 4.93453C14.5431 1.77529 12.4423 0.119141 10.0008 0.119141C7.55768 0.119141 5.46845 1.77453 5.46845 4.93453C5.46845 6.9976 6.42537 9.09299 7.69229 10.3868C8.18614 11.6822 7.30306 12.163 7.11845 12.2307C4.56152 13.1553 1.56152 14.8407 1.56152 16.5045V17.1284C1.56152 19.3953 5.95691 19.9107 10.0246 19.9107C14.0984 19.9107 18.4384 19.3953 18.4384 17.1284V16.5045C18.4384 14.7907 15.4238 13.1184 12.7408 12.2299Z" fill="#00847A"/>
</svg>
