<svg width="78" height="80" viewBox="0 0 78 80" fill="none" xmlns="http://www.w3.org/2000/svg">
<path d="M53.625 30C53.625 33.9782 52.0842 37.7936 49.3414 40.6066C46.5987 43.4196 42.8788 45 39 45C35.1212 45 31.4013 43.4196 28.6586 40.6066C25.9158 37.7936 24.375 33.9782 24.375 30C24.375 26.0218 25.9158 22.2064 28.6586 19.3934C31.4013 16.5804 35.1212 15 39 15C42.8788 15 46.5987 16.5804 49.3414 19.3934C52.0842 22.2064 53.625 26.0218 53.625 30Z" fill="#00847A"/>
<path fill-rule="evenodd" clip-rule="evenodd" d="M0 40C0 29.3913 4.10892 19.2172 11.4228 11.7157C18.7368 4.21427 28.6566 0 39 0C49.3434 0 59.2632 4.21427 66.5772 11.7157C73.8911 19.2172 78 29.3913 78 40C78 50.6087 73.8911 60.7828 66.5772 68.2843C59.2632 75.7857 49.3434 80 39 80C28.6566 80 18.7368 75.7857 11.4228 68.2843C4.10892 60.7828 0 50.6087 0 40ZM39 5C32.5737 5.00035 26.278 6.86181 20.8377 10.3701C15.3974 13.8785 11.0335 18.8911 8.24833 24.831C5.46315 30.7709 4.36988 37.3967 5.09437 43.9458C5.81885 50.4949 8.33163 56.701 12.3435 61.85C15.8048 56.13 23.4244 50 39 50C54.5756 50 62.1904 56.125 65.6565 61.85C69.6684 56.701 72.1812 50.4949 72.9056 43.9458C73.6301 37.3967 72.5368 30.7709 69.7517 24.831C66.9665 18.8911 62.6026 13.8785 57.1623 10.3701C51.722 6.86181 45.4263 5.00035 39 5Z" fill="#00847A"/>
</svg>
