<svg width="218" height="156" viewBox="0 0 218 156" fill="none" xmlns="http://www.w3.org/2000/svg">
<path d="M218 137.091H0V137.195H218V137.091Z" fill="#EBEBEB"/>
<path d="M41.42 140.779H23.4524V140.883H41.42V140.779Z" fill="#EBEBEB"/>
<path d="M78.0441 139.942H60.0242V140.046H78.0441V139.942Z" fill="#EBEBEB"/>
<path d="M101.492 139.942H97.1321V140.046H101.492V139.942Z" fill="#EBEBEB"/>
<path d="M57.9138 143.518H37.7488V143.622H57.9138V143.518Z" fill="#EBEBEB"/>
<path d="M127.661 140.725H118.243V140.829H127.661V140.725Z" fill="#EBEBEB"/>
<path d="M143.719 140.725H131.541V140.829H143.719V140.725Z" fill="#EBEBEB"/>
<path d="M202.448 142.496H175.224V142.6H202.448V142.496Z" fill="#EBEBEB"/>
<path d="M103.332 118.415H19.1449C18.4854 118.414 17.8532 118.162 17.3873 117.714C16.9214 117.265 16.6597 116.658 16.6597 116.024V2.36998C16.6654 1.74023 16.9296 1.13808 17.395 0.694337C17.8603 0.250589 18.4891 0.0010788 19.1449 0H103.332C103.992 0 104.626 0.2519 105.092 0.700284C105.559 1.14867 105.822 1.75681 105.822 2.39092V116.024C105.822 116.658 105.559 117.267 105.092 117.715C104.626 118.163 103.992 118.415 103.332 118.415ZM19.1449 0.0837452C18.5143 0.0848544 17.9099 0.326214 17.4644 0.754846C17.0189 1.18348 16.7687 1.76436 16.7687 2.36998V116.024C16.7687 116.63 17.0189 117.211 17.4644 117.64C17.9099 118.068 18.5143 118.31 19.1449 118.311H103.332C103.963 118.31 104.568 118.068 105.014 117.64C105.46 117.211 105.712 116.63 105.713 116.024V2.36998C105.712 1.76397 105.46 1.1831 105.014 0.75459C104.568 0.326078 103.963 0.0848521 103.332 0.0837452H19.1449Z" fill="#EBEBEB"/>
<path d="M197.643 118.415H113.451C112.792 118.414 112.159 118.162 111.692 117.714C111.226 117.266 110.963 116.658 110.962 116.024V2.36998C110.969 1.73985 111.234 1.13771 111.7 0.694075C112.166 0.250443 112.795 0.00106703 113.451 0H197.643C198.298 0.00217925 198.926 0.252176 199.39 0.695806C199.855 1.13944 200.118 1.74095 200.124 2.36998V116.024C200.124 116.657 199.863 117.264 199.398 117.712C198.933 118.16 198.302 118.413 197.643 118.415ZM113.451 0.0837452C112.82 0.0848521 112.216 0.326078 111.769 0.75459C111.323 1.1831 111.072 1.76397 111.071 2.36998V116.024C111.072 116.63 111.323 117.211 111.769 117.64C112.216 118.068 112.82 118.31 113.451 118.311H197.643C198.274 118.31 198.879 118.068 199.325 117.64C199.771 117.211 200.022 116.63 200.024 116.024V2.36998C200.022 1.76397 199.771 1.1831 199.325 0.75459C198.879 0.326078 198.274 0.0848521 197.643 0.0837452H113.451Z" fill="#EBEBEB"/>
<path d="M133.12 63.8643L178.067 63.8643V8.40001L133.12 8.40001V63.8643Z" fill="#E6E6E6"/>
<path d="M130.905 63.8643L177.753 63.8643V8.40001L130.905 8.40001V63.8643Z" fill="#F0F0F0"/>
<path d="M133.12 65.8398H178.067V63.8635L133.12 63.8635V65.8398Z" fill="#E6E6E6"/>
<path d="M127.216 65.8398H174.064V63.8635L127.216 63.8635V65.8398Z" fill="#F0F0F0"/>
<path d="M174.657 60.8869V11.377L134.009 11.377V60.8869H174.657Z" fill="#FAFAFA"/>
<path d="M161.067 60.8867L156.101 11.3809H147.512L152.478 60.8867H161.067Z" fill="white"/>
<path d="M173.218 44.1083C173.282 44.1083 173.343 44.084 173.388 44.0408C173.433 43.9976 173.458 43.939 173.458 43.878V13.3111C173.457 13.2507 173.431 13.1932 173.386 13.1509C173.342 13.1086 173.281 13.085 173.218 13.085C173.187 13.085 173.157 13.0908 173.128 13.1022C173.1 13.1135 173.074 13.1302 173.052 13.1512C173.03 13.1722 173.013 13.1971 173.001 13.2245C172.989 13.252 172.983 13.2814 172.983 13.3111V43.878C172.983 43.9383 173.008 43.9963 173.052 44.0393C173.096 44.0824 173.156 44.1072 173.218 44.1083Z" fill="#F0F0F0"/>
<path d="M150.634 60.8867L145.668 11.3809H142.319L147.281 60.8867H150.634Z" fill="white"/>
<path d="M134.406 60.8908V11.3809H134.013V60.8908H134.406Z" fill="#E6E6E6"/>
<path opacity="0.5" d="M130.177 15.2662H175.843L176.127 12.5361H130.46L130.177 15.2662Z" fill="#E0E0E0"/>
<path opacity="0.5" d="M130.177 19.7513H175.843L176.127 17.0254H130.46L130.177 19.7513Z" fill="#E0E0E0"/>
<path opacity="0.5" d="M130.177 24.2357H175.843L176.127 21.5098H130.46L130.177 24.2357Z" fill="#E0E0E0"/>
<path opacity="0.5" d="M130.177 28.7242H175.843L176.127 25.9941H130.46L130.177 28.7242Z" fill="#E0E0E0"/>
<path opacity="0.5" d="M130.177 33.2086H175.843L176.127 30.4785H130.46L130.177 33.2086Z" fill="#E0E0E0"/>
<path opacity="0.5" d="M130.177 37.694H175.843L176.127 34.9639H130.46L130.177 37.694Z" fill="#E0E0E0"/>
<path d="M95.4666 137.091H102.403V100.959H95.4666V137.091Z" fill="#E6E6E6"/>
<path d="M97.5463 137.091H95.4666V130.178H99.7263L97.5463 137.091Z" fill="#F0F0F0"/>
<path d="M181.899 137.091H188.836V100.959H181.899V137.091Z" fill="#E6E6E6"/>
<path d="M95.4665 132.849H183.713V100.963L95.4665 100.963V132.849Z" fill="#F0F0F0"/>
<path d="M181.633 137.091H183.713V130.178H179.453L181.633 137.091Z" fill="#F0F0F0"/>
<path d="M97.0798 115.962L182.1 115.962V103.203L97.0798 103.203V115.962Z" fill="#E6E6E6"/>
<path d="M109.541 107.168H168.244C170.271 107.168 172.211 105.594 173.606 102.813H104.178C105.573 105.594 107.513 107.168 109.541 107.168Z" fill="#F0F0F0"/>
<path d="M97.0798 130.784H182.1V118.026L97.0798 118.026V130.784Z" fill="#E6E6E6"/>
<path d="M109.541 121.991H168.244C170.271 121.991 172.211 120.417 173.606 117.637H104.178C105.573 120.417 107.513 121.991 109.541 121.991Z" fill="#F0F0F0"/>
<path d="M163.748 92.0733C164.83 91.06 163.687 89.6824 165.135 88.7235C166.582 87.7646 165.344 86.2739 165.392 84.9173C165.44 83.5606 167.341 83.3387 167.882 81.7601C168.108 81.0985 167.842 80.2736 167.446 79.5367C167.258 79.1693 166.98 78.8511 166.636 78.6092C166.292 78.3674 165.892 78.209 165.47 78.1477C165.049 78.0864 164.618 78.124 164.215 78.2572C163.812 78.3904 163.448 78.6154 163.155 78.9128C163.099 78.9756 163.042 79.0426 162.99 79.1138C161.913 80.4914 162.968 81.8187 161.769 82.7483C160.57 83.6778 158.421 83.8663 158.49 85.4156C158.56 86.9648 156.934 87.0905 156.066 88.2922C155.534 89.0291 155.94 90.2476 156.332 91.0767C156.608 91.6645 157.109 92.1278 157.732 92.3706C159.188 92.9191 162.013 93.7021 163.748 92.0733Z" fill="#EBEBEB"/>
<path d="M166.151 95.7332C167.973 94.9963 167.263 92.8021 169.526 92.2578C171.788 91.7134 170.999 89.3602 171.745 87.7188C172.49 86.0774 174.91 86.6762 176.362 85.0013C177.26 83.9629 177.025 81.9907 176.715 80.6298C176.607 80.153 176.338 79.7237 175.95 79.4082C175.563 79.0926 175.078 78.9083 174.57 78.8837C173.576 78.8142 172.582 79.033 171.719 79.5118C169.717 80.7052 170.341 82.8114 168.414 83.3934C166.487 83.9754 163.757 83.2217 163.068 85.1479C162.38 87.074 160.326 86.4878 158.665 87.5471C157.479 88.3092 157.522 90.4782 157.645 91.6213C157.698 92.1218 157.927 92.5899 158.294 92.9487C159.576 94.2132 162.938 97.0354 166.151 95.7332Z" fill="#E0E0E0"/>
<path d="M164.69 86.8521C165.885 85.9727 167.141 87.2708 168.357 86.0146C169.573 84.7584 170.908 86.1737 172.316 86.3203C173.724 86.4668 174.221 84.6956 175.93 84.4067C176.641 84.2895 177.452 84.6579 178.158 85.1353C178.514 85.3637 178.806 85.6723 179.008 86.0342C179.211 86.396 179.318 86.8 179.32 87.2108C179.322 87.6216 179.219 88.0266 179.02 88.3904C178.822 88.7541 178.533 89.0656 178.18 89.2974C178.11 89.3435 178.032 89.3895 177.953 89.4314C176.379 90.2688 175.163 89.0587 174.029 90.0637C172.896 91.0686 172.394 93.0827 170.807 92.7938C169.22 92.5048 168.85 94.0499 167.494 94.6864C166.657 95.1051 165.458 94.5231 164.66 94.0332C164.095 93.6857 163.691 93.143 163.531 92.5174C163.16 91.0686 162.759 88.2715 164.69 86.8521Z" fill="#EBEBEB"/>
<path d="M151.728 88.6855C151.728 88.6855 152.107 100.958 166.652 100.958C181.197 100.958 181.572 88.6855 181.572 88.6855H151.728Z" fill="#F5F5F5"/>
<path d="M74.7957 100.741H30.3542V106.005H74.7957V100.741Z" fill="#EBEBEB"/>
<path d="M53.192 88.8827C52.6779 88.7801 52.1899 88.5811 51.756 88.2971C51.322 88.0131 50.9507 87.6497 50.6631 87.2277C50.3756 86.8057 50.1776 86.3334 50.0803 85.8378C49.9831 85.3423 49.9885 84.8331 50.0964 84.3396L54.064 66.012C54.281 65.0154 54.9012 64.1423 55.7883 63.5848C56.6754 63.0273 57.7568 62.831 58.7946 63.0391C59.3107 63.1394 59.801 63.3367 60.2374 63.6196C60.6738 63.9026 61.0476 64.2656 61.3373 64.6879C61.6271 65.1101 61.827 65.5832 61.9256 66.0799C62.0242 66.5767 62.0196 67.0872 61.912 67.5822L57.9226 85.9098C57.8163 86.4038 57.6093 86.8728 57.3138 87.2898C57.0182 87.7068 56.6398 88.0637 56.2003 88.3399C55.7608 88.6161 55.2688 88.8063 54.7525 88.8994C54.2363 88.9926 53.706 88.9869 53.192 88.8827Z" fill="#F0F0F0"/>
<path d="M50.7767 88.4803C49.8805 88.6112 48.9669 88.395 48.2368 87.8791C47.5066 87.3632 47.0197 86.5899 46.8832 85.7293L44.3893 69.8931C44.2542 69.032 44.4804 68.1546 45.0183 67.4535C45.5562 66.7525 46.3618 66.2851 47.2582 66.1539C48.1548 66.0241 49.0684 66.2414 49.7984 66.758C50.5284 67.2745 51.0151 68.0482 51.1516 68.9091L53.6281 84.7453C53.7647 85.6035 53.5411 86.4788 53.0066 87.179C52.472 87.8792 51.6701 88.3472 50.7767 88.4803Z" fill="#F0F0F0"/>
<path d="M60.0023 100.741H45.1435L42.0479 83.7578H63.0979L60.0023 100.741Z" fill="#E6E6E6"/>
<path d="M64.2316 81.333H40.9187V86.1818H64.2316V81.333Z" fill="#E0E0E0"/>
<path d="M81.6934 137.09L66.1587 106.004H59.9021L79.3172 137.09H81.6934Z" fill="#E0E0E0"/>
<path d="M23.4524 137.09L38.9871 106.004H45.2437L25.8286 137.09H23.4524Z" fill="#E0E0E0"/>
<path d="M45.2437 137.09L50.6806 106.004H56.9372L47.6199 137.09H45.2437Z" fill="#E0E0E0"/>
<path d="M91.6168 13.0889H30.8689V45.6698H91.6168V13.0889Z" fill="#E6E6E6"/>
<path d="M91.0325 13.0889H30.2847V45.6698H91.0325V13.0889Z" fill="#F5F5F5"/>
<path d="M86.6768 41.4828V17.2764L34.6489 17.2764V41.4828H86.6768Z" fill="white"/>
<path d="M35.22 41.4828V17.2764H34.6488V41.4828H35.22Z" fill="#E6E6E6"/>
<path d="M55.5254 20.6136L38.2515 21.6748L38.8198 30.2077L56.0937 29.1466L55.5254 20.6136Z" fill="#F5F5F5"/>
<path d="M56.0299 29.9362L38.7207 30.9336L39.2549 39.4839L56.5641 38.4865L56.0299 29.9362Z" fill="#F5F5F5"/>
<path d="M67.5302 21.0683L56.1477 21.7676L56.9529 33.8566L68.3354 33.1573L67.5302 21.0683Z" fill="#F5F5F5"/>
<path d="M79.5871 22.3047L68.2046 23.0039L68.6811 30.1579L80.0636 29.4586L79.5871 22.3047Z" fill="#F5F5F5"/>
<path d="M84.2243 34.379L83.897 29.4648L68.6942 30.3988L69.0215 35.3129L84.2243 34.379Z" fill="#F5F5F5"/>
<path d="M109 156C155.688 156 193.536 153.878 193.536 151.26C193.536 148.643 155.688 146.521 109 146.521C62.3119 146.521 24.4639 148.643 24.4639 151.26C24.4639 153.878 62.3119 156 109 156Z" fill="#F5F5F5"/>
<path d="M168.174 73.5827H167.738C165.955 70.6934 163.423 68.2962 160.391 66.6238C157.358 64.9515 153.926 64.0609 150.429 64.0385C146.931 64.0162 143.487 64.8629 140.432 66.4963C137.376 68.1298 134.812 70.4945 132.989 73.3608C131.864 72.5519 130.527 72.0598 129.127 71.9398C127.727 71.8197 126.321 72.0765 125.064 72.6812C123.808 73.286 122.752 74.2148 122.015 75.3636C121.277 76.5124 120.888 77.8357 120.89 79.1853C120.89 79.4156 120.89 79.6459 120.924 79.872C117.73 79.9564 114.701 81.256 112.505 83.485C110.308 85.7139 109.123 88.6896 109.211 91.7575C109.299 94.8253 110.652 97.7339 112.973 99.8435C115.294 101.953 118.393 103.091 121.587 103.006H168.174C170.207 103.039 172.226 102.683 174.114 101.959C176.002 101.235 177.721 100.157 179.171 98.7876C180.621 97.4186 181.772 95.7861 182.558 93.9853C183.344 92.1845 183.749 90.2514 183.749 88.2988C183.749 86.3462 183.344 84.4131 182.558 82.6123C181.772 80.8115 180.621 79.179 179.171 77.81C177.721 76.441 176.002 75.3629 174.114 74.6386C172.226 73.9142 170.207 73.5582 168.174 73.5911V73.5827Z" fill="#00847A"/>
<path opacity="0.5" d="M168.174 73.5827H167.738C165.955 70.6934 163.423 68.2962 160.391 66.6238C157.358 64.9515 153.926 64.0609 150.429 64.0385C146.931 64.0162 143.487 64.8629 140.432 66.4963C137.376 68.1298 134.812 70.4945 132.989 73.3608C131.864 72.5519 130.527 72.0598 129.127 71.9398C127.727 71.8197 126.321 72.0765 125.064 72.6812C123.808 73.286 122.752 74.2148 122.015 75.3636C121.277 76.5124 120.888 77.8357 120.89 79.1853C120.89 79.4156 120.89 79.6459 120.924 79.872C117.73 79.9564 114.701 81.256 112.505 83.485C110.308 85.7139 109.123 88.6896 109.211 91.7575C109.299 94.8253 110.652 97.7339 112.973 99.8435C115.294 101.953 118.393 103.091 121.587 103.006H168.174C170.207 103.039 172.226 102.683 174.114 101.959C176.002 101.235 177.721 100.157 179.171 98.7876C180.621 97.4186 181.772 95.7861 182.558 93.9853C183.344 92.1845 183.749 90.2514 183.749 88.2988C183.749 86.3462 183.344 84.4131 182.558 82.6123C181.772 80.8115 180.621 79.179 179.171 77.81C177.721 76.441 176.002 75.3629 174.114 74.6386C172.226 73.9142 170.207 73.5582 168.174 73.5911V73.5827Z" fill="black"/>
<path d="M133.216 145.586L129.911 144.715L131.14 137.128L134.445 138.003L133.216 145.586Z" fill="#7F3E3B"/>
<path d="M157.61 147.696H154.183L153.328 140.071H156.755L157.61 147.696Z" fill="#7F3E3B"/>
<path d="M153.908 147.315H158.089C158.157 147.316 158.224 147.338 158.277 147.379C158.33 147.42 158.367 147.478 158.381 147.542L159.057 150.473C159.073 150.544 159.072 150.618 159.054 150.688C159.036 150.759 159.001 150.825 158.953 150.881C158.905 150.938 158.844 150.983 158.776 151.014C158.707 151.044 158.632 151.06 158.556 151.059C157.209 151.038 156.228 150.958 154.536 150.958C153.494 150.958 150.35 151.063 148.912 151.063C147.473 151.063 147.285 149.698 147.874 149.572C150.516 149.02 152.504 148.253 153.35 147.525C153.502 147.391 153.701 147.316 153.908 147.315Z" fill="#263238"/>
<path d="M130.041 144.35L133.652 145.305C133.717 145.324 133.773 145.363 133.813 145.416C133.852 145.469 133.872 145.533 133.87 145.598L133.713 148.592C133.709 148.664 133.688 148.735 133.652 148.798C133.616 148.862 133.566 148.917 133.505 148.959C133.443 149.001 133.373 149.03 133.299 149.042C133.225 149.055 133.149 149.051 133.076 149.032C131.768 148.663 129.919 148.094 128.28 147.663C126.366 147.156 124.687 146.825 122.442 146.222C121.086 145.862 121.086 144.447 121.688 144.476C124.43 144.618 126.558 145.121 129.174 144.388C129.454 144.298 129.754 144.285 130.041 144.35Z" fill="#263238"/>
<path d="M143.54 47.8267C142.271 49.9412 140.924 51.9511 139.533 53.9526C138.142 55.9541 136.625 57.9012 134.981 59.8148C134.545 60.2837 134.14 60.7611 133.673 61.2217L133.333 61.5734L133.154 61.7576C133.012 61.901 132.856 62.0314 132.688 62.147C132.162 62.5159 131.555 62.7637 130.913 62.8714C130.065 62.9995 129.2 62.991 128.354 62.8463C127.658 62.7402 126.972 62.5848 126.3 62.3815C123.828 61.6197 121.463 60.5677 119.259 59.2495L120.336 56.9884C122.603 57.6288 124.906 58.1446 127.233 58.5334C127.76 58.6072 128.289 58.6548 128.821 58.6758C129.199 58.7046 129.58 58.6677 129.945 58.5669C130.033 58.5376 130.006 58.5 129.849 58.5921C129.805 58.6185 129.765 58.6494 129.727 58.6842L129.854 58.5376L130.12 58.2194C130.486 57.8007 130.83 57.3401 131.184 56.9046C132.579 55.0832 133.917 53.1361 135.221 51.2016C136.525 49.2671 137.837 47.2572 139.071 45.3018L143.54 47.8267Z" fill="#7F3E3B"/>
<path d="M144.804 45.4108C146.06 48.3167 139.49 56.7833 139.49 56.7833L132.832 52.8725C132.832 52.8725 134.829 48.7103 137.017 45.2224C138.517 42.8314 143.387 42.128 144.804 45.4108Z" fill="#00847A"/>
<path opacity="0.2" d="M140.427 46.0928L143.252 51.084C142.131 53.0602 140.874 54.9627 139.49 56.7786L135.919 54.685C136.647 52.2983 138.256 47.7802 140.427 46.0928Z" fill="black"/>
<path d="M119.852 56.8456L117.053 55.9453L118.531 60.0949C119.048 60.1325 119.567 60.065 120.054 59.8969C120.542 59.7288 120.987 59.4638 121.361 59.1192L121.186 58.0348C121.138 57.7205 120.979 57.4314 120.736 57.2153C120.494 56.9992 120.182 56.8688 119.852 56.8456Z" fill="#7F3E3B"/>
<path d="M115.37 56.7828L114.616 59.1988L118.531 60.0949L117.053 55.9453L115.37 56.7828Z" fill="#7F3E3B"/>
<path opacity="0.2" d="M131.14 137.132L130.508 141.039L133.813 141.914L134.449 138.007L131.14 137.132Z" fill="black"/>
<path opacity="0.2" d="M156.755 140.075H153.328L153.768 144.007H157.2L156.755 140.075Z" fill="black"/>
<path d="M158.778 44.51C157.773 48.0639 157.044 51.6847 156.598 55.3424C156.271 57.8924 156.079 60.3252 155.957 62.5361C155.674 67.7115 155.792 71.6559 155.63 73.0042C152.949 72.8283 142.847 72.1667 137.34 71.7815C135.103 54.9739 138.705 45.4814 139.468 43.706C139.509 43.6126 139.573 43.5304 139.655 43.4668C139.737 43.4032 139.835 43.3602 139.939 43.3417C141.276 43.117 142.625 42.9632 143.98 42.8812C144.294 42.8812 144.608 42.8518 144.926 42.8477C147.527 42.8768 150.125 43.0502 152.705 43.3669C153.193 43.4213 153.69 43.4925 154.17 43.5679C156.624 43.9363 158.778 44.51 158.778 44.51Z" fill="#00847A"/>
<path opacity="0.2" d="M154.161 49.25C154.131 51.9445 154.917 54.5894 156.424 56.8624C156.476 56.3599 156.537 55.8533 156.603 55.3424C156.847 53.4247 157.161 51.4399 157.579 49.4342L154.161 49.25Z" fill="black"/>
<path d="M152.548 34.8916C151.885 37.2658 151.074 41.6331 152.709 43.354C151.883 44.0741 150.905 44.6153 149.842 44.9411C148.779 45.2669 147.656 45.3697 146.548 45.2425C144.399 45.054 144.394 43.6011 144.931 42.8348C147.769 42.3826 147.843 40.3895 147.49 38.4884L152.548 34.8916Z" fill="#7F3E3B"/>
<path opacity="0.2" d="M150.485 36.3613L147.494 38.4843C147.58 38.9278 147.629 39.3773 147.638 39.8284C148.715 39.753 150.254 38.7271 150.45 37.6636C150.545 37.2352 150.557 36.7938 150.485 36.3613Z" fill="black"/>
<path d="M153.11 31.2996C152.674 34.5364 152.578 36.4541 150.743 37.9992C147.987 40.3399 143.915 38.5687 143.331 35.265C142.816 32.292 143.631 27.4934 147.041 26.4215C147.794 26.1793 148.598 26.1264 149.379 26.268C150.159 26.4095 150.888 26.7408 151.496 27.2301C152.105 27.7194 152.573 28.3504 152.856 29.0628C153.138 29.7753 153.226 30.5454 153.11 31.2996Z" fill="#7F3E3B"/>
<path d="M152.439 34.1511C151.1 33.1252 150.551 26.3 153.83 26.614C156.629 26.8443 159.698 30.3616 152.439 34.1511Z" fill="#263238"/>
<path d="M153.036 28.427C148.798 29.5199 139.786 26.6474 142.232 24.1937C145.502 20.9109 151.436 25.9147 153.036 28.427Z" fill="#263238"/>
<path d="M154.841 29.2854C151.414 28.8038 144.307 22.435 147.996 22.1C152.648 21.6771 154.501 26.9824 154.841 29.2854Z" fill="#263238"/>
<path d="M154.209 27.3755H154.174C154.146 27.3714 154.118 27.362 154.094 27.3478C154.069 27.3335 154.048 27.3148 154.031 27.2926C154.014 27.2705 154.002 27.2453 153.995 27.2186C153.988 27.1918 153.987 27.164 153.991 27.1368C154.109 26.1332 154.019 25.117 153.725 24.1471C153.709 24.0916 153.716 24.0322 153.746 23.9819C153.775 23.9317 153.824 23.8947 153.882 23.8791C153.94 23.8636 154.002 23.8707 154.054 23.899C154.106 23.9273 154.145 23.9744 154.161 24.0299C154.473 25.0595 154.568 26.1386 154.44 27.2038C154.43 27.2548 154.402 27.3006 154.359 27.3323C154.316 27.364 154.263 27.3794 154.209 27.3755Z" fill="#263238"/>
<path d="M154.379 34.9886C153.873 35.6511 153.114 36.0938 152.269 36.2196C151.148 36.3788 150.73 35.3822 151.157 34.4359C151.545 33.5984 152.596 32.4762 153.664 32.761C154.732 33.0457 154.989 34.1679 154.379 34.9886Z" fill="#7F3E3B"/>
<path d="M129.492 139.98L135.09 141.458C135.09 141.458 139.093 120.827 140.096 110.615C140.401 107.508 141.255 103.178 142.332 98.547C143.688 92.7141 145.384 86.404 146.788 81.463C148.257 76.2583 149.378 72.5777 149.378 72.5777L137.34 71.7695C137.34 71.7695 130.05 99.0746 129.697 109.12C129.326 119.563 129.492 139.98 129.492 139.98Z" fill="#00847A"/>
<path opacity="0.7" d="M129.492 139.98L135.09 141.458C135.09 141.458 139.093 120.827 140.096 110.615C140.401 107.508 141.255 103.178 142.332 98.547C143.688 92.7141 145.384 86.404 146.788 81.463C148.257 76.2583 149.378 72.5777 149.378 72.5777L137.34 71.7695C137.34 71.7695 130.05 99.0746 129.697 109.12C129.326 119.563 129.492 139.98 129.492 139.98Z" fill="#FAFAFA"/>
<path opacity="0.2" d="M142.319 98.5464C143.675 92.7136 145.371 86.4034 146.775 81.4624L145.528 78.8789C142.542 82.2831 141.739 92.8224 142.319 98.5464Z" fill="black"/>
<path d="M143.828 72.2051C143.828 72.2051 145.136 100.394 146.574 109.941C148.157 120.409 152.186 143.246 152.186 143.246H158.464C158.464 143.246 156.672 121.472 155.469 111.243C154.095 99.5813 155.635 72.9965 155.635 72.9965L143.828 72.2051Z" fill="#00847A"/>
<path opacity="0.7" d="M143.828 72.2051C143.828 72.2051 145.136 100.394 146.574 109.941C148.157 120.409 152.186 143.246 152.186 143.246H158.464C158.464 143.246 156.672 121.472 155.469 111.243C154.095 99.5813 155.635 72.9965 155.635 72.9965L143.828 72.2051Z" fill="#FAFAFA"/>
<path d="M151.432 143.375H158.826V141.252L150.56 141.114L151.432 143.375Z" fill="#00847A"/>
<path d="M128.742 139.917L135.409 141.684L136.006 139.615L128.581 137.534L128.742 139.917Z" fill="#00847A"/>
<path d="M147.904 31.8644C147.904 32.1281 147.726 32.3333 147.542 32.3208C147.359 32.3082 147.233 32.0821 147.25 31.8183C147.268 31.5545 147.433 31.3493 147.612 31.3619C147.791 31.3744 147.922 31.5964 147.904 31.8644Z" fill="#263238"/>
<path d="M144.787 31.6554C144.765 31.9192 144.604 32.1243 144.425 32.1118C144.246 32.0992 144.115 31.8731 144.133 31.6093C144.15 31.3455 144.316 31.1403 144.495 31.1529C144.674 31.1655 144.804 31.4041 144.787 31.6554Z" fill="#263238"/>
<path d="M145.768 31.8525C145.381 32.6405 144.882 33.3732 144.285 34.0299C144.465 34.1727 144.676 34.2759 144.902 34.3323C145.128 34.3888 145.364 34.397 145.593 34.3565L145.768 31.8525Z" fill="#630F0F"/>
<path d="M148.942 30.9607C148.912 30.9627 148.883 30.9572 148.856 30.9447C148.829 30.9322 148.806 30.9132 148.789 30.8895C148.682 30.7233 148.536 30.5833 148.363 30.4809C148.19 30.3784 147.994 30.3161 147.791 30.2991C147.748 30.2991 147.707 30.2828 147.677 30.2537C147.647 30.2247 147.63 30.1853 147.63 30.1442C147.63 30.1031 147.647 30.0637 147.677 30.0346C147.707 30.0056 147.748 29.9893 147.791 29.9893C148.048 30.0045 148.297 30.0785 148.518 30.2053C148.738 30.3321 148.924 30.5078 149.06 30.7178C149.072 30.7348 149.081 30.754 149.085 30.7742C149.09 30.7944 149.09 30.8152 149.086 30.8355C149.082 30.8558 149.073 30.8751 149.061 30.8923C149.049 30.9095 149.034 30.9242 149.016 30.9356C148.993 30.9476 148.968 30.9561 148.942 30.9607Z" fill="#263238"/>
<path d="M146.792 35.6496C147.192 35.6424 147.585 35.5428 147.936 35.3591C148.288 35.1754 148.588 34.9131 148.811 34.5944C148.817 34.5852 148.821 34.5748 148.823 34.564C148.825 34.5532 148.824 34.5421 148.822 34.5315C148.819 34.5209 148.814 34.5109 148.807 34.5023C148.8 34.4937 148.791 34.4865 148.781 34.4814C148.771 34.4754 148.76 34.4715 148.749 34.4697C148.738 34.468 148.726 34.4685 148.715 34.4713C148.704 34.4741 148.694 34.479 148.685 34.4857C148.676 34.4925 148.668 34.501 148.663 34.5107C148.45 34.8016 148.169 35.0409 147.843 35.2095C147.517 35.3781 147.154 35.4715 146.784 35.4821C146.772 35.482 146.761 35.4843 146.75 35.4889C146.739 35.4934 146.73 35.5 146.722 35.5083C146.714 35.5166 146.708 35.5264 146.705 35.537C146.701 35.5477 146.7 35.5589 146.701 35.57C146.701 35.5812 146.703 35.5923 146.708 35.6025C146.713 35.6128 146.72 35.622 146.728 35.6295C146.737 35.637 146.747 35.6427 146.758 35.6461C146.769 35.6496 146.781 35.6508 146.792 35.6496Z" fill="#263238"/>
<path d="M143.527 30.5332C143.497 30.536 143.467 30.5309 143.44 30.5184C143.413 30.506 143.389 30.4867 143.373 30.4626C143.356 30.4385 143.347 30.4105 143.346 30.3816C143.344 30.3528 143.351 30.3241 143.366 30.2987C143.489 30.0812 143.665 29.8953 143.879 29.7568C144.093 29.6184 144.339 29.5314 144.595 29.5032C144.616 29.502 144.638 29.5049 144.658 29.5117C144.678 29.5185 144.696 29.5289 144.712 29.5426C144.728 29.5562 144.74 29.5726 144.75 29.591C144.759 29.6094 144.764 29.6294 144.765 29.6497C144.766 29.6905 144.751 29.7303 144.723 29.7607C144.694 29.7911 144.655 29.8098 144.613 29.813C144.411 29.8409 144.219 29.9138 144.051 30.0257C143.884 30.1377 143.746 30.2857 143.649 30.4579C143.636 30.4785 143.618 30.496 143.597 30.5091C143.576 30.5221 143.552 30.5304 143.527 30.5332Z" fill="#263238"/>
<path d="M152.766 147.894C152.531 147.911 152.298 147.852 152.103 147.726C152.041 147.675 151.994 147.61 151.965 147.537C151.936 147.464 151.926 147.385 151.937 147.307C151.936 147.262 151.949 147.217 151.973 147.179C151.998 147.14 152.034 147.109 152.077 147.09C152.456 146.901 153.564 147.554 153.686 147.63C153.7 147.637 153.711 147.648 153.718 147.661C153.725 147.675 153.728 147.69 153.725 147.705C153.722 147.721 153.715 147.735 153.704 147.747C153.693 147.758 153.679 147.767 153.664 147.772C153.37 147.844 153.069 147.885 152.766 147.894ZM152.256 147.211C152.219 147.208 152.183 147.215 152.151 147.232C152.129 147.232 152.103 147.261 152.099 147.324C152.092 147.376 152.098 147.428 152.117 147.477C152.136 147.526 152.167 147.57 152.208 147.605C152.592 147.772 153.028 147.793 153.428 147.663C153.071 147.442 152.673 147.288 152.256 147.211Z" fill="#00847A"/>
<path d="M153.642 147.776H153.603C153.25 147.592 152.565 146.868 152.635 146.52C152.647 146.462 152.68 146.41 152.727 146.373C152.775 146.335 152.835 146.315 152.896 146.315C152.958 146.307 153.021 146.312 153.08 146.33C153.139 146.347 153.194 146.376 153.241 146.416C153.638 146.725 153.72 147.672 153.725 147.718C153.725 147.732 153.722 147.746 153.715 147.758C153.708 147.771 153.698 147.781 153.686 147.789C153.67 147.789 153.655 147.785 153.642 147.776ZM152.953 146.441H152.914C152.809 146.441 152.801 146.499 152.796 146.52C152.753 146.734 153.189 147.282 153.542 147.538C153.519 147.163 153.377 146.803 153.136 146.508C153.086 146.465 153.021 146.441 152.953 146.441Z" fill="#00847A"/>
<path d="M129.592 144.703C129.03 144.665 128.044 144.54 127.774 144.133C127.729 144.073 127.701 144.003 127.694 143.93C127.686 143.856 127.699 143.782 127.731 143.715C127.743 143.673 127.768 143.636 127.801 143.606C127.834 143.577 127.874 143.557 127.918 143.547C128.376 143.447 129.522 144.439 129.662 144.552C129.67 144.565 129.675 144.581 129.675 144.596C129.675 144.612 129.67 144.627 129.662 144.64C129.66 144.657 129.652 144.672 129.639 144.684C129.626 144.695 129.61 144.702 129.592 144.703ZM127.966 143.715H127.944C127.926 143.718 127.909 143.726 127.895 143.739C127.882 143.752 127.873 143.768 127.87 143.786C127.85 143.828 127.842 143.875 127.847 143.921C127.851 143.967 127.868 144.012 127.896 144.05C128.049 144.276 128.585 144.468 129.348 144.527C128.886 144.146 128.232 143.685 127.966 143.715Z" fill="#00847A"/>
<path d="M129.592 144.703C129.583 144.707 129.572 144.709 129.562 144.709C129.551 144.709 129.541 144.707 129.531 144.703C129.183 144.427 128.59 143.531 128.751 143.187C128.79 143.108 128.886 143.02 129.104 143.053C129.184 143.066 129.261 143.095 129.329 143.137C129.397 143.18 129.456 143.235 129.501 143.3C129.828 143.74 129.671 144.619 129.662 144.657C129.661 144.671 129.655 144.684 129.646 144.694C129.636 144.705 129.624 144.712 129.61 144.716L129.592 144.703ZM128.982 143.187C128.965 143.187 128.948 143.192 128.933 143.201C128.918 143.21 128.907 143.222 128.899 143.237C128.803 143.443 129.183 144.121 129.523 144.464C129.591 144.094 129.538 143.712 129.37 143.371C129.337 143.324 129.294 143.283 129.243 143.252C129.193 143.221 129.137 143.201 129.078 143.191C129.045 143.192 129.013 143.196 128.982 143.204V143.187Z" fill="#00847A"/>
<path d="M159.297 46.29C160.883 48.2046 162.366 50.1962 163.74 52.2569C165.15 54.3391 166.405 56.515 167.494 58.768C167.771 59.3479 167.907 59.9809 167.891 60.6188C167.882 61.0935 167.808 61.565 167.673 62.0215C167.452 62.7496 167.148 63.4518 166.766 64.1151C166.098 65.2508 165.325 66.3257 164.455 67.3268C162.815 69.2316 160.997 70.9879 159.022 72.5734L157.174 70.8524C157.88 69.927 158.621 68.9765 159.301 68.0218C159.982 67.0671 160.662 66.1083 161.272 65.1452C161.875 64.2307 162.404 63.2733 162.855 62.2811C163.041 61.8791 163.177 61.4575 163.26 61.025C163.279 60.9042 163.279 60.7814 163.26 60.6607C163.26 60.5979 163.221 60.6607 163.26 60.7779C162.698 59.8106 162.074 58.8434 161.442 57.8803C160.81 56.9173 160.134 55.9668 159.432 55.0121C158.05 53.1236 156.607 51.21 155.186 49.3886L159.297 46.29Z" fill="#7F3E3B"/>
<path d="M158.674 44.4931C161.808 45.4143 164.926 52.6582 164.926 52.6582L159.358 58.1686C159.358 58.1686 156.036 54.0191 154.126 50.3929C152.025 46.4401 154.876 43.3793 158.674 44.4931Z" fill="#00847A"/>
<path d="M158.373 70.4042L154.885 70.3037L156.59 74.1769C156.59 74.1769 159.572 73.6284 159.45 72.0833L158.373 70.4042Z" fill="#7F3E3B"/>
<path d="M152.574 71.9158L154.144 75.0562L156.598 74.1769L154.893 70.3037L152.574 71.9158Z" fill="#7F3E3B"/>
<path d="M69.9212 66.8285L69.7119 66.46C70.6144 65.9827 71.5518 65.543 72.498 65.1494L72.6724 65.5346C71.7393 65.9241 70.8106 66.3595 69.9212 66.8285Z" fill="#00847A"/>
<path d="M62.4656 72.2257L62.156 71.9326C63.7376 70.3976 65.4791 69.0225 67.3531 67.8291L67.5929 68.1808C65.745 69.3581 64.0269 70.7134 62.4656 72.2257Z" fill="#00847A"/>
<path d="M57.9879 78.6575C58.2059 78.6575 58.4239 78.6575 58.6463 78.6575C61.3796 74.23 65.2586 70.5567 69.9066 67.9941C74.5546 65.4316 79.8137 64.067 85.173 64.0329C90.5323 63.9987 95.8098 65.2962 100.493 67.7993C105.176 70.3024 109.105 73.9261 111.899 78.3183C113.623 77.0786 115.672 76.3243 117.817 76.1402C119.962 75.956 122.117 76.3491 124.043 77.2756C125.968 78.202 127.586 79.6251 128.717 81.3853C129.847 83.1455 130.445 85.1733 130.442 87.2413C130.442 87.5972 130.421 87.9448 130.386 88.2923C135.177 88.5569 139.673 90.6035 142.92 93.998C146.168 97.3924 147.91 101.868 147.779 106.476C147.648 111.083 145.654 115.461 142.219 118.68C138.784 121.9 134.178 123.707 129.379 123.721H57.9879C51.7633 123.721 45.7937 121.346 41.3922 117.119C36.9908 112.892 34.5181 107.159 34.5181 101.181C34.5181 95.2027 36.9908 89.4696 41.3922 85.2425C45.7937 81.0155 51.7633 78.6407 57.9879 78.6407V78.6575Z" fill="#00847A"/>
<path opacity="0.2" d="M119.765 61.5938L127.177 102.39C127.292 103.031 127.138 103.69 126.748 104.222C126.358 104.755 125.764 105.117 125.097 105.229L98.5011 109.684C98.1704 109.74 97.8314 109.733 97.5037 109.663C97.1759 109.592 96.8658 109.461 96.5911 109.275C96.3165 109.09 96.0827 108.854 95.9032 108.581C95.7237 108.309 95.602 108.005 95.5451 107.687L88.1331 66.8906L119.765 61.5938Z" fill="black"/>
<path d="M131.423 97.2943L121.518 59.919L111.651 56.8623L89.0225 62.3895C88.7831 62.4476 88.558 62.5506 88.36 62.6923C88.162 62.8341 87.9951 63.012 87.8688 63.2158C87.7425 63.4195 87.6592 63.6452 87.6237 63.8799C87.5883 64.1146 87.6013 64.3537 87.6622 64.5836L98.4662 105.346C98.5896 105.81 98.8993 106.208 99.3275 106.453C99.7557 106.698 100.268 106.77 100.751 106.653L130.063 99.4843C130.546 99.3667 130.96 99.0701 131.215 98.6595C131.47 98.249 131.545 97.758 131.423 97.2943Z" fill="white"/>
<path d="M100.28 107.135C99.7646 107.135 99.264 106.97 98.8568 106.667C98.4495 106.364 98.1587 105.939 98.0302 105.46L87.2348 64.6928C87.1596 64.409 87.1433 64.1138 87.187 63.8241C87.2307 63.5343 87.3334 63.2556 87.4893 63.004C87.6452 62.7524 87.8512 62.5328 88.0956 62.3577C88.3399 62.1826 88.6178 62.0555 88.9134 61.9836L111.542 56.4523C111.622 56.43 111.706 56.43 111.786 56.4523L121.653 59.509C121.724 59.5308 121.789 59.57 121.84 59.6228C121.891 59.6757 121.927 59.7403 121.945 59.8105L131.851 97.1816C132 97.7546 131.908 98.361 131.593 98.8686C131.279 99.3762 130.768 99.7437 130.172 99.8908L100.86 107.055C100.671 107.105 100.476 107.131 100.28 107.135ZM111.616 57.3065L89.127 62.8085C88.7587 62.8993 88.4428 63.1265 88.2484 63.4404C88.0539 63.7542 87.9968 64.1292 88.0894 64.4834L98.8934 105.246C98.9398 105.421 99.0219 105.585 99.1349 105.729C99.2479 105.872 99.3897 105.993 99.5518 106.084C99.714 106.177 99.8939 106.238 100.081 106.264C100.268 106.29 100.459 106.28 100.642 106.234L129.954 99.0659C130.136 99.0214 130.307 98.9425 130.456 98.834C130.606 98.7254 130.732 98.5893 130.826 98.4336C130.923 98.2778 130.987 98.1051 131.014 97.9253C131.041 97.7456 131.03 97.5626 130.983 97.3868L121.138 60.2376L111.616 57.3065Z" fill="#00847A"/>
<path d="M121.518 59.919L111.651 56.8623L116.573 61.82C116.91 62.1602 117.372 62.361 117.86 62.3798C118.349 62.3985 118.825 62.2338 119.189 61.9205L121.518 59.919Z" fill="#E0E0E0"/>
<path d="M117.933 62.8083C117.619 62.8079 117.308 62.7461 117.02 62.6266C116.731 62.5071 116.471 62.3324 116.255 62.1132L111.332 57.1513C111.267 57.0847 111.225 56.9992 111.215 56.9079C111.205 56.8166 111.226 56.7246 111.276 56.646C111.325 56.5675 111.4 56.5068 111.489 56.4733C111.578 56.4397 111.676 56.4352 111.768 56.4604L121.635 59.5171C121.71 59.5398 121.777 59.5812 121.829 59.6372C121.881 59.6932 121.916 59.7617 121.932 59.8354C121.951 59.9107 121.948 59.9898 121.924 60.0637C121.899 60.1377 121.853 60.2036 121.792 60.2541L119.464 62.2347C119.045 62.6001 118.5 62.8044 117.933 62.8083ZM113.164 57.7836L116.891 61.5521C117.148 61.8138 117.502 61.9683 117.876 61.9824C118.25 61.9965 118.615 61.8691 118.893 61.6275L120.637 60.1159L113.164 57.7836Z" fill="#00847A"/>
<path d="M110.417 89.1215L115.078 84.7584L115.592 86.7012C116.943 86.1553 118.027 85.1367 118.625 83.8518C119.223 82.5669 119.291 81.1117 118.814 79.7809C118.336 78.4502 117.35 77.3434 116.055 76.6846C114.76 76.0259 113.253 75.8645 111.838 76.2331L111.302 74.2065C113.267 73.7243 115.349 73.9813 117.123 74.9249C118.898 75.8684 120.229 77.4272 120.846 79.2825C121.463 81.1378 121.319 83.1494 120.443 84.9059C119.567 86.6624 118.025 88.0311 116.133 88.732L116.682 90.8005L110.417 89.1215Z" fill="#00847A"/>
<path d="M109.436 75.6469L104.779 80.0142L104.265 78.0713C102.914 78.6172 101.83 79.6358 101.232 80.9207C100.634 82.2056 100.566 83.6608 101.044 84.9916C101.521 86.3223 102.507 87.4291 103.802 88.0879C105.097 88.7466 106.605 88.908 108.019 88.5394L108.555 90.5618C106.593 91.0381 104.515 90.778 102.746 89.8344C100.976 88.8908 99.6482 87.3348 99.0317 85.4834C98.4152 83.632 98.557 81.6246 99.428 79.87C100.299 78.1155 101.834 76.746 103.72 76.0405L103.175 73.9678L109.436 75.6469Z" fill="#00847A"/>
<circle cx="107" cy="80" r="28.5" fill="white" stroke="#00847A" stroke-width="5"/>
<path fill-rule="evenodd" clip-rule="evenodd" d="M87.0715 84.7215V80.031L107 91.7572L114.971 87.0667V91.7572L107 96.4477L87.0715 84.7215ZM99.0281 77.6857L107 72.9952L126.929 84.7215V89.412L114.971 82.3762L107 87.0667L99.0281 82.3762L87.0715 75.3405V70.65L99.0281 77.6857ZM103.014 80.031L107 82.3762L110.985 80.031L107 77.6857L103.014 80.031ZM126.929 75.3405V80.031L107 68.3047L99.0281 72.9952V68.3047L107 63.6143L126.929 75.3405Z" fill="#00847A"/>
</svg>
