<svg width="15" height="16" viewBox="0 0 15 16" fill="none" xmlns="http://www.w3.org/2000/svg">
<path d="M12.3333 7.375H2.41667C1.63426 7.375 1 8.00926 1 8.79167V13.75C1 14.5324 1.63426 15.1667 2.41667 15.1667H12.3333C13.1157 15.1667 13.75 14.5324 13.75 13.75V8.79167C13.75 8.00926 13.1157 7.375 12.3333 7.375Z" stroke="#00847A" stroke-width="1.41667" stroke-linecap="round" stroke-linejoin="round"/>
<path d="M3.83325 7.375V4.54167C3.83325 3.60236 4.20639 2.70152 4.87058 2.03733C5.53477 1.37314 6.43561 1 7.37492 1C8.31423 1 9.21506 1.37314 9.87925 2.03733C10.5434 2.70152 10.9166 3.60236 10.9166 4.54167V7.375" stroke="#00847A" stroke-width="1.41667" stroke-linecap="round" stroke-linejoin="round"/>
</svg>
