<svg width="279" height="238" viewBox="0 0 279 238" fill="none" xmlns="http://www.w3.org/2000/svg">
<g clip-path="url(#clip0_216_105)">
<path d="M139.5 238C216.536 238 279 209.124 279 173.368C279 137.724 216.536 108.735 139.5 108.735C62.4644 108.735 0 137.724 0 173.368C0 209.124 62.4644 238 139.5 238Z" fill="#F5F5F5"/>
<path d="M214.277 175.398L219.924 177.992C219.924 177.992 217.1 170.661 218.682 163.329C219.021 161.637 219.811 159.945 220.941 158.479C221.393 157.689 224.781 153.177 221.845 151.034C218.908 148.891 211.792 153.177 212.13 164.457C212.243 168.179 212.921 171.789 214.277 175.398Z" fill="#00847A"/>
<path opacity="0.5" d="M214.277 175.398L219.924 177.992C219.924 177.992 217.1 170.661 218.682 163.329C219.021 161.637 219.811 159.945 220.941 158.479C221.393 157.689 224.781 153.177 221.845 151.034C218.908 148.891 211.792 153.177 212.13 164.457C212.243 168.179 212.921 171.789 214.277 175.398Z" fill="black"/>
<path d="M216.874 176.864C216.762 176.864 216.762 176.864 216.762 176.864L216.649 176.752C216.649 176.752 214.502 171.901 214.615 164.344C214.728 156.674 219.811 152.613 219.811 152.5H219.924H220.037H220.15H220.263L220.376 152.613C220.376 152.726 220.376 152.726 220.263 152.726C220.263 152.726 215.293 156.787 215.18 164.231C215.067 171.676 217.1 176.413 217.213 176.526V176.639V176.752C217.213 176.752 217.213 176.752 217.1 176.864H216.987H216.874Z" fill="white"/>
<path d="M218.569 177.428L227.944 181.827C227.944 181.827 232.236 181.263 231.898 178.105C231.559 174.947 229.864 174.157 232.011 172.691C234.157 171.224 234.721 171.224 234.609 169.758C234.496 168.405 233.366 167.728 232.801 167.164C232.236 166.6 230.768 165.472 231.785 163.78C232.801 162.088 234.27 160.509 232.124 159.719C230.768 159.268 228.622 159.832 227.266 161.073C225.798 162.314 224.668 163.216 223.313 163.442C221.957 163.78 219.134 163.78 219.247 165.585C219.36 167.502 219.924 168.066 219.36 168.969C218.23 170.66 213.599 171.563 218.569 177.428Z" fill="#00847A"/>
<path opacity="0.2" d="M218.569 177.428L227.944 181.827C227.944 181.827 232.236 181.263 231.898 178.105C231.559 174.947 229.864 174.157 232.011 172.691C234.157 171.224 234.721 171.224 234.609 169.758C234.496 168.405 233.366 167.728 232.801 167.164C232.236 166.6 230.768 165.472 231.785 163.78C232.801 162.088 234.27 160.509 232.124 159.719C230.768 159.268 228.622 159.832 227.266 161.073C225.798 162.314 224.668 163.216 223.313 163.442C221.957 163.78 219.134 163.78 219.247 165.585C219.36 167.502 219.924 168.066 219.36 168.969C218.23 170.66 213.599 171.563 218.569 177.428Z" fill="black"/>
<path d="M222.409 179.459C222.296 179.459 222.296 179.459 222.183 179.346L222.07 179.233C222.07 179.12 221.054 167.953 230.768 160.622C230.768 160.622 230.881 160.622 230.881 160.509H230.994H231.107H231.22C231.22 160.509 231.22 160.509 231.333 160.622V160.734V160.847C231.333 160.847 231.333 160.847 231.22 160.96C221.732 168.179 222.748 179.12 222.748 179.233C222.748 179.346 222.748 179.346 222.635 179.346C222.522 179.459 222.522 179.459 222.409 179.459Z" fill="white"/>
<path d="M224.104 169.871C223.991 169.871 223.991 169.871 223.878 169.758L223.765 169.646C223.652 168.743 223.426 167.954 222.974 167.164C222.522 166.375 221.845 165.698 220.941 165.134C220.941 165.134 220.941 165.134 220.828 165.021C220.828 165.021 220.828 165.021 220.828 164.908V164.795C220.828 164.795 220.828 164.795 220.828 164.683C220.828 164.683 220.941 164.57 221.054 164.57C221.167 164.57 221.167 164.57 221.28 164.57C222.183 165.134 222.861 165.923 223.426 166.713C223.991 167.503 224.217 168.405 224.33 169.307V169.42C224.33 169.42 224.33 169.42 224.33 169.533C224.33 169.533 224.33 169.533 224.217 169.533C224.217 169.871 224.104 169.871 224.104 169.871Z" fill="white"/>
<path d="M223.426 171.789C223.313 171.789 223.313 171.789 223.2 171.676C223.2 171.676 223.2 171.676 223.087 171.563V171.45V171.337C223.087 171.337 223.087 171.337 223.2 171.225C223.313 171.112 225.798 168.969 231.333 169.646H231.446C231.446 169.646 231.559 169.646 231.559 169.758C231.559 169.758 231.559 169.758 231.559 169.871V169.984C231.559 170.097 231.559 170.097 231.446 170.097C231.333 170.097 231.333 170.097 231.22 170.097C225.911 169.533 223.539 171.563 223.539 171.563H223.426C223.426 171.789 223.426 171.789 223.426 171.789Z" fill="white"/>
<path d="M57.9462 148.327V171.789C57.9462 172.917 58.398 173.706 59.1887 174.045L64.8364 176.752C65.1753 176.977 65.6271 176.977 65.966 176.977C66.4178 176.977 66.7567 176.865 67.0955 176.639L93.3012 164.457C95.1085 163.555 96.6899 161.299 96.6899 159.268V135.807C96.6899 134.679 96.238 134.002 95.5603 133.664L89.7996 130.957C89.6866 130.957 89.6866 130.844 89.5737 130.844C89.2348 130.731 88.896 130.731 88.4441 130.731C88.1053 130.731 87.7664 130.844 87.4275 131.069L61.2219 143.251C59.5275 144.041 57.9462 146.297 57.9462 148.327Z" fill="#00847A"/>
<path d="M58.9628 145.394C59.5275 144.492 60.3182 143.703 61.3348 143.139L87.5405 130.957C87.8794 130.844 88.2182 130.731 88.5571 130.618C88.896 130.618 89.3478 130.618 89.6866 130.731C89.7996 130.731 89.7996 130.844 89.9125 130.844L95.6733 133.551C95.3344 133.438 94.8826 133.325 94.5437 133.325C94.2049 133.325 93.753 133.438 93.4142 133.664L67.2085 145.846C66.0789 146.41 65.2883 147.199 64.7235 148.214L58.9628 145.394Z" fill="#00847A"/>
<path d="M63.7069 174.496C63.7069 175.511 64.1587 176.301 64.8364 176.639L59.1887 173.932C58.398 173.594 57.9462 172.804 57.9462 171.676V148.214C57.9462 147.199 58.285 146.184 58.8498 145.282L64.6105 148.102C64.0458 149.004 63.7069 149.906 63.7069 150.922V174.496Z" fill="#00847A"/>
<path opacity="0.3" d="M58.9628 145.394C59.5275 144.492 60.3182 143.703 61.3348 143.139L87.5405 130.957C87.8794 130.844 88.2182 130.731 88.5571 130.618C88.896 130.618 89.3478 130.618 89.6866 130.731C89.7996 130.731 89.7996 130.844 89.9125 130.844L95.6733 133.551C95.3344 133.438 94.8826 133.325 94.5437 133.325C94.2049 133.325 93.753 133.438 93.4142 133.664L67.2085 145.846C66.0789 146.41 65.2883 147.199 64.7235 148.214L58.9628 145.394Z" fill="black"/>
<path opacity="0.6" d="M63.7069 174.496C63.7069 175.511 64.1587 176.301 64.8364 176.639L59.1887 173.932C58.398 173.594 57.9462 172.804 57.9462 171.676V148.214C57.9462 147.199 58.285 146.184 58.8498 145.282L64.6105 148.102C64.0458 149.004 63.7069 149.906 63.7069 150.922V174.496Z" fill="black"/>
<path d="M101.434 147.763C101.208 147.763 100.982 147.763 100.756 147.65C100.53 147.537 100.304 147.312 100.191 147.086C100.079 146.86 99.9656 146.635 100.079 146.409C100.079 145.845 100.304 145.169 100.756 144.717C101.095 144.153 101.66 143.702 102.338 143.364C102.564 143.251 102.902 143.138 103.241 143.138C103.58 143.138 103.919 143.138 104.145 143.251C104.371 143.364 104.597 143.589 104.823 143.815C104.936 144.041 105.049 144.266 104.936 144.605C104.936 145.169 104.71 145.845 104.258 146.296C103.919 146.86 103.354 147.312 102.677 147.65C102.225 147.65 101.886 147.763 101.434 147.763ZM103.241 143.589C103.015 143.589 102.677 143.702 102.451 143.815C101.886 144.153 101.434 144.492 101.095 144.943C100.756 145.394 100.53 145.845 100.53 146.409C100.53 146.522 100.53 146.748 100.53 146.86C100.643 146.973 100.756 147.086 100.869 147.199C101.095 147.312 101.208 147.312 101.434 147.312C101.66 147.312 101.773 147.199 101.999 147.086C102.564 146.748 103.015 146.409 103.354 145.958C103.693 145.507 103.919 145.056 103.919 144.492C103.919 144.379 103.919 144.153 103.806 144.041C103.693 143.928 103.58 143.815 103.467 143.702C103.58 143.589 103.467 143.589 103.241 143.589Z" fill="#00847A"/>
<path d="M83.813 160.622C83.813 160.734 83.813 160.96 83.813 161.073C83.813 161.186 83.7 161.298 83.4741 161.411C82.3446 162.426 80.9891 163.329 79.5207 164.005C75.3413 165.923 71.8397 164.682 71.8397 160.283C71.8397 155.433 75.4543 149.68 80.9891 147.086C85.3943 145.056 88.3312 146.522 88.3312 150.47C88.3312 153.967 86.185 157.012 83.813 158.14C82.7964 158.591 81.8927 158.366 81.8927 156.899H81.7798C80.8761 158.704 79.7466 159.945 78.2782 160.622C76.8097 161.298 75.5672 160.734 75.5672 158.93C75.5672 155.997 78.0522 152.275 81.5539 150.583C83.0223 149.906 84.0389 150.583 83.813 152.049L83.3612 154.418C83.0223 156.335 83.2482 157.012 84.1518 156.674C85.5073 156.11 86.8628 153.854 86.8628 151.147C86.8628 147.763 84.7166 146.296 80.7632 148.214C76.6968 150.132 73.1952 154.756 73.1952 159.494C73.1952 163.441 75.9061 164.569 79.6336 162.765C80.8761 162.201 81.8927 161.524 82.9093 160.622C83.3611 160.396 83.7 160.396 83.813 160.622ZM82.4575 152.613C82.5705 151.936 82.1186 151.598 81.4409 151.936C79.1818 152.951 77.2616 155.884 77.4875 158.253C77.4875 159.042 78.1652 159.381 79.0688 159.042C80.5373 158.366 81.8927 155.997 82.2316 154.418L82.4575 152.613Z" fill="#FAFAFA"/>
<path d="M104.371 144.718C104.258 144.718 104.258 144.718 104.258 144.718L104.145 144.605C104.145 144.492 104.032 144.492 104.145 144.379C104.145 144.266 104.258 144.266 104.258 144.266L109.793 141.672C110.696 141.221 111.374 140.657 111.826 139.98C112.278 139.303 112.617 138.514 112.617 137.724V118.21C112.617 118.098 112.617 118.098 112.73 117.985C112.843 117.985 112.843 117.872 112.955 117.872C113.068 117.872 113.181 117.872 113.181 117.985C113.294 117.985 113.294 118.098 113.294 118.21V137.724C113.294 138.627 112.955 139.529 112.504 140.206C111.939 140.995 111.148 141.559 110.245 142.01L104.71 144.605C104.484 144.718 104.484 144.718 104.371 144.718Z" fill="#00847A"/>
<path d="M46.3117 105.013V128.475C46.3117 129.603 46.7636 130.392 47.5542 130.731L53.202 133.438C53.5409 133.663 53.9927 133.663 54.3316 133.663C54.7834 133.663 55.1223 133.551 55.4611 133.325L81.6668 121.143C83.4741 120.241 85.0555 117.985 85.0555 115.954V92.4928C85.0555 91.3649 84.6036 90.6881 83.9259 90.3497L78.1652 87.6426C78.0522 87.6426 78.0522 87.5298 77.9393 87.5298C77.6004 87.417 77.2615 87.417 76.8097 87.417C76.4708 87.417 76.132 87.5298 75.7931 87.7554L49.5874 99.9374C47.7802 100.727 46.3117 103.096 46.3117 105.013Z" fill="#00847A"/>
<path d="M47.2154 102.08C47.7802 101.178 48.5709 100.389 49.5875 99.8246L75.7931 87.6426C76.132 87.5298 76.4709 87.417 76.8097 87.3042C77.1486 87.3042 77.6004 87.3042 77.9393 87.417C78.0522 87.417 78.0522 87.5298 78.1652 87.5298L83.9259 90.2369C83.5871 90.1241 83.1352 90.0113 82.7964 90.0113C82.4575 90.0113 82.0057 90.1241 81.6668 90.3497L55.4611 102.644C54.3316 103.208 53.5409 103.998 52.9761 105.013L47.2154 102.08Z" fill="#00847A"/>
<path d="M52.0725 131.182C52.0725 132.197 52.5243 132.987 53.202 133.325L47.5542 130.618C46.7636 130.28 46.3117 129.49 46.3117 128.362V105.013C46.3117 103.998 46.6506 102.983 47.2154 102.081L52.9761 104.9C52.4113 105.803 52.0725 106.705 52.0725 107.72V131.182Z" fill="#00847A"/>
<path opacity="0.3" d="M47.2154 102.08C47.7802 101.178 48.5709 100.389 49.5875 99.8246L75.7931 87.6426C76.132 87.5298 76.4709 87.417 76.8097 87.3042C77.1486 87.3042 77.6004 87.3042 77.9393 87.417C78.0522 87.417 78.0522 87.5298 78.1652 87.5298L83.9259 90.2369C83.5871 90.1241 83.1352 90.0113 82.7964 90.0113C82.4575 90.0113 82.0057 90.1241 81.6668 90.3497L55.4611 102.644C54.3316 103.208 53.5409 103.998 52.9761 105.013L47.2154 102.08Z" fill="black"/>
<path opacity="0.6" d="M52.0725 131.182C52.0725 132.197 52.5243 132.987 53.202 133.325L47.5542 130.618C46.7636 130.28 46.3117 129.49 46.3117 128.362V105.013C46.3117 103.998 46.6506 102.983 47.2154 102.081L52.9761 104.9C52.4113 105.803 52.0725 106.705 52.0725 107.72V131.182Z" fill="black"/>
<path d="M90.4773 104.901C90.2514 104.901 90.0255 104.901 89.7996 104.788C89.5737 104.675 89.3478 104.449 89.2348 104.224C89.1219 103.998 89.0089 103.773 89.1219 103.547C89.1219 102.983 89.3478 102.306 89.7996 101.855C90.1385 101.291 90.7033 100.84 91.381 100.501C91.6069 100.389 91.9458 100.276 92.2846 100.276C92.6235 100.276 92.9624 100.276 93.1883 100.389C93.4142 100.501 93.6401 100.727 93.866 100.953C93.753 101.065 93.7531 101.291 93.7531 101.517C93.7531 102.081 93.5271 102.757 93.0753 103.209C92.7365 103.773 92.1717 104.224 91.4939 104.562C91.268 104.788 90.9292 104.901 90.4773 104.901ZM92.2846 100.614C92.0587 100.614 91.7199 100.727 91.4939 100.84C90.9292 101.178 90.4773 101.517 90.1385 101.968C89.7996 102.419 89.5737 102.87 89.5737 103.434C89.5737 103.547 89.5737 103.773 89.5737 103.885C89.6867 103.998 89.7996 104.111 89.9126 104.224C90.1385 104.337 90.2514 104.337 90.4773 104.337C90.7033 104.337 90.8162 104.224 91.0421 104.111C91.6069 103.773 92.0587 103.434 92.3976 102.983C92.7365 102.532 92.9624 102.081 92.9624 101.517C92.9624 101.404 92.9624 101.178 92.8494 101.065C92.7364 100.953 92.6235 100.84 92.5105 100.727C92.5105 100.727 92.3976 100.614 92.2846 100.614Z" fill="#00847A"/>
<path d="M93.4142 101.855H93.3012C93.3012 101.855 93.1883 101.855 93.1883 101.742C93.1883 101.629 93.0753 101.629 93.1883 101.517C93.1883 101.404 93.3012 101.404 93.3012 101.404L101.208 97.5688C101.321 97.5688 101.321 97.5688 101.434 97.5688C101.547 97.5688 101.547 97.6816 101.66 97.6816V97.7944V97.9072V98.02C101.66 98.02 101.547 98.02 101.547 98.1328L93.6401 101.968C93.5271 101.855 93.5271 101.855 93.4142 101.855Z" fill="#00847A"/>
<path d="M66.5308 105.464C66.5308 105.464 66.6437 105.464 66.7567 105.352C66.8696 105.352 66.8696 105.352 66.9826 105.352C67.0955 105.352 67.0955 105.464 67.0955 105.464V105.577V110.766C67.0955 111.104 66.9826 111.443 66.7567 111.781C66.5308 112.119 66.3049 112.458 65.966 112.683V119C65.966 119.338 65.853 119.677 65.6271 119.902C65.4012 120.128 65.1753 120.466 64.8364 120.579L63.7069 121.143C63.5939 121.256 63.481 121.256 63.368 121.256C63.2551 121.256 63.1421 121.256 62.9162 121.143C62.8032 121.03 62.6903 121.03 62.6903 120.917C62.5773 120.805 62.5773 120.692 62.5773 120.579V114.262C62.4644 114.262 62.2385 114.262 62.1255 114.262C62.0126 114.262 61.8996 114.15 61.7866 114.037C61.5607 113.811 61.4478 113.586 61.4478 113.247V108.059C61.4478 107.946 61.5607 107.72 61.6737 107.608C61.7866 107.495 61.8996 107.382 62.0126 107.269C62.0126 107.269 62.1255 107.156 62.2385 107.156C62.3514 107.156 62.3514 107.156 62.4644 107.156C62.5773 107.156 62.5773 107.269 62.5773 107.269V107.382V110.766V110.879L62.6903 110.991C62.8032 110.991 62.8032 110.991 62.9162 110.991C63.0292 110.991 63.0292 110.991 63.1421 110.991C63.2551 110.879 63.481 110.766 63.481 110.653C63.5939 110.54 63.5939 110.315 63.7069 110.202V106.818C63.7069 106.705 63.8198 106.48 63.8198 106.367C63.9328 106.254 64.0458 106.141 64.2717 106.028C64.2717 106.028 64.3846 105.916 64.4976 105.916C64.6105 105.916 64.6105 105.916 64.7235 105.916C64.8364 105.916 64.8364 106.028 64.8364 106.028V106.141V109.525V109.638L64.9494 109.751C65.0623 109.751 65.0623 109.751 65.1753 109.751C65.2883 109.751 65.2883 109.751 65.4012 109.638C65.5142 109.525 65.7401 109.412 65.853 109.299C65.966 109.187 65.966 108.961 65.966 108.848V105.464C65.966 105.352 66.0789 105.126 66.1919 105.013C66.1919 105.69 66.3049 105.577 66.5308 105.464ZM66.5308 104.449C66.0789 104.675 65.6271 105.013 65.4012 105.352C65.1753 105.352 65.0623 105.239 64.8364 105.352C64.6105 105.352 64.4976 105.464 64.2717 105.577C63.8198 105.803 63.481 106.141 63.1421 106.48C62.9162 106.48 62.8032 106.367 62.5773 106.48C62.3514 106.48 62.2385 106.592 62.0126 106.592C61.5607 106.818 61.1089 107.156 60.77 107.608C60.4312 108.059 60.3182 108.51 60.3182 108.961V114.15C60.3182 114.601 60.4312 115.052 60.883 115.39C60.996 115.503 61.2219 115.616 61.4478 115.729V121.481C61.4478 121.707 61.4478 121.933 61.5607 122.158C61.6737 122.384 61.8996 122.497 62.1255 122.609C62.3514 122.722 62.6903 122.722 62.9162 122.722C63.2551 122.722 63.481 122.609 63.7069 122.497L64.8364 121.933C65.5142 121.594 66.0789 121.143 66.4178 120.579C66.8696 120.015 67.0955 119.451 67.0955 118.774V113.022C67.3215 112.796 67.5474 112.458 67.6603 112.119C67.9992 111.555 68.2251 110.991 68.2251 110.315V105.126C68.2251 104.9 68.2251 104.788 68.1121 104.562C67.9992 104.449 67.8862 104.224 67.6603 104.224C67.4344 104.111 67.2085 104.111 66.9826 104.111C66.8696 104.224 66.6437 104.336 66.5308 104.449Z" fill="#FAFAFA"/>
<path d="M75.1154 101.516C75.1154 101.516 75.2283 101.404 75.3413 101.404C75.4542 101.404 75.4543 101.404 75.5672 101.404C75.6802 101.404 75.6802 101.516 75.6802 101.516V101.629V114.714C75.6802 115.052 75.5672 115.278 75.3413 115.616C75.1154 115.842 74.8895 116.067 74.5506 116.293L73.4211 116.857C73.3081 116.97 73.1951 116.97 73.0822 116.97C72.9692 116.97 72.7433 116.97 72.6304 116.857C72.5174 116.744 72.4044 116.744 72.4044 116.631C72.2915 116.518 72.2915 116.406 72.4044 116.293V112.119L70.4842 113.022H70.3713H70.2583C70.2583 113.022 70.2583 113.022 70.1453 112.909C70.1453 112.909 70.1453 112.909 70.1453 112.796V106.254C70.1453 105.464 70.4842 104.675 70.936 103.998C71.3879 103.321 72.0656 102.757 72.9692 102.306L75.1154 101.516ZM75.1154 100.501L72.8563 101.516C71.7267 102.08 70.7101 102.983 70.0324 103.885C69.3547 104.788 68.9028 105.916 68.9028 107.043V113.586C68.9028 113.698 68.9028 113.924 69.0158 114.037C69.1287 114.15 69.2417 114.262 69.3547 114.375C69.4676 114.488 69.6935 114.488 69.9194 114.488C70.1453 114.488 70.2583 114.375 70.3713 114.262L71.1619 113.924V117.082C71.1619 117.308 71.1619 117.534 71.2749 117.759C71.3879 117.985 71.6138 118.098 71.8397 118.21C72.0656 118.323 72.4045 118.323 72.6304 118.323C72.9692 118.323 73.1951 118.21 73.4211 118.098L74.5506 117.534C75.2283 117.195 75.7931 116.744 76.132 116.18C76.5838 115.616 76.8097 115.052 76.8097 114.375V101.291C76.8097 101.065 76.8097 100.953 76.6968 100.84C76.5838 100.727 76.4708 100.501 76.2449 100.501C76.019 100.389 75.7931 100.389 75.5672 100.389C75.4543 100.276 75.2283 100.389 75.1154 100.501Z" fill="#FAFAFA"/>
<path d="M62.2385 48.2769V71.7385C62.2385 72.8664 62.6903 73.656 63.481 73.8816L69.1287 76.5887C69.4676 76.8143 69.9194 76.8143 70.2583 76.8143C70.7101 76.8143 71.049 76.7015 71.3879 76.4759L97.5935 64.2939C99.4008 63.3916 100.982 61.1356 100.982 59.1053V35.7565C100.982 34.6285 100.53 33.9518 99.8526 33.6134L94.0919 30.9063C93.979 30.9063 93.9789 30.7935 93.866 30.7935C93.5271 30.6807 93.1883 30.6807 92.7364 30.6807C92.3976 30.6807 92.0587 30.7935 91.7198 31.0191L65.5142 43.0882C63.7069 43.9906 62.2385 46.2465 62.2385 48.2769Z" fill="#00847A"/>
<path d="M63.1421 45.3442C63.7069 44.4418 64.4976 43.6522 65.5142 43.0883L91.7198 30.9063C92.0587 30.7935 92.3976 30.6807 92.7364 30.5679C93.0753 30.5679 93.5271 30.5679 93.866 30.6807C93.9789 30.6807 93.979 30.7935 94.0919 30.7935L99.8526 33.5006C99.5138 33.3878 99.0619 33.275 98.7231 33.275C98.3842 33.275 97.9324 33.3878 97.5935 33.6134L71.3879 45.7954C70.2583 46.3593 69.4676 47.1489 68.9028 48.1641L63.1421 45.3442Z" fill="#00847A"/>
<path d="M67.9992 74.3329C67.9992 75.348 68.451 76.1376 69.1287 76.476L63.481 73.7689C62.6903 73.4305 62.2385 72.6409 62.2385 71.6258V48.2769C62.2385 47.2618 62.5773 46.2466 63.1421 45.3442L68.9028 48.1641C68.3381 49.0665 67.9992 49.9689 67.9992 50.984V74.3329Z" fill="#00847A"/>
<path opacity="0.3" d="M63.1421 45.3442C63.7069 44.4418 64.4976 43.6522 65.5142 43.0883L91.7198 30.9063C92.0587 30.7935 92.3976 30.6807 92.7364 30.5679C93.0753 30.5679 93.5271 30.5679 93.866 30.6807C93.9789 30.6807 93.979 30.7935 94.0919 30.7935L99.8526 33.5006C99.5138 33.3878 99.0619 33.275 98.7231 33.275C98.3842 33.275 97.9324 33.3878 97.5935 33.6134L71.3879 45.7954C70.2583 46.3593 69.4676 47.1489 68.9028 48.1641L63.1421 45.3442Z" fill="black"/>
<path opacity="0.6" d="M67.9992 74.3329C67.9992 75.348 68.451 76.1376 69.1287 76.476L63.481 73.7689C62.6903 73.4305 62.2385 72.6409 62.2385 71.6258V48.2769C62.2385 47.2618 62.5773 46.2466 63.1421 45.3442L68.9028 48.1641C68.3381 49.0665 67.9992 49.9689 67.9992 50.984V74.3329Z" fill="black"/>
<path d="M106.517 47.7125C106.291 47.7125 106.065 47.7125 105.839 47.5997C105.613 47.4869 105.387 47.2613 105.274 47.0358C105.049 46.8102 105.049 46.4718 105.049 46.2462C105.049 45.6822 105.274 45.0054 105.726 44.5542C106.178 44.1031 106.63 43.5391 107.308 43.2007C107.534 43.0879 107.872 42.9751 108.211 42.9751C108.55 42.9751 108.889 42.9751 109.115 43.0879C109.341 43.2007 109.567 43.4263 109.793 43.6519C109.906 43.8775 110.019 44.1031 109.906 44.3287C109.906 44.8926 109.68 45.5694 109.228 46.0206C108.889 46.5846 108.324 47.0358 107.647 47.3741C107.195 47.5997 106.856 47.7125 106.517 47.7125ZM108.324 43.5391C108.098 43.5391 107.76 43.6519 107.534 43.7647C106.969 44.1031 106.517 44.4414 106.178 44.8926C105.839 45.3438 105.613 45.795 105.613 46.359C105.613 46.4718 105.613 46.6974 105.613 46.8102C105.726 46.923 105.839 47.0358 105.952 47.1486C106.178 47.2613 106.291 47.2614 106.517 47.2614C106.743 47.2614 106.856 47.1486 107.082 47.0358C107.647 46.6974 108.098 46.359 108.437 45.9078C108.776 45.4566 109.002 45.0054 109.002 44.4414C109.002 44.3287 109.002 44.1031 108.889 43.9903C108.776 43.8775 108.663 43.7647 108.55 43.6519C108.55 43.5391 108.437 43.5391 108.324 43.5391Z" fill="#00847A"/>
<path d="M120.523 60.233C120.411 60.233 120.298 60.233 120.298 60.1202C120.185 60.1202 120.185 60.0074 120.185 59.8946V42.1856C120.185 41.96 120.072 41.6216 119.959 41.396C119.846 41.1704 119.62 40.9449 119.281 40.8321C119.055 40.7193 118.716 40.6065 118.377 40.6065C118.038 40.6065 117.7 40.7193 117.474 40.8321L109.567 44.5543H109.454H109.341H109.228C109.228 44.5543 109.115 44.5543 109.115 44.4415V44.3287V44.2159C109.115 44.2159 109.115 44.1031 109.228 44.1031C109.228 44.1031 109.341 44.1031 109.341 43.9903L117.248 40.2681C117.587 40.0425 118.038 40.0425 118.49 40.0425C118.942 40.0425 119.394 40.1553 119.733 40.2681C120.072 40.4937 120.411 40.7193 120.636 40.9448C120.862 41.2832 120.975 41.6216 120.975 41.96V59.669C120.975 59.7818 120.975 59.7818 120.862 59.8946C120.636 60.1202 120.636 60.233 120.523 60.233Z" fill="#00847A"/>
<path d="M88.67 46.1338C89.9126 45.5698 91.0421 45.457 91.9458 45.9082C93.753 46.6978 93.753 49.5177 91.9458 51.9992L89.2348 55.8342L85.2814 61.2485C85.0555 61.5869 84.6037 61.9252 84.2648 62.1508C84.1518 62.2636 83.9259 62.2636 83.7 62.2636C83.4741 62.2636 83.3611 62.2636 83.1352 62.1508L76.4709 59.1053C74.6636 58.3158 74.6636 55.4959 76.4709 53.0143C77.2615 51.8864 78.3911 50.8712 79.7466 50.1944C80.9891 49.6305 82.1186 49.5177 83.0223 49.9688L83.5871 50.1944C83.7 50.1944 83.813 50.1944 83.813 50.1944C83.9259 50.1944 84.0389 50.1944 84.0389 50.0816C84.2648 49.9688 84.4907 49.856 84.6037 49.6305L85.1684 48.8409C86.185 47.8257 87.3146 46.8105 88.67 46.1338ZM88.67 45.1186C86.9757 46.021 85.5073 47.1489 84.6037 48.6153L84.2648 49.0665L83.9259 48.9537C82.7964 48.3897 81.3279 48.6153 79.8595 49.2921C78.1652 50.1944 76.6968 51.3224 75.6802 52.7887C73.4211 55.947 73.4211 59.3309 75.6802 60.4589L82.3445 63.5044C82.6834 63.6172 83.0223 63.6172 83.3611 63.6172C83.7 63.6172 84.0389 63.5044 84.2648 63.3916C85.0555 62.9404 85.7332 62.4892 86.185 61.8124L90.1385 56.3982L92.8494 52.5632C95.1085 49.4049 95.1085 46.021 92.8494 44.893C91.7198 44.2162 90.2514 44.4418 88.67 45.1186Z" fill="#FAFAFA"/>
<path d="M85.2814 57.9772C85.0555 58.09 84.9425 58.09 84.8295 57.8644L82.2316 54.5933L79.0688 60.5715C78.9559 60.7971 78.8429 60.9099 78.617 61.0227L75.2283 62.6018C74.8895 62.7146 74.6635 62.6018 74.6635 62.3763C74.6635 62.2635 74.7765 62.0379 74.8895 61.9251C75.0024 61.8123 75.1154 61.6995 75.3413 61.5867L78.3911 60.1203L81.8927 53.4654C82.0057 53.2398 82.1186 53.127 82.4575 53.0142C82.6834 52.9014 82.7963 52.9014 82.9093 53.127L85.5073 56.5108L87.2016 53.3526C87.3146 53.127 87.4275 53.0142 87.6534 52.9014C87.7664 52.9014 87.7664 52.7886 87.8793 52.7886C87.9923 52.7886 88.1053 52.7886 88.1053 52.9014L90.0255 54.9317L93.4142 53.3526C93.753 53.2398 93.9789 53.3526 93.9789 53.5781C93.9789 53.6909 93.866 53.9165 93.753 54.0293C93.753 54.0293 93.6401 54.1421 93.4142 54.1421L89.6866 55.8341C89.5737 55.8341 89.5737 55.9469 89.4607 55.9469C89.3478 55.9469 89.2348 55.9469 89.2348 55.8341L87.5405 54.1421L85.8461 57.526C85.7332 57.6388 85.5073 57.8644 85.2814 57.9772Z" fill="#FAFAFA"/>
<path d="M184.569 104.336V127.798C184.569 128.926 185.021 129.716 185.812 129.941L191.46 132.648C191.798 132.874 192.25 132.874 192.589 132.874C193.041 132.874 193.38 132.761 193.719 132.536L219.924 120.354C221.732 119.451 223.313 117.195 223.313 115.165V91.8161C223.313 90.6881 222.861 90.0113 222.183 89.6729L216.423 86.9658L216.197 86.853C215.858 86.7402 215.519 86.7402 215.067 86.7402C214.728 86.7402 214.389 86.853 214.051 87.0786L187.845 99.2606C186.038 100.05 184.569 102.306 184.569 104.336Z" fill="#00847A"/>
<path d="M185.473 101.404C186.038 100.501 186.828 99.7118 187.845 99.1478L214.051 86.9658C214.389 86.853 214.728 86.7402 215.067 86.6274C215.406 86.6274 215.745 86.6274 216.197 86.7402L216.423 86.853L222.183 89.5601C221.844 89.4473 221.393 89.3345 221.054 89.3345C220.715 89.3345 220.263 89.4473 219.924 89.6729L193.719 101.855C192.589 102.419 191.798 103.208 191.234 104.224L185.473 101.404Z" fill="#00847A"/>
<path d="M190.33 130.505C190.33 131.52 190.782 132.31 191.46 132.648L185.812 129.941C185.021 129.603 184.569 128.813 184.569 127.798V104.337C184.569 103.321 184.908 102.306 185.473 101.404L191.234 104.224C190.669 105.126 190.33 106.028 190.33 107.044V130.505Z" fill="#00847A"/>
<path opacity="0.3" d="M185.473 101.404C186.038 100.501 186.828 99.7118 187.845 99.1478L214.051 86.9658C214.389 86.853 214.728 86.7402 215.067 86.6274C215.406 86.6274 215.745 86.6274 216.197 86.7402L216.423 86.853L222.183 89.5601C221.844 89.4473 221.393 89.3345 221.054 89.3345C220.715 89.3345 220.263 89.4473 219.924 89.6729L193.719 101.855C192.589 102.419 191.798 103.208 191.234 104.224L185.473 101.404Z" fill="black"/>
<path opacity="0.6" d="M190.33 130.505C190.33 131.52 190.782 132.31 191.46 132.648L185.812 129.941C185.021 129.603 184.569 128.813 184.569 127.798V104.337C184.569 103.321 184.908 102.306 185.473 101.404L191.234 104.224C190.669 105.126 190.33 106.028 190.33 107.044V130.505Z" fill="black"/>
<path d="M178.47 121.03C178.244 121.03 178.018 121.03 177.792 120.918C177.566 120.805 177.34 120.579 177.227 120.354C177.114 120.128 177.001 119.902 177.114 119.677C177.114 119.113 177.34 118.436 177.792 117.985C178.131 117.421 178.696 116.97 179.373 116.631C179.599 116.519 179.938 116.406 180.277 116.406C180.616 116.406 180.955 116.406 181.181 116.519C181.406 116.631 181.632 116.857 181.858 117.083C181.971 117.308 182.084 117.534 181.971 117.759C181.971 118.323 181.745 119 181.294 119.451C180.842 119.902 180.39 120.466 179.712 120.805C179.26 120.918 178.921 121.03 178.47 121.03ZM180.277 116.857C180.051 116.857 179.712 116.97 179.486 117.083C178.921 117.421 178.47 117.759 178.131 118.211C177.792 118.662 177.566 119.113 177.566 119.677C177.566 119.79 177.566 120.015 177.679 120.128C177.792 120.241 177.905 120.354 178.018 120.466C178.244 120.579 178.357 120.579 178.583 120.579C178.808 120.579 178.921 120.466 179.147 120.354C179.712 120.015 180.164 119.677 180.503 119.226C180.842 118.774 181.068 118.323 181.068 117.759C181.068 117.647 181.068 117.421 180.955 117.308C180.842 117.195 180.729 117.083 180.616 116.97C180.616 116.857 180.503 116.857 180.277 116.857Z" fill="#00847A"/>
<path d="M215.745 108.623C215.632 108.736 215.406 108.736 215.18 108.848C214.954 108.848 214.728 108.848 214.615 108.736L206.596 106.48L198.576 116.18C197.898 117.082 196.881 117.534 196.204 117.308C195.526 116.97 195.526 115.954 196.204 115.052V114.939L205.353 103.66C205.579 103.209 206.031 102.87 206.483 102.645C206.709 102.532 206.821 102.532 207.047 102.419C207.273 102.419 207.499 102.419 207.612 102.532L216.762 105.239C217.439 105.577 217.439 106.592 216.762 107.495C216.649 108.059 216.31 108.397 215.745 108.623ZM206.596 105.239C206.596 105.239 206.709 105.239 206.821 105.126C206.934 105.126 206.934 105.126 207.047 105.126L215.519 107.495C215.632 107.495 215.632 107.495 215.745 107.495C215.858 107.495 215.858 107.495 215.971 107.382C216.084 107.269 216.31 107.156 216.31 107.044C216.536 106.705 216.536 106.48 216.31 106.367L207.16 103.547C207.047 103.547 207.047 103.547 206.934 103.547C206.821 103.547 206.821 103.547 206.709 103.66C206.596 103.772 206.37 103.885 206.257 103.998V104.111L197.107 115.391C196.881 115.729 196.881 115.954 197.107 116.067C197.333 116.18 197.672 115.954 197.898 115.729V115.616L206.257 105.464C206.257 105.352 206.37 105.352 206.596 105.239Z" fill="#FAFAFA"/>
<path d="M214.615 108.735L213.712 108.51V113.247C213.712 113.698 213.486 114.262 213.147 114.714C212.808 115.165 212.356 115.503 211.904 115.842L201.174 120.805C200.157 121.256 199.366 120.917 199.366 120.015V115.278L198.463 116.293C198.35 116.406 198.237 116.518 198.124 116.631V120.466C198.124 121.933 199.479 122.609 201.061 121.82L211.792 116.857C212.695 116.406 213.373 115.842 213.938 115.052C214.502 114.375 214.728 113.586 214.841 112.683V108.848C214.841 108.848 214.728 108.735 214.615 108.735Z" fill="#FAFAFA"/>
<path d="M207.386 112.909C207.838 112.684 208.177 112.909 208.177 113.248V117.421L204.788 119V114.827C204.788 114.601 204.901 114.376 205.014 114.15C205.127 113.924 205.353 113.812 205.579 113.699L207.386 112.909ZM207.386 111.781L205.579 112.571C205.014 112.909 204.562 113.248 204.223 113.812C203.885 114.263 203.659 114.827 203.659 115.391V119.564C203.659 120.128 204.223 120.354 204.788 120.128L208.177 118.549C208.516 118.323 208.742 118.098 208.968 117.872C209.194 117.647 209.306 117.308 209.306 116.97V112.796C209.419 111.668 208.516 111.33 207.386 111.781Z" fill="#FAFAFA"/>
<path d="M163.334 126.783C162.882 126.783 162.43 126.67 161.978 126.444C161.526 126.219 161.187 125.993 160.962 125.655C160.736 125.316 160.623 124.978 160.623 124.527V109.412C160.623 109.299 160.623 109.299 160.736 109.187C160.849 109.074 160.849 109.074 160.962 109.074C161.075 109.074 161.075 109.074 161.187 109.187C161.3 109.299 161.3 109.299 161.3 109.412V124.64C161.3 124.978 161.413 125.204 161.526 125.429C161.752 125.655 161.978 125.88 162.317 125.993C162.656 126.106 162.995 126.219 163.334 126.219C163.672 126.219 164.011 126.106 164.35 125.993L177.114 119.338C177.227 119.338 177.227 119.338 177.34 119.338C177.453 119.338 177.453 119.451 177.566 119.451C177.566 119.451 177.566 119.564 177.566 119.677C177.566 119.789 177.453 119.789 177.453 119.789L164.689 126.444C164.35 126.67 163.898 126.783 163.334 126.783Z" fill="#00847A"/>
<path d="M194.396 50.5327V73.9943C194.396 75.1223 194.848 75.9119 195.639 76.2503L201.287 78.9574C201.625 79.183 202.077 79.183 202.416 79.183C202.868 79.183 203.207 79.0702 203.546 78.8446L229.751 66.5498C231.559 65.6474 233.14 63.3915 233.14 61.3612V37.8996C233.14 36.7716 232.688 36.0948 232.011 35.7564L226.25 33.0493L226.024 32.9365C225.685 32.8237 225.346 32.8237 224.894 32.8237C224.555 32.8237 224.217 32.9365 223.878 33.1621L197.672 45.3441C195.865 46.2465 194.396 48.5024 194.396 50.5327Z" fill="#00847A"/>
<path d="M195.3 47.6C195.865 46.6977 196.655 45.9081 197.672 45.3441L223.878 33.1621C224.217 33.0493 224.555 32.9365 224.894 32.8237C225.233 32.8237 225.685 32.8237 226.024 32.9365L226.25 33.0493L232.01 35.7564C231.672 35.6436 231.22 35.5308 230.881 35.5308C230.542 35.5308 230.09 35.6436 229.751 35.8692L203.546 48.0512C202.416 48.6152 201.626 49.4048 201.061 50.4199L195.3 47.6Z" fill="#00847A"/>
<path d="M200.157 76.5887C200.157 77.6039 200.609 78.3935 201.287 78.7319L195.639 76.0247C194.848 75.6864 194.396 74.8968 194.396 73.7688V50.5328C194.396 49.5176 194.735 48.5025 195.3 47.6001L201.061 50.42C200.496 51.3224 200.157 52.2247 200.157 53.2399V76.5887Z" fill="#00847A"/>
<path opacity="0.3" d="M195.3 47.6C195.865 46.6977 196.655 45.9081 197.672 45.3441L223.878 33.1621C224.217 33.0493 224.555 32.9365 224.894 32.8237C225.233 32.8237 225.685 32.8237 226.024 32.9365L226.25 33.0493L232.01 35.7564C231.672 35.6436 231.22 35.5308 230.881 35.5308C230.542 35.5308 230.09 35.6436 229.751 35.8692L203.546 48.0512C202.416 48.6152 201.626 49.4048 201.061 50.4199L195.3 47.6Z" fill="black"/>
<path opacity="0.6" d="M200.157 76.5887C200.157 77.6039 200.609 78.3935 201.287 78.7319L195.639 76.0247C194.848 75.6864 194.396 74.8968 194.396 73.7688V50.5328C194.396 49.5176 194.735 48.5025 195.3 47.6001L201.061 50.42C200.496 51.3224 200.157 52.2247 200.157 53.2399V76.5887Z" fill="black"/>
<path d="M187.732 60.9098C187.506 60.9098 187.28 60.9098 187.054 60.797C186.828 60.6842 186.602 60.4586 186.489 60.233C186.377 60.0074 186.264 59.7818 186.377 59.5562C186.377 58.9923 186.602 58.3155 187.054 57.8643C187.393 57.3003 187.958 56.8491 188.636 56.5107C188.862 56.3979 189.2 56.2852 189.539 56.2852C189.878 56.2852 190.217 56.2852 190.443 56.398C190.669 56.5107 190.895 56.7363 191.121 56.9619C191.234 57.1875 191.347 57.4131 191.234 57.7515C191.234 58.3155 191.008 58.9923 190.556 59.4435C190.217 60.0074 189.652 60.4586 188.974 60.797C188.523 60.797 188.184 60.9098 187.732 60.9098ZM189.539 56.7363C189.313 56.7363 188.974 56.8491 188.749 56.9619C188.184 57.3003 187.732 57.6387 187.393 58.0899C187.054 58.5411 186.828 58.9923 186.828 59.5562C186.828 59.669 186.828 59.8946 186.828 60.0074C186.941 60.1202 187.054 60.233 187.167 60.3458C187.393 60.4586 187.506 60.4586 187.732 60.4586C187.958 60.4586 188.071 60.3458 188.297 60.233C188.862 59.8946 189.313 59.5562 189.652 59.1051C189.991 58.6539 190.217 58.2027 190.217 57.6387C190.217 57.5259 190.217 57.3003 190.104 57.1875C189.991 57.0747 189.878 56.9619 189.765 56.8491C189.878 56.7363 189.652 56.7363 189.539 56.7363Z" fill="#00847A"/>
<path d="M220.489 58.2029L212.469 61.9252C211.453 62.3764 210.549 62.2636 210.21 61.474L208.29 56.6237L209.419 55.8342L211.453 60.6844C211.566 61.0228 212.017 61.1356 212.582 60.91L220.602 57.1877C221.167 56.8493 221.619 56.3982 221.732 55.8342L223.426 49.5176L224.555 49.292L222.861 55.6086C222.409 56.7365 221.619 57.6389 220.489 58.2029Z" fill="#FAFAFA"/>
<path d="M213.034 62.9404C212.695 63.0532 212.469 62.9404 212.469 62.7148V60.0077C212.469 59.8949 212.582 59.6693 212.695 59.5565C212.808 59.4437 212.921 59.3309 213.147 59.2181C213.486 59.1053 213.712 59.2181 213.712 59.4437V62.1508C213.712 62.2636 213.599 62.4892 213.486 62.602C213.373 62.8276 213.147 62.9404 213.034 62.9404Z" fill="#FAFAFA"/>
<path d="M219.585 59.8949C219.247 60.0077 219.021 59.8949 219.021 59.6693V56.9622C219.021 56.8494 219.134 56.6239 219.247 56.5111C219.36 56.3983 219.472 56.2855 219.698 56.1727C220.037 56.0599 220.263 56.1727 220.263 56.3983V59.1054C220.263 59.2182 220.15 59.4438 220.037 59.5565C219.924 59.7821 219.698 59.8949 219.585 59.8949Z" fill="#FAFAFA"/>
<path d="M222.635 49.9688C223.652 49.5176 224.555 49.856 224.555 50.8711V58.8797C224.555 59.4437 224.33 59.8948 223.991 60.346C223.652 60.7972 223.2 61.1356 222.635 61.474L210.097 67.2266C209.081 67.6778 208.177 67.3394 208.177 66.3242V58.3157C208.177 57.7517 208.403 57.3005 208.742 56.8493C209.081 56.3982 209.532 56.0598 210.097 55.7214L222.635 49.9688ZM222.635 48.8408L210.097 54.7062C209.194 55.1574 208.516 55.8342 207.951 56.5109C207.386 57.1877 207.16 58.0901 207.047 58.8797V66.8882C207.047 68.4673 208.403 69.0313 210.097 68.2418L222.635 62.3763C223.539 61.9252 224.217 61.2484 224.781 60.5716C225.346 59.8948 225.572 58.9925 225.685 58.2029V50.1944C225.685 48.728 224.33 48.0512 222.635 48.8408Z" fill="#FAFAFA"/>
<path d="M213.373 53.1273V52.6761C213.373 52.2249 213.599 51.8865 213.825 51.5481C214.051 51.2097 214.389 50.8713 214.841 50.6457L217.891 49.1794C218.682 48.841 219.36 49.0666 219.36 49.8562V50.3073L220.489 49.7434V49.2922C220.489 47.9386 219.36 47.3746 217.891 48.0514L214.841 49.5178C214.051 49.969 213.486 50.4201 213.034 51.0969C212.582 51.7737 212.356 52.4505 212.243 53.1273V53.5784L213.373 53.1273Z" fill="#FAFAFA"/>
<path d="M165.141 70.0462H165.028C165.028 70.0462 164.915 70.0462 164.915 69.9334C164.915 69.8206 164.915 69.8206 164.915 69.7078C164.915 69.595 165.028 69.595 165.028 69.595L186.489 59.3306H186.602H186.715H186.828C186.828 59.3306 186.941 59.3306 186.941 59.4434V59.5562V59.669V59.7818C186.941 59.7818 186.828 59.7818 186.828 59.8945L165.367 70.159C165.254 70.0462 165.254 70.0462 165.141 70.0462Z" fill="#00847A"/>
<path d="M157.686 17.5962V41.0578C157.686 42.1858 158.138 42.9753 158.928 43.2009L164.576 45.9081C164.915 46.1336 165.367 46.1336 165.706 46.1336C166.157 46.1336 166.496 46.0208 166.835 45.7953L193.154 33.6133C194.961 32.7109 196.543 30.455 196.543 28.4246V5.07583C196.543 3.94787 196.091 3.27109 195.413 2.9327L189.652 0.225592C189.539 0.225592 189.539 0.112796 189.426 0.112796C189.087 0 188.749 0 188.297 0C187.958 0 187.619 0.112796 187.28 0.338389L160.962 12.5204C159.267 13.31 157.686 15.6787 157.686 17.5962Z" fill="#00847A"/>
<path d="M158.702 14.6635C159.267 13.7611 160.058 12.9716 161.074 12.4076L187.393 0.225596C187.732 0.112799 188.071 3.23355e-06 188.41 -0.112793C188.749 -0.112793 189.087 -0.112793 189.539 3.23355e-06C189.652 3.23355e-06 189.652 0.112799 189.765 0.112799L195.526 2.81991C195.187 2.70711 194.735 2.59432 194.396 2.59432C194.057 2.59432 193.606 2.70711 193.267 2.9327L167.061 15.1147C165.932 15.6787 165.141 16.4682 164.576 17.4834L158.702 14.6635Z" fill="#00847A"/>
<path d="M163.56 43.765C163.56 44.7802 164.011 45.5697 164.689 45.9081L159.041 43.201C158.251 42.8626 157.799 42.0731 157.799 41.0579V17.5963C157.799 16.5811 158.138 15.5659 158.702 14.6636L164.463 17.4835C163.898 18.3858 163.56 19.2882 163.56 20.3034V43.765Z" fill="#00847A"/>
<path opacity="0.3" d="M158.702 14.6635C159.267 13.7611 160.058 12.9716 161.074 12.4076L187.393 0.225596C187.732 0.112799 188.071 3.23355e-06 188.41 -0.112793C188.749 -0.112793 189.087 -0.112793 189.539 3.23355e-06C189.652 3.23355e-06 189.652 0.112799 189.765 0.112799L195.526 2.81991C195.187 2.70711 194.735 2.59432 194.396 2.59432C194.057 2.59432 193.606 2.70711 193.267 2.9327L167.061 15.1147C165.932 15.6787 165.141 16.4682 164.576 17.4834L158.702 14.6635Z" fill="black"/>
<path opacity="0.6" d="M163.56 43.765C163.56 44.7802 164.011 45.5697 164.689 45.9081L159.041 43.201C158.251 42.8626 157.799 42.0731 157.799 41.0579V17.5963C157.799 16.5811 158.138 15.5659 158.702 14.6636L164.463 17.4835C163.898 18.3858 163.56 19.2882 163.56 20.3034V43.765Z" fill="black"/>
<path d="M150.118 29.1017C149.892 29.1017 149.666 29.1017 149.44 28.9889C149.214 28.8761 148.988 28.6505 148.875 28.4249C148.762 28.1993 148.649 27.9737 148.762 27.7481C148.762 27.1842 148.988 26.5074 149.44 26.0562C149.779 25.4922 150.344 25.041 151.021 24.7026C151.247 24.5898 151.586 24.4771 151.925 24.4771C152.264 24.4771 152.603 24.477 152.829 24.5898C153.055 24.7026 153.281 24.9282 153.506 25.1538C153.619 25.3794 153.732 25.605 153.619 25.8306C153.619 26.3946 153.393 27.0714 152.942 27.5225C152.603 28.0865 152.038 28.5377 151.36 28.8761C150.908 28.9889 150.457 29.1017 150.118 29.1017ZM151.925 24.9282C151.699 24.9282 151.36 25.041 151.134 25.1538C150.57 25.4922 150.118 25.8306 149.779 26.2818C149.44 26.733 149.214 27.1842 149.214 27.7481C149.214 27.8609 149.214 28.0865 149.327 28.1993C149.44 28.3121 149.553 28.4249 149.666 28.5377C149.892 28.6505 150.005 28.6505 150.231 28.6505C150.457 28.6505 150.57 28.5377 150.796 28.4249C151.36 28.0865 151.812 27.7481 152.151 27.297C152.49 26.8458 152.716 26.3946 152.716 25.8306C152.716 25.7178 152.716 25.4922 152.603 25.3794C152.49 25.2666 152.377 25.1538 152.264 25.041C152.151 24.9282 152.038 24.9282 151.925 24.9282Z" fill="#00847A"/>
<path d="M181.745 20.5288C181.971 20.416 182.197 20.3032 182.536 20.3032C182.762 20.3032 183.101 20.3032 183.327 20.416L185.812 21.7695C185.925 21.8823 185.925 21.8823 186.038 21.9951C186.038 22.1079 186.038 22.2207 186.038 22.2207C186.038 22.4463 185.925 22.6719 185.699 22.8975C185.586 23.1231 185.36 23.2359 185.134 23.3487C185.021 23.3487 184.908 23.4615 184.795 23.4615C184.682 23.4615 184.569 23.4615 184.456 23.3487L183.101 22.6719V29.778C183.101 30.1164 182.988 30.4548 182.762 30.6804C182.536 31.0188 182.31 31.2444 181.858 31.3572C181.181 31.6956 180.616 31.47 180.616 30.7932V27.7477L179.486 28.3117V31.5828C179.486 31.9212 179.373 32.2596 179.147 32.4852C178.921 32.7107 178.696 33.0491 178.357 33.1619C177.679 33.5003 177.114 33.2747 177.114 32.598V25.4918L175.759 27.5221C175.646 27.7477 175.42 27.9733 175.194 28.0861C175.081 28.0861 174.968 28.1989 174.855 28.1989C174.742 28.1989 174.629 28.1989 174.516 28.1989C174.403 28.1989 174.29 28.0861 174.29 27.9733C174.29 27.8605 174.177 27.8605 174.177 27.7477C174.177 27.5221 174.29 27.2965 174.403 27.0709L176.888 23.4615C177.227 22.8975 177.792 22.4463 178.47 22.1079L181.745 20.5288ZM181.745 19.5136L178.47 20.9799C177.453 21.5439 176.662 22.2207 176.098 23.1231L173.613 26.7326C173.274 27.1837 173.048 27.7477 173.048 28.3117C173.048 28.5373 173.048 28.7629 173.161 28.8757C173.274 29.1013 173.5 29.2141 173.613 29.3269C173.838 29.4397 174.064 29.4397 174.29 29.3269C174.516 29.3269 174.742 29.2141 174.968 29.1013H175.081C175.42 28.9885 175.646 28.7629 175.872 28.5373V33.1619C175.872 34.4027 176.888 34.8539 178.244 34.2899C179.034 33.9515 179.599 33.3875 180.051 32.7107C180.277 32.8235 180.616 32.9363 180.955 32.9363C181.294 32.9363 181.519 32.8235 181.858 32.7107C182.536 32.3724 183.101 31.9212 183.553 31.3572C184.004 30.7932 184.23 30.1164 184.23 29.5525V24.9278C184.456 24.9278 184.795 24.815 185.021 24.7022H185.134C185.699 24.4766 186.151 24.0254 186.489 23.5743C186.828 23.1231 187.054 22.5591 187.167 21.9951C187.167 21.7695 187.167 21.5439 187.054 21.4311C186.941 21.2055 186.828 21.0927 186.602 20.9799L184.117 19.6264C183.779 19.5136 183.327 19.4008 182.875 19.4008C182.536 19.1752 182.084 19.288 181.745 19.5136Z" fill="#FAFAFA"/>
<path d="M180.164 15.3404C180.39 15.2276 180.503 15.1148 180.842 15.1148C181.068 15.1148 181.294 15.1148 181.519 15.2276C181.745 15.3404 181.858 15.4532 181.971 15.6788C182.084 15.9044 182.084 16.0172 182.084 16.2427C182.084 16.8067 181.858 17.2579 181.519 17.7091C181.181 18.1603 180.729 18.4987 180.164 18.8371C179.938 18.9499 179.825 19.0626 179.486 19.0626C179.26 19.0626 179.034 19.0626 178.808 18.9499C178.583 18.8371 178.47 18.7243 178.357 18.4987C178.244 18.3859 178.244 18.1603 178.244 17.9347C178.244 17.3707 178.47 16.9195 178.808 16.4683C179.147 15.9044 179.599 15.566 180.164 15.3404ZM180.164 14.2124C179.26 14.6636 178.583 15.2276 178.018 16.0172C177.453 16.8067 177.227 17.4835 177.114 18.3859C177.001 18.7243 177.114 18.9499 177.227 19.2882C177.34 19.5138 177.679 19.8522 178.018 19.965C178.357 20.0778 178.696 20.1906 179.147 20.1906C179.486 20.1906 179.938 20.0778 180.164 19.8522C181.068 19.401 181.745 18.8371 182.31 18.0475C182.875 17.3707 183.101 16.5811 183.214 15.6788C183.327 15.3404 183.214 15.1148 183.101 14.7764C182.988 14.5508 182.649 14.2124 182.31 14.0996C181.971 13.9868 181.632 13.874 181.181 13.874C180.729 13.874 180.39 14.0996 180.164 14.2124Z" fill="#FAFAFA"/>
<path d="M138.709 50.3073C138.596 50.3073 138.596 50.3073 138.483 50.1945C138.37 50.1945 138.37 50.0817 138.37 49.9689V34.8542C138.37 34.0646 138.596 33.3879 139.048 32.7111C139.5 32.0343 140.178 31.4703 140.968 31.1319L148.762 27.4097C148.875 27.4097 148.875 27.4097 148.988 27.4097C149.101 27.4097 149.101 27.5225 149.214 27.5225V27.6353V27.7481C149.214 27.7481 149.214 27.8609 149.101 27.8609C149.101 27.8609 148.988 27.8609 148.988 27.9736L141.194 31.6959C140.517 32.0343 139.952 32.4855 139.5 33.0495C139.048 33.6135 138.822 34.2902 138.822 34.967V50.0817C138.822 50.1945 138.822 50.1945 138.709 50.3073C138.822 50.3073 138.935 50.1945 138.709 50.3073Z" fill="#00847A"/>
<path d="M86.9757 11.3923L82.0057 13.6482V12.2947C82.0057 12.1819 82.0057 12.0691 82.0057 11.9563C82.0057 11.8435 82.0057 11.7307 82.0057 11.6179C81.7798 9.70038 80.0854 9.0236 77.9393 10.0388C76.9227 10.49 76.132 11.1667 75.4543 11.9563C75.0024 9.36199 72.4045 8.45962 69.2417 9.92597C65.7401 11.5051 62.9162 15.453 62.9162 18.6113V21.6568C62.9162 21.8824 62.8032 22.108 62.6903 22.3335C62.5773 22.5591 62.3514 22.6719 62.1255 22.7847L59.1887 24.1383C58.5109 24.4767 58.0591 24.8151 57.7202 25.379C57.3814 25.943 57.1555 26.507 57.1555 27.071C57.1555 27.2966 57.2684 27.5222 57.3814 27.7478C57.4943 27.9734 57.7203 28.0862 58.0591 28.3117C58.285 28.4245 58.6239 28.5373 58.9628 28.5373C59.3016 28.5373 59.5275 28.4245 59.8664 28.3117L86.9757 15.7914C87.6534 15.453 88.3312 15.0018 88.67 14.4378C89.1219 13.8738 89.2348 13.1971 89.2348 12.5203C89.2348 12.2947 89.1219 12.0691 89.0089 11.9563C88.896 11.7307 88.67 11.6179 88.4441 11.5051C88.2182 11.2795 87.9923 11.2795 87.6534 11.2795C87.4275 11.2795 87.2016 11.2795 86.9757 11.3923Z" fill="#E6E6E6"/>
<path d="M41.9065 16.1299L38.179 17.8218V16.8067C38.179 16.6939 38.179 16.6939 38.179 16.5811C38.179 16.4683 38.179 16.4683 38.179 16.3555C38.066 15.0019 36.7105 14.4379 35.1292 15.2275C34.4514 15.5659 33.7737 16.0171 33.3219 16.5811C32.983 14.6635 31.0628 13.9868 28.8037 15.1147C27.4482 15.7915 26.3186 16.8067 25.5279 17.9346C24.7373 19.0626 24.2854 20.3034 24.1725 21.6569V23.9128C24.1725 24.1384 24.0595 24.2512 23.9466 24.4768C23.8336 24.5896 23.7207 24.7024 23.4947 24.8152L21.3486 25.8304C20.8968 26.056 20.4449 26.3944 20.219 26.7327C19.9931 27.0711 19.7672 27.5223 19.7672 27.9735C19.7672 28.1991 19.8802 28.3119 19.9931 28.5375C20.1061 28.6503 20.219 28.8759 20.4449 28.8759C20.6709 28.9887 20.8968 28.9887 21.1227 28.9887C21.3486 28.9887 21.5745 28.9887 21.8004 28.8759L41.7935 19.2882C42.3583 19.0626 42.8101 18.7242 43.036 18.273C43.3749 17.8218 43.4879 17.3707 43.4879 16.9195C43.4879 16.8067 43.4879 16.5811 43.3749 16.4683C43.262 16.3555 43.149 16.2427 42.9231 16.1299C42.6972 16.0171 42.5842 16.0171 42.3583 16.0171C42.2454 16.0171 42.0194 16.0171 41.9065 16.1299Z" fill="#E6E6E6"/>
<path d="M147.52 59.7818C143.679 57.5259 138.483 57.8643 132.61 61.2482C120.975 68.016 111.487 84.2586 111.487 97.6814C111.487 104.449 113.859 109.187 117.587 111.33L125.042 115.616C128.882 117.759 134.078 117.533 139.952 114.037C151.586 107.382 161.074 91.0264 161.074 77.6036C161.074 70.9487 158.702 66.2112 154.975 63.9553" fill="#00847A"/>
<path d="M140.065 65.6474C128.43 72.3024 119.055 86.0635 119.055 99.4862C119.055 112.909 128.43 120.918 140.065 114.15C151.699 107.382 161.187 91.1393 161.187 77.7166C161.187 64.2938 151.699 58.8796 140.065 65.6474Z" fill="#00847A"/>
<path opacity="0.4" d="M147.52 59.7819L154.975 64.0682C151.134 61.9251 145.938 62.1506 140.065 65.5345C132.497 69.9336 125.719 78.5061 122.105 87.5298L114.65 83.2435C118.377 74.107 125.042 65.6473 132.61 61.2483C138.37 57.8644 143.679 57.6388 147.52 59.7819Z" fill="white"/>
<path opacity="0.2" d="M124.929 115.503L117.813 111.329C113.972 109.186 111.713 104.449 111.713 97.6812L119.168 101.967C118.942 108.622 121.201 113.247 124.929 115.503Z" fill="black"/>
<path opacity="0.1" d="M114.537 83.2437L121.992 87.5299C120.072 92.0418 119.055 97.0048 118.942 101.968L111.487 97.6816C111.6 92.7185 112.617 87.8683 114.537 83.2437Z" fill="black"/>
<path d="M141.985 83.9204L153.619 89.7858V93.0569L146.616 89.5602L141.985 93.8465L137.354 91.4778L130.351 87.9811V84.71L137.354 88.2067L141.985 83.9204ZM141.985 90.5754L144.357 88.4323L141.985 87.3043L139.613 89.4474L141.985 90.5754Z" fill="#F2F2F2"/>
<path d="M142.098 77.3784L153.619 83.131V86.5149L141.985 80.6495L137.354 84.9358V81.6647L142.098 77.3784Z" fill="#F2F2F2"/>
<path d="M130.351 91.3652L141.985 97.1178L146.616 92.8316V96.2155L141.872 100.389L130.351 94.6363V91.3652Z" fill="#F2F2F2"/>
<rect x="130" y="17" width="0.5" height="33" fill="#00847A"/>
<circle cx="130.25" cy="14" r="2.75" fill="#F5F8F7" stroke="#00847A" stroke-width="0.5"/>
</g>
<defs>
<clipPath id="clip0_216_105">
<rect width="279" height="238" fill="white"/>
</clipPath>
</defs>
</svg>
