<svg width="247" height="211" viewBox="0 0 247 211" fill="none" xmlns="http://www.w3.org/2000/svg">
<path d="M247 185.715H0V185.855H247V185.715Z" fill="#E0E0E0"/>
<path d="M220.121 189.971H206.996V190.111H220.121V189.971Z" fill="#E0E0E0"/>
<path d="M143.092 192.77H131.779V192.91H143.092V192.77Z" fill="#E0E0E0"/>
<path d="M119.78 192.356H97.3624V192.496H119.78V192.356Z" fill="#E0E0E0"/>
<path d="M89.9771 192.356H74.757V192.496H89.9771V192.356Z" fill="#E0E0E0"/>
<path d="M63.726 191.404H39.688V191.544H63.726V191.404Z" fill="#E0E0E0"/>
<path d="M202.209 189.971H159.414V190.111H202.209V189.971Z" fill="#E0E0E0"/>
<path d="M29.0176 191.404H25.5151V191.544H29.0176V191.404Z" fill="#E0E0E0"/>
<path d="M117.078 160.745H21.6915C20.9443 160.743 20.2281 160.406 19.7002 159.806C19.1722 159.207 18.8757 158.395 18.8757 157.548V5.57765C18.8822 4.73559 19.1816 3.93045 19.7088 3.33711C20.2361 2.74376 20.9485 2.41013 21.6915 2.40869H117.078C117.826 2.40869 118.544 2.74551 119.073 3.34506C119.602 3.9446 119.899 4.75776 119.899 5.60564V157.548C119.899 158.396 119.602 159.209 119.073 159.808C118.544 160.408 117.826 160.745 117.078 160.745ZM21.6915 2.52067C20.977 2.52215 20.2923 2.84488 19.7875 3.41801C19.2827 3.99115 18.9992 4.76786 18.9992 5.57765V157.548C18.9992 158.357 19.2827 159.134 19.7875 159.707C20.2923 160.28 20.977 160.603 21.6915 160.605H117.078C117.793 160.603 118.478 160.281 118.984 159.708C119.489 159.135 119.774 158.358 119.775 157.548V5.57765C119.774 4.76734 119.489 3.99065 118.984 3.41767C118.478 2.8447 117.793 2.52215 117.078 2.52067H21.6915Z" fill="#E0E0E0"/>
<path d="M223.935 160.745H128.544C127.796 160.743 127.079 160.406 126.551 159.807C126.022 159.207 125.724 158.395 125.723 157.548V5.57765C125.731 4.73508 126.031 3.92995 126.559 3.33676C127.087 2.74356 127.8 2.41012 128.544 2.40869H223.935C224.677 2.41161 225.389 2.74588 225.915 3.33907C226.441 3.93226 226.74 4.73656 226.746 5.57765V157.548C226.746 158.394 226.45 159.205 225.923 159.804C225.396 160.404 224.682 160.742 223.935 160.745ZM128.544 2.52067C127.829 2.52215 127.144 2.8447 126.638 3.41767C126.132 3.99065 125.848 4.76734 125.847 5.57765V157.548C125.848 158.358 126.132 159.135 126.638 159.708C127.144 160.281 127.829 160.603 128.544 160.605H223.935C224.65 160.603 225.335 160.281 225.841 159.708C226.347 159.135 226.631 158.358 226.632 157.548V5.57765C226.631 4.76734 226.347 3.99065 225.841 3.41767C225.335 2.8447 224.65 2.52215 223.935 2.52067H128.544Z" fill="#E0E0E0"/>
<path d="M30.9491 186.729H41.4417L41.4417 122.185H30.9491L30.9491 186.729Z" fill="#E0E0E0"/>
<path d="M32.9449 186.729H30.9541V180.307H35.0345L32.9449 186.729Z" fill="#EBEBEB"/>
<path d="M80.6603 118.848H70.1677V186.729H80.6603V118.848Z" fill="#E0E0E0"/>
<path d="M30.954 182.787H71.9066V118.848H30.954L30.954 182.787Z" fill="#EBEBEB"/>
<path d="M32.4954 149.384V174.758H50.7585V149.384H32.4954Z" fill="#E0E0E0"/>
<path d="M52.0972 149.379V174.753H70.3603V149.379H52.0972Z" fill="#E0E0E0"/>
<path d="M59.4233 151.182H63.0344C63.8114 151.182 64.5802 151.002 65.2938 150.654C66.0073 150.305 66.6506 149.795 67.184 149.155H55.2737C55.8071 149.795 56.4504 150.305 57.1639 150.654C57.8775 151.002 58.6463 151.182 59.4233 151.182Z" fill="#EBEBEB"/>
<path d="M39.6386 151.182H43.2498C44.0309 151.186 44.8045 151.008 45.5225 150.659C46.2405 150.311 46.8877 149.798 47.4241 149.155H35.489C36.0228 149.795 36.6661 150.304 37.3796 150.653C38.0931 151.001 38.8617 151.181 39.6386 151.182Z" fill="#EBEBEB"/>
<path d="M32.5002 120.836V146.21H50.7634V120.836H32.5002Z" fill="#E0E0E0"/>
<path d="M52.0973 120.836V146.21H70.3605V120.836H52.0973Z" fill="#E0E0E0"/>
<path d="M59.4233 122.633H63.0344C63.8111 122.634 64.5798 122.456 65.2934 122.108C66.0069 121.76 66.6503 121.251 67.184 120.612H55.2737C55.8074 121.251 56.4508 121.76 57.1643 122.108C57.8779 122.456 58.6466 122.634 59.4233 122.633Z" fill="#EBEBEB"/>
<path d="M39.6386 122.633H43.2498C44.0264 122.634 44.7951 122.456 45.5087 122.108C46.2223 121.76 46.8656 121.251 47.3994 120.612H35.489C36.0231 121.251 36.6665 121.76 37.38 122.107C38.0935 122.455 38.862 122.634 39.6386 122.633Z" fill="#EBEBEB"/>
<path d="M69.9109 186.729H71.9067V180.307H67.8213L69.9109 186.729Z" fill="#EBEBEB"/>
<path d="M132.54 53.5317H157.551V20.5544H132.54V53.5317Z" fill="#E0E0E0"/>
<path d="M129.67 53.5317L157.043 53.5317V20.5544L129.67 20.5544V53.5317Z" fill="#F5F5F5"/>
<path d="M154.75 50.9285V23.147H131.967V50.9285H154.75Z" fill="#FAFAFA"/>
<path d="M149.228 44.193V29.8823H137.49V44.193H149.228Z" fill="#F5F5F5"/>
<path d="M179.347 92.4888H217.143V13.0409H179.347V92.4888Z" fill="#E0E0E0"/>
<path d="M176.654 92.4888H215.883V13.0409H176.654V92.4888Z" fill="#EBEBEB"/>
<path d="M179.347 98.1436H217.143V92.4831H179.347V98.1436Z" fill="#E0E0E0"/>
<path d="M172.174 98.1436H211.402V92.4831H172.174V98.1436Z" fill="#EBEBEB"/>
<path d="M212.119 88.2224V17.3071L180.414 17.3071V88.2224H212.119Z" fill="#F5F5F5"/>
<path d="M206.438 88.2224L193.238 17.3071H187.004L200.208 88.2224H206.438Z" fill="#FAFAFA"/>
<path d="M210.38 64.1642C210.308 64.1642 210.239 64.1317 210.188 64.074C210.137 64.0162 210.108 63.9379 210.108 63.8562V20.0787C210.109 19.998 210.139 19.9211 210.189 19.8646C210.24 19.808 210.309 19.7764 210.38 19.7764C210.45 19.7764 210.518 19.8082 210.568 19.8649C210.618 19.9216 210.646 19.9985 210.646 20.0787V63.8562C210.647 63.9369 210.619 64.0144 210.569 64.072C210.519 64.1296 210.451 64.1627 210.38 64.1642Z" fill="#EBEBEB"/>
<path d="M198.865 88.2224L185.665 17.3071H183.234L196.439 88.2224H198.865Z" fill="#FAFAFA"/>
<path d="M180.893 88.2224V17.3071H180.414V88.2224H180.893Z" fill="#E0E0E0"/>
<path d="M175.765 22.7604H213.561L213.907 18.9644H176.111L175.765 22.7604Z" fill="#E0E0E0"/>
<path d="M175.765 25.5433H213.561L213.907 21.7417H176.111L175.765 25.5433Z" fill="#E0E0E0"/>
<path d="M175.765 28.8802H213.561L213.907 25.0786H176.111L175.765 28.8802Z" fill="#E0E0E0"/>
<path d="M175.765 32.5919H213.561L213.907 28.7959H176.111L175.765 32.5919Z" fill="#E0E0E0"/>
<path d="M175.765 37.0433H213.561L213.907 33.2417H176.111L175.765 37.0433Z" fill="#E0E0E0"/>
<path d="M175.765 42.0431H213.561L213.907 38.2471H176.111L175.765 42.0431Z" fill="#E0E0E0"/>
<path d="M194.745 109.907C194.745 111.587 193.702 112.785 195.199 112.785C196.696 112.785 200.139 111.603 200.139 109.907C200.139 109.09 199.853 108.307 199.343 107.73C198.834 107.152 198.143 106.828 197.422 106.828C196.702 106.828 196.01 107.152 195.501 107.73C194.991 108.307 194.705 109.09 194.705 109.907H194.745Z" fill="#E0E0E0"/>
<path d="M190.106 111.379C190.106 113.059 189.069 114.251 190.56 114.251C192.052 114.251 195.525 113.07 195.525 111.379C195.525 110.562 195.239 109.779 194.729 109.202C194.22 108.624 193.529 108.3 192.808 108.3C192.088 108.3 191.396 108.624 190.887 109.202C190.377 109.779 190.091 110.562 190.091 111.379H190.106Z" fill="#E0E0E0"/>
<path d="M185.67 110.467C185.67 112.146 184.628 113.339 186.124 113.339C187.621 113.339 191.064 112.157 191.064 110.467C191.064 109.65 190.778 108.867 190.269 108.289C189.759 107.712 189.068 107.387 188.347 107.387C187.627 107.387 186.936 107.712 186.426 108.289C185.917 108.867 185.63 109.65 185.63 110.467H185.67Z" fill="#E0E0E0"/>
<path d="M201.819 110.875C201.819 110.875 201.597 116.861 193.11 116.861C184.623 116.861 184.4 110.875 184.4 110.875H201.819Z" fill="#EBEBEB"/>
<path d="M101.873 185.71H105.721L105.721 116.861H101.873L101.873 185.71Z" fill="#E0E0E0"/>
<path d="M100.657 185.71H103.33L103.33 116.861H100.657L100.657 185.71Z" fill="#F0F0F0"/>
<path d="M179.737 116.866H99.8324V122.224H179.737V116.866Z" fill="#F0F0F0"/>
<path d="M181.461 185.715H185.309V122.224H181.461V185.715Z" fill="#E0E0E0"/>
<path d="M180.241 185.715H182.913V122.224H180.241V185.715Z" fill="#F0F0F0"/>
<path d="M205.815 185.715H209.663V122.224H205.815V185.715Z" fill="#E0E0E0"/>
<path d="M204.6 185.715H207.272V122.224H204.6V185.715Z" fill="#F0F0F0"/>
<path d="M126.232 185.715H130.08V122.224H126.232V185.715Z" fill="#E0E0E0"/>
<path d="M125.017 185.715H127.689V122.224H125.017V185.715Z" fill="#F0F0F0"/>
<path d="M179.732 122.225H209.659V116.866H179.732V122.225Z" fill="#E0E0E0"/>
<path d="M180.246 94.1797H148.126L143.468 115.674H175.587L180.246 94.1797Z" fill="#E0E0E0"/>
<path d="M175.587 115.674L175.459 116.866H143.339L143.468 115.674H175.587Z" fill="#E0E0E0"/>
<path d="M179.253 94.1797H147.138L142.479 115.674H174.599L179.253 94.1797Z" fill="#F0F0F0"/>
<path d="M173.923 114.694L178.151 95.1597H147.815L143.586 114.694H173.923Z" fill="#FAFAFA"/>
<path d="M166.231 115.674L166.103 116.866H130.732L130.861 115.674H166.231Z" fill="#F0F0F0"/>
<path d="M104.18 108.104C104.272 108.11 104.365 108.121 104.456 108.137V107.432C104.456 107.2 104.536 106.978 104.68 106.812C104.823 106.647 105.018 106.552 105.222 106.547H111.313C111.52 106.547 111.72 106.64 111.867 106.806C112.014 106.972 112.097 107.197 112.098 107.432V116.86H104.441V115.276C104.35 115.291 104.257 115.3 104.165 115.304C103.554 115.304 102.969 115.029 102.537 114.54C102.105 114.051 101.863 113.387 101.863 112.695V110.719C101.863 110.374 101.923 110.033 102.039 109.715C102.156 109.397 102.327 109.109 102.542 108.866C102.757 108.623 103.013 108.43 103.294 108.3C103.575 108.169 103.876 108.102 104.18 108.104ZM102.866 112.695C102.866 113.09 103.004 113.469 103.25 113.748C103.497 114.027 103.831 114.184 104.18 114.184C104.273 114.184 104.365 114.173 104.456 114.151V109.257C104.365 109.237 104.273 109.226 104.18 109.224C103.831 109.225 103.496 109.383 103.25 109.663C103.004 109.944 102.866 110.323 102.866 110.719V112.695Z" fill="#E0E0E0"/>
<path d="M137.292 185.716H138.364L141.417 168.65L141.956 165.66L145.285 147.067H158.08L164.996 185.699H166.063L159.009 146.339C158.986 146.208 158.925 146.089 158.835 146.003C158.746 145.916 158.633 145.867 158.515 145.863H144.861C144.741 145.861 144.626 145.909 144.535 145.996C144.444 146.084 144.384 146.205 144.367 146.339L141.437 162.671L140.899 165.655L137.292 185.716Z" fill="#F0F0F0"/>
<path d="M116.782 185.716H117.854L124.77 147.083H137.544L140.874 165.689L141.408 168.667L144.465 185.732H145.537L141.946 165.677L141.412 162.704L138.483 146.372C138.465 146.239 138.405 146.117 138.315 146.03C138.224 145.942 138.108 145.895 137.989 145.897H124.355C124.237 145.9 124.124 145.95 124.034 146.036C123.944 146.123 123.883 146.241 123.861 146.372L116.782 185.716Z" fill="#F0F0F0"/>
<path d="M148.274 146.473H124.799C122.649 146.468 120.586 145.51 119.051 143.803C117.516 142.097 116.63 139.778 116.584 137.341L115.71 96.9006C115.693 95.9971 115.836 95.0989 116.13 94.2587C116.424 93.4185 116.862 92.6532 117.42 92.0076C117.979 91.3621 118.645 90.8493 119.38 90.4993C120.115 90.1492 120.904 89.969 121.702 89.9692H136.418C137.891 89.968 139.313 90.5815 140.413 91.6926C141.513 92.8037 142.213 94.3347 142.381 95.9936L148.274 146.473Z" fill="#F0F0F0"/>
<path d="M135.475 141.373H158.451C159.303 141.373 160.121 141.757 160.725 142.44C161.328 143.124 161.667 144.051 161.667 145.017V145.141C161.667 145.493 161.543 145.83 161.324 146.079C161.104 146.328 160.806 146.468 160.496 146.468H135.475V141.373Z" fill="#F0F0F0"/>
<path d="M28.5976 92.4888H66.3936L66.3936 13.0409H28.5976L28.5976 92.4888Z" fill="#E0E0E0"/>
<path d="M25.9054 92.4888H65.1339L65.1339 13.0409H25.9054L25.9054 92.4888Z" fill="#EBEBEB"/>
<path d="M28.5976 98.1436H66.3936V92.4831H28.5976V98.1436Z" fill="#E0E0E0"/>
<path d="M21.4297 98.1436H60.6582V92.4831H21.4297V98.1436Z" fill="#EBEBEB"/>
<path d="M61.3745 88.2223L61.3745 17.3071L29.6696 17.3071L29.6696 88.2223H61.3745Z" fill="#F5F5F5"/>
<path d="M55.6935 88.2224L42.4889 17.3071H36.2546L49.4593 88.2224H55.6935Z" fill="#FAFAFA"/>
<path d="M59.6308 64.1642C59.5596 64.1627 59.4917 64.1296 59.4418 64.072C59.3919 64.0144 59.364 63.9369 59.364 63.8562V20.0787C59.364 19.9985 59.3921 19.9216 59.4421 19.8649C59.4922 19.8082 59.56 19.7764 59.6308 19.7764C59.702 19.7764 59.7704 19.808 59.8212 19.8646C59.872 19.9211 59.9012 19.998 59.9025 20.0787V63.8562C59.9025 63.9379 59.8738 64.0162 59.8229 64.074C59.7719 64.1317 59.7028 64.1642 59.6308 64.1642Z" fill="#EBEBEB"/>
<path d="M48.1206 88.2224L34.916 17.3071H32.4855L45.6901 88.2224H48.1206Z" fill="#FAFAFA"/>
<path d="M30.1488 88.2223L30.1488 17.3071H29.6696L29.6696 88.2223H30.1488Z" fill="#E0E0E0"/>
<path d="M25.0161 22.7604H62.817L63.1628 18.9644H25.3619L25.0161 22.7604Z" fill="#E0E0E0"/>
<path d="M25.0161 25.5433H62.817L63.1628 21.7417H25.3619L25.0161 25.5433Z" fill="#E0E0E0"/>
<path d="M25.0161 28.8802H62.817L63.1628 25.0786H25.3619L25.0161 28.8802Z" fill="#E0E0E0"/>
<path d="M25.0161 32.5919H62.817L63.1628 28.7959H25.3619L25.0161 32.5919Z" fill="#E0E0E0"/>
<path d="M25.0161 37.0433H62.817L63.1628 33.2417H25.3619L25.0161 37.0433Z" fill="#E0E0E0"/>
<path d="M25.0161 42.0431H62.817L63.1628 38.2471H25.3619L25.0161 42.0431Z" fill="#E0E0E0"/>
<path d="M147.691 86.9404H166.389V62.4734H147.691V86.9404Z" fill="#E0E0E0"/>
<path d="M145.562 86.9404H165.865V62.4734H145.562V86.9404Z" fill="#F5F5F5"/>
<path d="M164.166 85.0088V64.3994H147.261V85.0088H164.166Z" fill="#FAFAFA"/>
<path d="M160.056 75.0764V74.3318C160.057 73.6835 159.945 73.0415 159.726 72.4424C159.508 71.8433 159.187 71.2989 158.783 70.8403C158.379 70.3816 157.899 70.0178 157.371 69.7696C156.842 69.5213 156.276 69.3936 155.704 69.3936C154.548 69.3936 153.44 69.9138 152.623 70.8399C151.806 71.766 151.347 73.0221 151.347 74.3318V75.0764C151.347 76.3861 151.806 77.6421 152.623 78.5682C153.44 79.4943 154.548 80.0146 155.704 80.0146C156.276 80.0146 156.842 79.8868 157.371 79.6386C157.899 79.3904 158.379 79.0265 158.783 78.5679C159.187 78.1093 159.508 77.5648 159.726 76.9657C159.945 76.3666 160.057 75.7246 160.056 75.0764Z" fill="#F5F5F5"/>
<path d="M90.2835 76.8682H112.37V48.0732H90.2835V76.8682Z" fill="#E0E0E0"/>
<path d="M87.7789 76.8682H111.679V48.0732H87.7789V76.8682Z" fill="#F5F5F5"/>
<path d="M109.673 74.5946V50.3403H89.7796V74.5946H109.673Z" fill="#FAFAFA"/>
<path d="M99.7237 56.3369L105.168 67.0195H94.2848L99.7237 56.3369Z" fill="#F5F5F5"/>
<path d="M123.5 211C176.399 211 219.282 208.162 219.282 204.662C219.282 201.162 176.399 198.324 123.5 198.324C70.6013 198.324 27.7184 201.162 27.7184 204.662C27.7184 208.162 70.6013 211 123.5 211Z" fill="#F5F5F5"/>
<path d="M156.005 30.5484C156.43 30.5484 156.85 30.5484 157.27 30.61C158.994 26.8983 161.686 23.8796 164.979 21.9658C168.273 20.0519 172.007 19.3361 175.672 19.9159C179.338 20.4958 182.756 22.343 185.461 25.2057C188.166 28.0684 190.026 31.8072 190.788 35.9121C192.661 35.206 194.648 34.9695 196.61 35.2191C198.572 35.4687 200.462 36.1985 202.151 37.3578C203.839 38.5172 205.286 40.0785 206.39 41.9337C207.493 43.7889 208.228 45.8938 208.544 48.1027C208.859 50.3116 208.747 52.5717 208.216 54.7268C207.685 56.8819 206.747 58.8804 205.467 60.5841C204.187 62.2879 202.596 63.6561 200.803 64.5942C199.011 65.5323 197.06 66.0178 195.086 66.0172H156.005C153.927 66.0591 151.862 65.6313 149.931 64.7589C148.001 63.8864 146.243 62.5868 144.76 60.9359C143.277 59.2849 142.099 57.3157 141.295 55.1433C140.491 52.9708 140.077 50.6386 140.077 48.2828C140.077 45.927 140.491 43.5948 141.295 41.4224C142.099 39.2499 143.277 37.2808 144.76 35.6298C146.243 33.9789 148.001 32.6793 149.931 31.8068C151.862 30.9344 153.927 30.5066 156.005 30.5484Z" fill="#00847A"/>
<path opacity="0.3" d="M156.005 30.5484C156.43 30.5484 156.85 30.5484 157.27 30.61C158.994 26.8983 161.686 23.8796 164.979 21.9658C168.273 20.0519 172.007 19.3361 175.672 19.9159C179.338 20.4958 182.756 22.343 185.461 25.2057C188.166 28.0684 190.026 31.8072 190.788 35.9121C192.661 35.206 194.648 34.9695 196.61 35.2191C198.572 35.4687 200.462 36.1985 202.151 37.3578C203.839 38.5172 205.286 40.0785 206.39 41.9337C207.493 43.7889 208.228 45.8938 208.544 48.1027C208.859 50.3116 208.747 52.5717 208.216 54.7268C207.685 56.8819 206.747 58.8804 205.467 60.5841C204.187 62.2879 202.596 63.6561 200.803 64.5942C199.011 65.5323 197.06 66.0178 195.086 66.0172H156.005C153.927 66.0591 151.862 65.6313 149.931 64.7589C148.001 63.8864 146.243 62.5868 144.76 60.9359C143.277 59.2849 142.099 57.3157 141.295 55.1433C140.491 52.9708 140.077 50.6386 140.077 48.2828C140.077 45.927 140.491 43.5948 141.295 41.4224C142.099 39.2499 143.277 37.2808 144.76 35.6298C146.243 33.9789 148.001 32.6793 149.931 31.8068C151.862 30.9344 153.927 30.5066 156.005 30.5484Z" fill="black"/>
<path d="M158.574 45.4244L161.439 39.7919C161.517 39.6396 161.628 39.5132 161.763 39.4252C161.897 39.3373 162.05 39.291 162.205 39.291C162.36 39.291 162.513 39.3373 162.647 39.4252C162.781 39.5132 162.893 39.6396 162.971 39.7919L165.841 45.4244C165.918 45.5767 165.958 45.7492 165.958 45.9247C165.957 46.1002 165.916 46.2725 165.839 46.4245C165.761 46.5764 165.65 46.7026 165.516 46.7904C165.382 46.8782 165.23 46.9246 165.075 46.9249H163.771C164.055 49.3401 165.03 51.583 166.547 53.3095C168.064 55.0359 170.039 56.1505 172.169 56.4822C172.529 56.5329 172.861 56.7321 173.101 57.0417C173.34 57.3514 173.471 57.75 173.468 58.1618C173.466 58.4008 173.419 58.6366 173.33 58.8533C173.241 59.07 173.112 59.2627 172.952 59.4185C172.792 59.5743 172.605 59.6896 172.403 59.7568C172.2 59.8239 171.987 59.8414 171.779 59.8079C168.936 59.3729 166.306 57.8658 164.312 55.5297C162.318 53.1935 161.077 50.1643 160.787 46.9305H159.305C159.152 46.9241 159.004 46.8729 158.874 46.7821C158.744 46.6912 158.637 46.5638 158.563 46.4121C158.49 46.2604 158.452 46.0897 158.454 45.9166C158.456 45.7435 158.497 45.574 158.574 45.4244Z" fill="#FAFAFA"/>
<path d="M173.493 32.7992C173.491 32.5574 173.535 32.3179 173.622 32.0971C173.709 31.8763 173.837 31.6795 173.997 31.52C174.158 31.3605 174.347 31.2422 174.551 31.1731C174.756 31.104 174.971 31.0857 175.182 31.1196C178.024 31.5565 180.653 33.0641 182.647 35.3999C184.64 37.7357 185.883 40.7638 186.174 43.997H187.656C187.811 43.9967 187.964 44.043 188.099 44.1311C188.234 44.2192 188.346 44.346 188.423 44.4988C188.501 44.6516 188.542 44.8249 188.541 45.0012C188.541 45.1775 188.5 45.3506 188.422 45.5031L185.551 51.1019C185.474 51.2542 185.362 51.3807 185.228 51.4686C185.093 51.5566 184.941 51.6029 184.786 51.6029C184.631 51.6029 184.478 51.5566 184.344 51.4686C184.209 51.3807 184.098 51.2542 184.02 51.1019L181.155 45.5031C181.077 45.3506 181.035 45.1775 181.035 45.0012C181.035 44.8249 181.075 44.6516 181.153 44.4988C181.231 44.346 181.343 44.2192 181.477 44.1311C181.612 44.043 181.765 43.9967 181.921 43.997H183.22C182.936 41.5817 181.961 39.3388 180.444 37.6124C178.927 35.8859 176.952 34.7714 174.822 34.4397C174.462 34.3974 174.128 34.2072 173.883 33.905C173.638 33.6027 173.499 33.2094 173.493 32.7992Z" fill="#FAFAFA"/>
<path d="M124.483 200.385L127.852 199.326L126.024 190.368L122.65 191.432L124.483 200.385Z" fill="#FF8B7B"/>
<path d="M84.1924 200.261L87.6504 200.877L89.1768 191.936H85.6793L84.1924 200.261Z" fill="#FF8B7B"/>
<path d="M87.9567 200.469L84.0739 199.774C84.0055 199.761 83.9353 199.775 83.875 199.814C83.8147 199.853 83.7681 199.914 83.7429 199.987L82.5771 203.346C82.5444 203.428 82.5294 203.517 82.5333 203.606C82.5373 203.695 82.56 203.782 82.5997 203.86C82.6393 203.937 82.6948 204.002 82.7613 204.05C82.8278 204.098 82.9036 204.128 82.9821 204.136C84.3406 204.349 85.0125 204.377 86.7217 204.696C87.7739 204.886 88.7768 205.177 93.4154 205.177C94.853 205.177 95.0753 203.537 94.4775 203.386C91.7803 202.719 89.2164 201.84 88.4853 200.821C88.3534 200.634 88.1652 200.508 87.9567 200.469Z" fill="#263238"/>
<path d="M127.724 198.889L124.038 200.048C123.972 200.071 123.914 200.118 123.874 200.181C123.834 200.245 123.813 200.323 123.816 200.401L123.984 204.007C123.985 204.095 124.004 204.181 124.04 204.259C124.076 204.337 124.127 204.404 124.19 204.456C124.253 204.507 124.326 204.541 124.403 204.554C124.479 204.567 124.558 204.56 124.631 204.533C125.955 204.091 127.852 203.413 129.522 202.853C131.473 202.243 133.187 201.834 135.48 201.112C136.863 200.675 136.858 198.973 136.245 199.007C133.444 199.186 131.276 199.791 128.608 198.912C128.321 198.812 128.015 198.805 127.724 198.889Z" fill="#263238"/>
<path d="M126.024 190.374L126.968 194.987L123.594 196.045L122.65 191.432L126.024 190.374Z" fill="#EA7063"/>
<path d="M85.6794 191.936H89.1769L88.3668 196.672H84.8297L85.6794 191.936Z" fill="#EA7063"/>
<path d="M113.857 65.9837C113.857 65.9837 117.987 77.9596 114.065 100.26H95.342C95.2135 97.0014 97.0216 81.123 94.2502 65.7821C96.3186 65.3281 98.4111 65.0288 100.514 64.8863C103.163 64.7098 105.819 64.7098 108.468 64.8863C110.287 65.0926 112.089 65.4595 113.857 65.9837Z" fill="#00847A"/>
<path opacity="0.1" d="M113.857 65.9837C113.857 65.9837 117.987 77.9596 114.065 100.26H95.342C95.2135 97.0014 97.0216 81.123 94.2502 65.7821C96.3186 65.3281 98.4111 65.0288 100.514 64.8863C103.163 64.7098 105.819 64.7098 108.468 64.8863C110.287 65.0926 112.089 65.4595 113.857 65.9837Z" fill="black"/>
<path d="M123.663 87.0912C123.589 86.7769 123.493 86.4699 123.376 86.173L123.209 85.7083L122.878 84.7788L122.211 82.9088L120.867 79.1128C119.968 76.5933 119.039 74.0738 118.076 71.5991L112.973 74.0178C113.872 76.5709 114.83 79.0568 115.848 81.5763C116.342 82.8248 116.87 84.0622 117.404 85.3051C117.671 85.9266 117.938 86.5481 118.219 87.164L118.609 88.0318L118.501 88.0766C117.514 88.468 116.494 88.7402 115.458 88.8884C113.23 89.2579 110.839 89.4483 108.507 89.5883L108.265 92.6844C110.732 93.2526 113.242 93.5452 115.759 93.5579C117.132 93.5798 118.502 93.4144 119.839 93.0652C120.239 92.9507 120.63 92.8029 121.01 92.6229C121.489 92.396 121.938 92.0944 122.344 91.727C122.929 91.1936 123.37 90.4831 123.614 89.6779C123.849 88.839 123.867 87.9408 123.663 87.0912Z" fill="#FF8B7B"/>
<path d="M109.703 68.6992C108.527 72.2489 114.499 82.6964 114.499 82.6964L121.494 78.3909C120.443 75.1421 119.089 72.0301 117.453 69.1079C114.979 64.9256 110.997 64.8024 109.703 68.6992Z" fill="#00847A"/>
<path opacity="0.1" d="M109.703 68.6992C108.527 72.2489 114.499 82.6964 114.499 82.6964L121.494 78.3909C120.443 75.1421 119.089 72.0301 117.453 69.1079C114.979 64.9256 110.997 64.8024 109.703 68.6992Z" fill="black"/>
<path d="M102.777 87.4219L102.451 91.593L105.775 92.0913L106.334 87.5171L102.777 87.4219Z" fill="#FF8B7B"/>
<path d="M108.971 89.8292L106.333 87.5112L105.775 92.0855C105.775 92.0855 108.142 94.0227 109.772 92.2143L108.971 89.8292Z" fill="#FF8B7B"/>
<path d="M101.31 54.73C101.804 57.6358 102.298 62.9491 100.524 64.8863C100.524 64.8863 101.552 67.8257 106.309 67.8257C110.656 67.8257 108.477 64.8863 108.477 64.8863C105.622 64.1137 105.835 60.0153 106.501 57.0143L101.31 54.73Z" fill="#FF8B7B"/>
<path d="M101.764 58.7781L103.478 57.3672C103.572 57.6639 105.034 58.7781 104.812 59.3716C104.066 61.376 102.683 62.087 101.68 61.7343C101.788 60.7539 101.816 59.7643 101.764 58.7781Z" fill="#EA7063"/>
<path d="M101.082 48.6438L98.1479 46.4043C96.7647 47.7424 96.5226 51.3425 98.2812 53.6044C101.799 52.8598 101.082 48.6438 101.082 48.6438Z" fill="#263238"/>
<path d="M107.386 49.9991C107.386 54.159 107.603 56.5945 105.904 58.8621C103.315 62.2718 98.6913 60.7153 97.5748 56.6225C96.5868 52.9553 96.7054 46.7685 100.188 44.8649C100.954 44.4435 101.801 44.2501 102.651 44.303C103.501 44.3558 104.325 44.6531 105.045 45.1669C105.765 45.6806 106.358 46.3939 106.767 47.2393C107.177 48.0848 107.39 49.0346 107.386 49.9991Z" fill="#FF8B7B"/>
<path d="M108.087 47.3956L104.585 46.7573C103.829 48.6273 104.955 52.0091 107.391 53.2184C110.31 50.8725 108.087 47.3956 108.087 47.3956Z" fill="#263238"/>
<path d="M100.623 47.7986C99.1162 47.9834 93.9885 47.8266 96.577 41.931C96.577 42.642 97.1649 44.5792 98.6321 42.4909C99.8671 40.7272 102.614 43.1011 102.337 41.3711C102.337 41.3711 103.325 41.931 102.831 42.6252C102.337 43.3195 106.077 41.1751 108.186 42.5581C107.114 42.6812 106.995 44.3609 108.557 45.4919C110.039 46.5668 108.967 49.3327 107.075 48.812C105.183 48.2913 104.377 47.3339 100.623 47.7986Z" fill="#263238"/>
<path d="M109.07 53.2633C108.889 54.1564 108.407 54.9339 107.727 55.43C106.828 56.0795 106.091 55.2453 106.106 54.0919C106.106 53.0561 106.6 51.4717 107.618 51.2925C108.636 51.1133 109.288 52.1659 109.07 53.2633Z" fill="#FF8B7B"/>
<path d="M114.065 100.26C114.065 100.26 121.05 131.798 122.463 143.791C123.945 156.26 127.487 193.229 127.487 193.229L122.018 195.217C122.018 195.217 114.208 158.902 112.108 146.781C109.801 133.562 101.764 100.26 101.764 100.26H114.065Z" fill="#00847A"/>
<path opacity="0.6" d="M114.065 100.26C114.065 100.26 121.05 131.798 122.463 143.791C123.945 156.26 127.487 193.229 127.487 193.229L122.018 195.217C122.018 195.217 114.208 158.902 112.108 146.781C109.801 133.562 101.764 100.26 101.764 100.26H114.065Z" fill="#FAFAFA"/>
<path d="M121.741 195.654L127.877 193.476L127.793 190.895L121.094 193.369L121.741 195.654Z" fill="#00847A"/>
<path opacity="0.2" d="M121.741 195.654L127.877 193.476L127.793 190.895L121.094 193.369L121.741 195.654Z" fill="black"/>
<path d="M105.667 102.589L104.036 109.811C105.548 116.261 107.573 125.007 109.283 132.873C109.445 122.629 108.226 112.416 105.667 102.589Z" fill="#00847A"/>
<path opacity="0.4" d="M105.667 102.589L104.036 109.811C105.548 116.261 107.573 125.007 109.283 132.873C109.445 122.629 108.226 112.416 105.667 102.589Z" fill="#FAFAFA"/>
<path d="M107.43 100.26C107.43 100.26 105.839 132.672 103.661 144.02C101.27 156.456 89.908 195.754 89.908 195.754H83.486C83.486 195.754 91.8 157.458 93.1585 145.151C94.6405 131.793 95.3469 100.26 95.3469 100.26H107.43Z" fill="#00847A"/>
<path opacity="0.6" d="M107.43 100.26C107.43 100.26 105.839 132.672 103.661 144.02C101.27 156.456 89.908 195.754 89.908 195.754H83.486C83.486 195.754 91.8 157.458 93.1585 145.151C94.6405 131.793 95.3469 100.26 95.3469 100.26H107.43Z" fill="#FAFAFA"/>
<path d="M83.0216 195.866H90.3674L91.0392 193.632H83.0216V195.866Z" fill="#00847A"/>
<path opacity="0.2" d="M83.0216 195.866H90.3674L91.0392 193.632H83.0216V195.866Z" fill="black"/>
<path d="M86.0745 191.466C86.0667 191.464 86.0592 191.461 86.0524 191.456C86.0457 191.452 86.0398 191.446 86.0352 191.438C86.0306 191.431 86.0273 191.423 86.0256 191.414C86.0239 191.405 86.0237 191.396 86.0251 191.387C86.0795 191.018 93.8106 156.674 95.0307 145.594C96.3596 133.596 96.7746 104.874 96.8042 104.61C96.8066 104.593 96.8144 104.577 96.8262 104.566C96.838 104.555 96.853 104.549 96.8684 104.549C96.8767 104.549 96.8847 104.552 96.8921 104.556C96.8994 104.561 96.9058 104.567 96.9109 104.574C96.9161 104.582 96.9198 104.59 96.9218 104.599C96.9238 104.608 96.9242 104.618 96.9228 104.627C96.8931 104.89 96.4782 133.613 95.1493 145.611C93.9291 156.669 86.198 191.04 86.1437 191.41C86.1425 191.419 86.1397 191.427 86.1356 191.435C86.1314 191.442 86.126 191.449 86.1195 191.454C86.1131 191.459 86.1058 191.463 86.098 191.465C86.0903 191.467 86.0823 191.467 86.0745 191.466Z" fill="#00847A"/>
<path opacity="0.4" d="M86.0745 191.466C86.0667 191.464 86.0592 191.461 86.0524 191.456C86.0457 191.452 86.0398 191.446 86.0352 191.438C86.0306 191.431 86.0273 191.423 86.0256 191.414C86.0239 191.405 86.0237 191.396 86.0251 191.387C86.0795 191.018 93.8106 156.674 95.0307 145.594C96.3596 133.596 96.7746 104.874 96.8042 104.61C96.8066 104.593 96.8144 104.577 96.8262 104.566C96.838 104.555 96.853 104.549 96.8684 104.549C96.8767 104.549 96.8847 104.552 96.8921 104.556C96.8994 104.561 96.9058 104.567 96.9109 104.574C96.9161 104.582 96.9198 104.59 96.9218 104.599C96.9238 104.608 96.9242 104.618 96.9228 104.627C96.8931 104.89 96.4782 133.613 95.1493 145.611C93.9291 156.669 86.198 191.04 86.1437 191.41C86.1425 191.419 86.1397 191.427 86.1356 191.435C86.1314 191.442 86.126 191.449 86.1195 191.454C86.1131 191.459 86.1058 191.463 86.098 191.465C86.0903 191.467 86.0823 191.467 86.0745 191.466Z" fill="#FAFAFA"/>
<path d="M101.907 51.6002C101.907 51.9361 101.784 52.2217 101.591 52.2385C101.398 52.2553 101.221 51.9921 101.201 51.6506C101.181 51.3091 101.324 51.0291 101.517 51.0179C101.71 51.0067 101.887 51.2643 101.907 51.6002Z" fill="#263238"/>
<path d="M98.5431 51.8522C98.5431 52.1937 98.4196 52.4793 98.2269 52.4905C98.0343 52.5017 97.8564 52.2441 97.8367 51.9306C97.8169 51.6171 97.9602 51.3091 98.1528 51.2923C98.3455 51.2755 98.5233 51.5163 98.5431 51.8522Z" fill="#263238"/>
<path d="M99.6201 51.9419C99.3254 53 98.9049 54.0078 98.3702 54.9373C98.5831 55.0859 98.8221 55.18 99.0704 55.2129C99.3187 55.2457 99.5704 55.2167 99.8078 55.1276L99.6201 51.9419Z" fill="#FF5652"/>
<path d="M100.732 55.9954C100.709 55.997 100.686 55.9886 100.669 55.9719C100.651 55.9553 100.64 55.9316 100.638 55.9059C100.636 55.8924 100.637 55.8789 100.641 55.866C100.645 55.8531 100.651 55.8412 100.658 55.8312C100.666 55.8211 100.676 55.8131 100.687 55.8076C100.698 55.8022 100.71 55.7994 100.722 55.7995C101.092 55.7804 101.454 55.6625 101.776 55.4553C102.099 55.248 102.374 54.9574 102.579 54.6069C102.591 54.5842 102.609 54.5675 102.631 54.5602C102.653 54.5529 102.677 54.5556 102.698 54.5677C102.708 54.5736 102.717 54.5818 102.725 54.5919C102.732 54.602 102.738 54.6137 102.741 54.6263C102.744 54.6389 102.745 54.6522 102.744 54.6652C102.742 54.6783 102.738 54.6908 102.732 54.7021C102.515 55.0837 102.219 55.4004 101.871 55.6255C101.523 55.8506 101.132 55.9775 100.732 55.9954Z" fill="#263238"/>
<path d="M102.846 50.2959C102.819 50.2959 102.792 50.2894 102.767 50.2768C102.743 50.2643 102.721 50.246 102.703 50.2231C102.562 50.0343 102.384 49.8854 102.183 49.7882C101.982 49.691 101.764 49.6482 101.547 49.6632C101.524 49.668 101.5 49.6674 101.478 49.6614C101.455 49.6554 101.434 49.6441 101.415 49.6283C101.397 49.6126 101.381 49.5926 101.37 49.5697C101.358 49.5468 101.351 49.5215 101.349 49.4953C101.343 49.4435 101.356 49.3912 101.383 49.3494C101.411 49.3076 101.452 49.2796 101.497 49.2713C101.776 49.2462 102.057 49.2977 102.315 49.4215C102.573 49.5453 102.801 49.7377 102.979 49.9824C102.996 50.0006 103.009 50.0224 103.018 50.0464C103.027 50.0705 103.031 50.0963 103.031 50.1224C103.031 50.1484 103.027 50.1742 103.018 50.1983C103.009 50.2223 102.996 50.2441 102.979 50.2623C102.94 50.2911 102.892 50.3031 102.846 50.2959Z" fill="#263238"/>
<path d="M96.9525 50.6147C96.9264 50.6206 96.8995 50.6206 96.8735 50.6147C96.8317 50.5907 96.8 50.5491 96.7853 50.4988C96.7705 50.4485 96.7737 50.3936 96.7944 50.346C96.9097 50.0596 97.0838 49.8085 97.302 49.6137C97.5203 49.419 97.7764 49.2861 98.0492 49.2262C98.0719 49.2229 98.0949 49.2247 98.117 49.2315C98.1391 49.2383 98.1598 49.2499 98.1779 49.2658C98.1961 49.2817 98.2112 49.3014 98.2226 49.3239C98.234 49.3464 98.2414 49.3713 98.2443 49.397C98.2472 49.4227 98.2456 49.4489 98.2396 49.4739C98.2337 49.4989 98.2234 49.5224 98.2094 49.5429C98.1954 49.5635 98.178 49.5807 98.1581 49.5936C98.1382 49.6065 98.1163 49.6148 98.0936 49.6181C97.8782 49.6703 97.6766 49.7791 97.505 49.9356C97.3334 50.0922 97.1966 50.2922 97.1056 50.5196C97.0903 50.5498 97.0678 50.5747 97.0408 50.5915C97.0138 50.6083 96.9833 50.6163 96.9525 50.6147Z" fill="#263238"/>
<path d="M96.1126 72.3272C95.1642 75.3114 94.186 78.3068 93.203 81.2854C92.2199 84.264 91.227 87.2594 90.3526 90.126C89.582 92.8807 89.0188 96.0216 88.4556 99.0842C87.8925 102.147 87.3293 105.321 86.7415 108.434L84.0096 108.132C84.0096 104.885 84.0887 101.665 84.306 98.4235C84.4246 96.8111 84.5432 95.1874 84.7358 93.5525C84.9124 91.8683 85.1746 90.1971 85.5213 88.5472C85.8868 86.8955 86.2919 85.3446 86.7168 83.7937C87.1416 82.2428 87.5763 80.7087 88.0308 79.1802C88.9398 76.1233 89.8981 73.1111 90.9306 70.1045L96.1126 72.3272Z" fill="#FF8B7B"/>
<path d="M94.2601 65.7823C90.9503 66.3422 87.1564 79.326 87.1564 79.326L94.1119 83.8051C94.1119 83.8051 97.1698 77.6463 98.6814 73.0328C100.282 68.1898 97.812 65.1944 94.2601 65.7823Z" fill="#00847A"/>
<path opacity="0.1" d="M94.2601 65.7823C90.9503 66.3422 87.1564 79.326 87.1564 79.326L94.1119 83.8051C94.1119 83.8051 97.1698 77.6463 98.6814 73.0328C100.282 68.1898 97.812 65.1944 94.2601 65.7823Z" fill="black"/>
<path d="M89.004 201.358C89.2362 201.42 89.4801 201.391 89.6956 201.274C89.7665 201.227 89.8258 201.16 89.8681 201.08C89.9104 201 89.9343 200.909 89.9376 200.815C89.9446 200.762 89.9386 200.707 89.9204 200.656C89.9021 200.606 89.8722 200.562 89.8339 200.53C89.4832 200.239 88.258 200.815 88.1197 200.883C88.1057 200.89 88.0937 200.902 88.0851 200.917C88.0764 200.932 88.0713 200.949 88.0703 200.967C88.0704 200.985 88.0751 201.003 88.0838 201.019C88.0925 201.035 88.105 201.048 88.1197 201.056C88.4037 201.194 88.7002 201.295 89.004 201.358ZM89.6314 200.636C89.6684 200.642 89.7039 200.658 89.7351 200.681C89.7351 200.681 89.7746 200.726 89.7697 200.799C89.7691 200.863 89.7543 200.925 89.7267 200.981C89.6991 201.037 89.6595 201.084 89.6116 201.118C89.198 201.248 88.7561 201.194 88.3766 200.967C88.7725 200.767 89.1984 200.655 89.6314 200.636Z" fill="#00847A"/>
<path d="M88.1395 201.062H88.1791C88.5693 200.905 89.3795 200.172 89.3646 199.724C89.363 199.653 89.3393 199.584 89.2978 199.531C89.2562 199.478 89.1994 199.443 89.1374 199.433C89.0772 199.412 89.014 199.407 88.9518 199.417C88.8897 199.426 88.83 199.451 88.7768 199.489C88.3223 199.791 88.0803 200.905 88.0704 200.95C88.0681 200.967 88.0692 200.984 88.0734 201C88.0777 201.017 88.0851 201.032 88.0951 201.045L88.1395 201.062ZM89.0584 199.6H89.093C89.1967 199.634 89.2016 199.696 89.2016 199.718C89.2016 199.981 88.678 200.552 88.2778 200.793C88.367 200.352 88.5699 199.95 88.8608 199.64C88.8898 199.619 88.9222 199.604 88.9561 199.598C88.99 199.591 89.0248 199.592 89.0584 199.6Z" fill="#00847A"/>
<path d="M129.29 199.113C129.585 199.053 129.853 198.882 130.05 198.626C130.092 198.554 130.118 198.471 130.124 198.386C130.131 198.3 130.12 198.213 130.09 198.134C130.076 198.085 130.051 198.042 130.019 198.008C129.986 197.974 129.946 197.949 129.902 197.938C129.408 197.803 128.262 199.013 128.134 199.147C128.124 199.162 128.118 199.181 128.118 199.2C128.118 199.219 128.124 199.238 128.134 199.253C128.139 199.272 128.15 199.288 128.164 199.299C128.178 199.31 128.195 199.316 128.213 199.315C128.576 199.284 128.937 199.216 129.29 199.113ZM129.705 198.134C129.756 198.118 129.811 198.118 129.863 198.134C129.88 198.139 129.896 198.15 129.909 198.165C129.922 198.179 129.932 198.198 129.937 198.218C129.959 198.267 129.97 198.322 129.97 198.377C129.97 198.433 129.959 198.487 129.937 198.537C129.779 198.811 129.23 199.024 128.455 199.097C128.821 198.699 129.244 198.373 129.705 198.134Z" fill="#00847A"/>
<path d="M128.208 199.31H128.242C128.598 198.974 129.201 197.893 129.033 197.479C128.993 197.384 128.899 197.277 128.677 197.322C128.595 197.335 128.517 197.368 128.447 197.418C128.377 197.468 128.318 197.535 128.272 197.613C128.066 198.127 128.007 198.7 128.104 199.254C128.114 199.285 128.133 199.311 128.158 199.326L128.208 199.31ZM128.652 197.501H128.702C128.85 197.473 128.875 197.535 128.885 197.552C128.983 197.804 128.593 198.621 128.247 199.035C128.179 198.589 128.234 198.129 128.405 197.72C128.462 197.616 128.55 197.538 128.652 197.501Z" fill="#00847A"/>
<path d="M86.8551 107.986L86.1832 111.027L83.1896 108.972C83.1896 108.972 83.6243 105.702 85.9066 105.646L86.8551 107.986Z" fill="#FF8B7B"/>
<path d="M83.8713 112.482L81.6483 111.01L83.1896 108.994L86.1832 111.043L83.8713 112.482Z" fill="#FF8B7B"/>
<path d="M133.257 93.8324C133.06 93.8324 132.871 93.744 132.733 93.5865C132.594 93.429 132.516 93.2153 132.516 92.9926V89.6333C132.516 89.4106 132.594 89.1969 132.733 89.0394C132.871 88.8819 133.06 88.7935 133.257 88.7935C133.453 88.7935 133.642 88.8819 133.78 89.0394C133.919 89.1969 133.998 89.4106 133.998 89.6333V92.9926C133.998 93.2153 133.919 93.429 133.78 93.5865C133.642 93.744 133.453 93.8324 133.257 93.8324Z" fill="#00847A"/>
<path d="M133.257 82.674C133.06 82.674 132.872 82.5855 132.733 82.428C132.594 82.2705 132.516 82.0569 132.516 81.8342V75.1491C132.516 74.9264 132.594 74.7128 132.733 74.5553C132.872 74.3978 133.06 74.3093 133.257 74.3093C133.453 74.3093 133.642 74.3978 133.781 74.5553C133.919 74.7128 133.998 74.9264 133.998 75.1491V81.8342C133.998 81.9444 133.978 82.0536 133.941 82.1555C133.904 82.2574 133.849 82.35 133.781 82.428C133.712 82.506 133.63 82.5678 133.54 82.6101C133.45 82.6523 133.354 82.674 133.257 82.674ZM133.257 68.1841C133.06 68.1841 132.872 68.0956 132.733 67.9381C132.594 67.7806 132.516 67.567 132.516 67.3443V60.6368C132.516 60.4141 132.594 60.2005 132.733 60.043C132.872 59.8855 133.06 59.797 133.257 59.797C133.453 59.797 133.642 59.8855 133.781 60.043C133.919 60.2005 133.998 60.4141 133.998 60.6368V67.3555C133.995 67.5763 133.916 67.787 133.777 67.9421C133.638 68.0972 133.451 68.1841 133.257 68.1841ZM73.2849 66.4541C73.0884 66.4541 72.8999 66.3656 72.761 66.2081C72.622 66.0506 72.5439 65.837 72.5439 65.6142V58.9236C72.5439 58.7009 72.622 58.4872 72.761 58.3297C72.8999 58.1722 73.0884 58.0838 73.2849 58.0838C73.4815 58.0838 73.6699 58.1722 73.8089 58.3297C73.9479 58.4872 74.0259 58.7009 74.0259 58.9236V65.6142C74.0259 65.837 73.9479 66.0506 73.8089 66.2081C73.6699 66.3656 73.4815 66.4541 73.2849 66.4541ZM133.257 53.6943C133.06 53.6943 132.872 53.6058 132.733 53.4483C132.594 53.2908 132.516 53.0772 132.516 52.8544V46.1694C132.516 45.9466 132.594 45.733 132.733 45.5755C132.872 45.418 133.06 45.3296 133.257 45.3296C133.453 45.3296 133.642 45.418 133.781 45.5755C133.919 45.733 133.998 45.9466 133.998 46.1694V52.8544C133.998 53.0772 133.919 53.2908 133.781 53.4483C133.642 53.6058 133.453 53.6943 133.257 53.6943ZM73.2849 51.9642C73.0884 51.9642 72.8999 51.8757 72.761 51.7182C72.622 51.5607 72.5439 51.3471 72.5439 51.1244V44.4337C72.5439 44.211 72.622 43.9974 72.761 43.8399C72.8999 43.6824 73.0884 43.5939 73.2849 43.5939C73.4815 43.5939 73.6699 43.6824 73.8089 43.8399C73.9479 43.9974 74.0259 44.211 74.0259 44.4337V51.1188C74.0266 51.2295 74.0079 51.3394 73.971 51.4419C73.934 51.5444 73.8795 51.6377 73.8107 51.7162C73.7418 51.7948 73.6599 51.8572 73.5697 51.8997C73.4794 51.9423 73.3827 51.9642 73.2849 51.9642ZM132.837 39.2324C132.662 39.2323 132.493 39.1619 132.36 39.0337C132.227 38.9055 132.139 38.7278 132.11 38.5325C131.788 36.3878 131.282 34.2838 130.599 32.2506C130.538 32.0451 130.549 31.8209 130.631 31.6248C130.713 31.4288 130.858 31.2761 131.037 31.1987C131.215 31.1213 131.414 31.1252 131.59 31.2096C131.766 31.294 131.906 31.4524 131.982 31.6515C132.701 33.7834 133.232 35.9908 133.568 38.2414C133.601 38.4604 133.556 38.6852 133.443 38.8667C133.33 39.0483 133.158 39.1717 132.965 39.21L132.837 39.2324ZM74.0012 37.5527C73.947 37.5582 73.8925 37.5582 73.8382 37.5527C73.7432 37.5289 73.6532 37.484 73.5734 37.4207C73.4937 37.3574 73.4257 37.277 73.3734 37.1839C73.3211 37.0908 73.2855 36.987 73.2686 36.8783C73.2517 36.7696 73.2539 36.6583 73.2751 36.5505C73.7126 34.3183 74.3447 32.1408 75.1621 30.0503C75.2006 29.9471 75.2571 29.8539 75.3282 29.7762C75.3993 29.6985 75.4836 29.6379 75.5759 29.5982C75.6682 29.5584 75.7667 29.5403 75.8654 29.5448C75.9641 29.5494 76.061 29.5766 76.1501 29.6247C76.2407 29.669 76.3225 29.7334 76.3908 29.8139C76.4591 29.8945 76.5125 29.9897 76.5479 30.094C76.5834 30.1983 76.6001 30.3096 76.5971 30.4213C76.5941 30.533 76.5715 30.6429 76.5305 30.7445C75.7552 32.7254 75.1545 34.7884 74.7373 36.9033C74.6952 37.0871 74.5996 37.2495 74.4661 37.3643C74.3325 37.4791 74.1688 37.5395 74.0012 37.5359V37.5527ZM128.114 25.9071C127.993 25.9073 127.874 25.8737 127.767 25.8093C127.66 25.7448 127.569 25.6515 127.501 25.5376C126.426 23.7346 125.195 22.0578 123.826 20.5322C123.686 20.3755 123.606 20.1622 123.605 19.939C123.604 19.7159 123.68 19.5013 123.819 19.3424C123.957 19.1835 124.145 19.0934 124.342 19.0918C124.539 19.0902 124.728 19.1774 124.868 19.334C126.303 20.9417 127.595 22.7044 128.727 24.597C128.782 24.6879 128.82 24.7904 128.84 24.8983C128.86 25.0063 128.861 25.1177 128.842 25.226C128.824 25.3343 128.787 25.4374 128.733 25.5293C128.679 25.6212 128.61 25.7001 128.529 25.7615C128.406 25.852 128.261 25.8969 128.114 25.8903V25.9071ZM79.3167 24.5018C79.1791 24.5018 79.0442 24.4583 78.9271 24.3763C78.8101 24.2944 78.7155 24.177 78.6539 24.0375C78.5924 23.898 78.5663 23.7419 78.5787 23.5865C78.591 23.4312 78.6413 23.2828 78.7239 23.158C79.9385 21.3307 81.3085 19.6429 82.8142 18.1191C82.8854 18.0383 82.9704 17.9748 83.0639 17.9325C83.1575 17.8902 83.2577 17.87 83.3584 17.873C83.4591 17.8761 83.5582 17.9024 83.6496 17.9504C83.741 17.9983 83.8229 18.0669 83.8901 18.1518C83.9574 18.2368 84.0086 18.3365 84.0408 18.4447C84.0729 18.5529 84.0852 18.6674 84.077 18.7812C84.0688 18.895 84.0402 19.0056 83.9929 19.1065C83.9457 19.2073 83.8808 19.2962 83.8022 19.3676C82.37 20.8176 81.0662 22.4228 79.9095 24.1602C79.8392 24.2622 79.7492 24.3445 79.6464 24.4008C79.5436 24.4571 79.4308 24.4859 79.3167 24.485V24.5018ZM118.945 15.9691C118.809 15.9701 118.676 15.9274 118.56 15.8459C116.925 14.7047 115.194 13.75 113.393 12.9961C113.292 12.9687 113.197 12.9175 113.114 12.8458C113.032 12.7741 112.963 12.6835 112.914 12.5799C112.864 12.4763 112.834 12.362 112.826 12.2444C112.818 12.1269 112.832 12.0087 112.867 11.8976C112.902 11.7866 112.957 11.6851 113.028 11.5997C113.1 11.5144 113.187 11.4471 113.283 11.4023C113.38 11.3576 113.483 11.3362 113.587 11.3398C113.691 11.3433 113.793 11.3716 113.887 11.4228C115.781 12.2141 117.601 13.2155 119.321 14.4126C119.459 14.5083 119.566 14.6526 119.625 14.8234C119.684 14.9943 119.692 15.1824 119.647 15.3589C119.603 15.5353 119.509 15.6905 119.38 15.8008C119.25 15.911 119.092 15.9701 118.931 15.9691H118.945ZM88.92 15.0845C88.7548 15.0854 88.594 15.0237 88.4632 14.9092C88.3325 14.7947 88.2392 14.6339 88.1983 14.4524C88.1574 14.2709 88.1713 14.0792 88.2376 13.9076C88.3039 13.7361 88.4189 13.5946 88.5644 13.5056C90.335 12.4108 92.1965 11.5162 94.1219 10.8349C94.3055 10.7828 94.4998 10.8123 94.6649 10.9173C94.83 11.0224 94.9533 11.1951 95.0095 11.4C95.0658 11.6049 95.0507 11.8265 94.9674 12.0191C94.8841 12.2118 94.7389 12.3611 94.5615 12.4362C92.7304 13.0852 90.9599 13.9366 89.2757 14.9781C89.1673 15.0478 89.0447 15.0845 88.92 15.0845ZM106.976 11.1989H106.887C104.981 10.9348 103.057 10.8805 101.142 11.0365C100.945 11.0528 100.751 10.98 100.602 10.8341C100.453 10.6881 100.361 10.481 100.346 10.2583C100.332 10.0355 100.396 9.81543 100.525 9.64638C100.654 9.47733 100.836 9.37318 101.033 9.35685C103.044 9.19412 105.063 9.25037 107.065 9.52481C107.261 9.53818 107.445 9.63948 107.576 9.80643C107.706 9.97337 107.773 10.1923 107.761 10.415C107.749 10.6378 107.66 10.8461 107.513 10.9941C107.365 11.1422 107.172 11.2178 106.976 11.2045V11.1989Z" fill="#00847A"/>
<path d="M73.2849 77.6796C73.0884 77.6796 72.8999 77.5911 72.761 77.4336C72.622 77.2761 72.5439 77.0625 72.5439 76.8398V73.4805C72.5439 73.2577 72.622 73.0441 72.761 72.8866C72.8999 72.7291 73.0884 72.6406 73.2849 72.6406C73.4815 72.6406 73.6699 72.7291 73.8089 72.8866C73.9479 73.0441 74.0259 73.2577 74.0259 73.4805V76.8398C74.0259 77.0625 73.9479 77.2761 73.8089 77.4336C73.6699 77.5911 73.4815 77.6796 73.2849 77.6796Z" fill="#00847A"/>
<g opacity="0.6">
<path opacity="0.6" d="M133.257 93.8324C133.06 93.8324 132.871 93.744 132.733 93.5865C132.594 93.429 132.516 93.2153 132.516 92.9926V89.6333C132.516 89.4106 132.594 89.1969 132.733 89.0394C132.871 88.8819 133.06 88.7935 133.257 88.7935C133.453 88.7935 133.642 88.8819 133.78 89.0394C133.919 89.1969 133.998 89.4106 133.998 89.6333V92.9926C133.998 93.2153 133.919 93.429 133.78 93.5865C133.642 93.744 133.453 93.8324 133.257 93.8324Z" fill="#FAFAFA"/>
<path opacity="0.6" d="M133.257 82.674C133.06 82.674 132.872 82.5855 132.733 82.428C132.594 82.2705 132.516 82.0569 132.516 81.8342V75.1491C132.516 74.9264 132.594 74.7128 132.733 74.5553C132.872 74.3978 133.06 74.3093 133.257 74.3093C133.453 74.3093 133.642 74.3978 133.781 74.5553C133.919 74.7128 133.998 74.9264 133.998 75.1491V81.8342C133.998 81.9444 133.978 82.0536 133.941 82.1555C133.904 82.2574 133.849 82.35 133.781 82.428C133.712 82.506 133.63 82.5678 133.54 82.6101C133.45 82.6523 133.354 82.674 133.257 82.674ZM133.257 68.1841C133.06 68.1841 132.872 68.0956 132.733 67.9381C132.594 67.7806 132.516 67.567 132.516 67.3443V60.6368C132.516 60.4141 132.594 60.2005 132.733 60.043C132.872 59.8855 133.06 59.797 133.257 59.797C133.453 59.797 133.642 59.8855 133.781 60.043C133.919 60.2005 133.998 60.4141 133.998 60.6368V67.3555C133.995 67.5763 133.916 67.787 133.777 67.9421C133.638 68.0972 133.451 68.1841 133.257 68.1841ZM73.2849 66.4541C73.0884 66.4541 72.8999 66.3656 72.761 66.2081C72.622 66.0506 72.5439 65.837 72.5439 65.6142V58.9236C72.5439 58.7009 72.622 58.4872 72.761 58.3297C72.8999 58.1722 73.0884 58.0838 73.2849 58.0838C73.4815 58.0838 73.6699 58.1722 73.8089 58.3297C73.9479 58.4872 74.0259 58.7009 74.0259 58.9236V65.6142C74.0259 65.837 73.9479 66.0506 73.8089 66.2081C73.6699 66.3656 73.4815 66.4541 73.2849 66.4541ZM133.257 53.6943C133.06 53.6943 132.872 53.6058 132.733 53.4483C132.594 53.2908 132.516 53.0772 132.516 52.8544V46.1694C132.516 45.9466 132.594 45.733 132.733 45.5755C132.872 45.418 133.06 45.3296 133.257 45.3296C133.453 45.3296 133.642 45.418 133.781 45.5755C133.919 45.733 133.998 45.9466 133.998 46.1694V52.8544C133.998 53.0772 133.919 53.2908 133.781 53.4483C133.642 53.6058 133.453 53.6943 133.257 53.6943ZM73.2849 51.9642C73.0884 51.9642 72.8999 51.8757 72.761 51.7182C72.622 51.5607 72.5439 51.3471 72.5439 51.1244V44.4337C72.5439 44.211 72.622 43.9974 72.761 43.8399C72.8999 43.6824 73.0884 43.5939 73.2849 43.5939C73.4815 43.5939 73.6699 43.6824 73.8089 43.8399C73.9479 43.9974 74.0259 44.211 74.0259 44.4337V51.1188C74.0266 51.2295 74.0079 51.3394 73.971 51.4419C73.934 51.5444 73.8795 51.6377 73.8107 51.7162C73.7418 51.7948 73.6599 51.8572 73.5697 51.8997C73.4794 51.9423 73.3827 51.9642 73.2849 51.9642ZM132.837 39.2324C132.662 39.2323 132.493 39.1619 132.36 39.0337C132.227 38.9055 132.139 38.7278 132.11 38.5325C131.788 36.3878 131.282 34.2838 130.599 32.2506C130.538 32.0451 130.549 31.8209 130.631 31.6248C130.713 31.4288 130.858 31.2761 131.037 31.1987C131.215 31.1213 131.414 31.1252 131.59 31.2096C131.766 31.294 131.906 31.4524 131.982 31.6515C132.701 33.7834 133.232 35.9908 133.568 38.2414C133.601 38.4604 133.556 38.6852 133.443 38.8667C133.33 39.0483 133.158 39.1717 132.965 39.21L132.837 39.2324ZM74.0012 37.5527C73.947 37.5582 73.8925 37.5582 73.8382 37.5527C73.7432 37.5289 73.6532 37.484 73.5734 37.4207C73.4937 37.3574 73.4257 37.277 73.3734 37.1839C73.3211 37.0908 73.2855 36.987 73.2686 36.8783C73.2517 36.7696 73.2539 36.6583 73.2751 36.5505C73.7126 34.3183 74.3447 32.1408 75.1621 30.0503C75.2006 29.9471 75.2571 29.8539 75.3282 29.7762C75.3993 29.6985 75.4836 29.6379 75.5759 29.5982C75.6682 29.5584 75.7667 29.5403 75.8654 29.5448C75.9641 29.5494 76.061 29.5766 76.1501 29.6247C76.2407 29.669 76.3225 29.7334 76.3908 29.8139C76.4591 29.8945 76.5125 29.9897 76.5479 30.094C76.5834 30.1983 76.6001 30.3096 76.5971 30.4213C76.5941 30.533 76.5715 30.6429 76.5305 30.7445C75.7552 32.7254 75.1545 34.7884 74.7373 36.9033C74.6952 37.0871 74.5996 37.2495 74.4661 37.3643C74.3325 37.4791 74.1688 37.5395 74.0012 37.5359V37.5527ZM128.114 25.9071C127.993 25.9073 127.874 25.8737 127.767 25.8093C127.66 25.7448 127.569 25.6515 127.501 25.5376C126.426 23.7346 125.195 22.0578 123.826 20.5322C123.686 20.3755 123.606 20.1622 123.605 19.939C123.604 19.7159 123.68 19.5013 123.819 19.3424C123.957 19.1835 124.145 19.0934 124.342 19.0918C124.539 19.0902 124.728 19.1774 124.868 19.334C126.303 20.9417 127.595 22.7044 128.727 24.597C128.782 24.6879 128.82 24.7904 128.84 24.8983C128.86 25.0063 128.861 25.1177 128.842 25.226C128.824 25.3343 128.787 25.4374 128.733 25.5293C128.679 25.6212 128.61 25.7001 128.529 25.7615C128.406 25.852 128.261 25.8969 128.114 25.8903V25.9071ZM79.3167 24.5018C79.1791 24.5018 79.0442 24.4583 78.9271 24.3763C78.8101 24.2944 78.7155 24.177 78.6539 24.0375C78.5924 23.898 78.5663 23.7419 78.5787 23.5865C78.591 23.4312 78.6413 23.2828 78.7239 23.158C79.9385 21.3307 81.3085 19.6429 82.8142 18.1191C82.8854 18.0383 82.9704 17.9748 83.0639 17.9325C83.1575 17.8902 83.2577 17.87 83.3584 17.873C83.4591 17.8761 83.5582 17.9024 83.6496 17.9504C83.741 17.9983 83.8229 18.0669 83.8901 18.1518C83.9574 18.2368 84.0086 18.3365 84.0408 18.4447C84.0729 18.5529 84.0852 18.6674 84.077 18.7812C84.0688 18.895 84.0402 19.0056 83.9929 19.1065C83.9457 19.2073 83.8808 19.2962 83.8022 19.3676C82.37 20.8176 81.0662 22.4228 79.9095 24.1602C79.8392 24.2622 79.7492 24.3445 79.6464 24.4008C79.5436 24.4571 79.4308 24.4859 79.3167 24.485V24.5018ZM118.945 15.9691C118.809 15.9701 118.676 15.9274 118.56 15.8459C116.925 14.7047 115.194 13.75 113.393 12.9961C113.292 12.9687 113.197 12.9175 113.114 12.8458C113.032 12.7741 112.963 12.6835 112.914 12.5799C112.864 12.4763 112.834 12.362 112.826 12.2444C112.818 12.1269 112.832 12.0087 112.867 11.8976C112.902 11.7866 112.957 11.6851 113.028 11.5997C113.1 11.5144 113.187 11.4471 113.283 11.4023C113.38 11.3576 113.483 11.3362 113.587 11.3398C113.691 11.3433 113.793 11.3716 113.887 11.4228C115.781 12.2141 117.601 13.2155 119.321 14.4126C119.459 14.5083 119.566 14.6526 119.625 14.8234C119.684 14.9943 119.692 15.1824 119.647 15.3589C119.603 15.5353 119.509 15.6905 119.38 15.8008C119.25 15.911 119.092 15.9701 118.931 15.9691H118.945ZM88.92 15.0845C88.7548 15.0854 88.594 15.0237 88.4632 14.9092C88.3325 14.7947 88.2392 14.6339 88.1983 14.4524C88.1574 14.2709 88.1713 14.0792 88.2376 13.9076C88.3039 13.7361 88.4189 13.5946 88.5644 13.5056C90.335 12.4108 92.1965 11.5162 94.1219 10.8349C94.3055 10.7828 94.4998 10.8123 94.6649 10.9173C94.83 11.0224 94.9533 11.1951 95.0095 11.4C95.0658 11.6049 95.0507 11.8265 94.9674 12.0191C94.8841 12.2118 94.7389 12.3611 94.5615 12.4362C92.7304 13.0852 90.9599 13.9366 89.2757 14.9781C89.1673 15.0478 89.0447 15.0845 88.92 15.0845ZM106.976 11.1989H106.887C104.981 10.9348 103.057 10.8805 101.142 11.0365C100.945 11.0528 100.751 10.98 100.602 10.8341C100.453 10.6881 100.361 10.481 100.346 10.2583C100.332 10.0355 100.396 9.81543 100.525 9.64638C100.654 9.47733 100.836 9.37318 101.033 9.35685C103.044 9.19412 105.063 9.25037 107.065 9.52481C107.261 9.53818 107.445 9.63948 107.576 9.80643C107.706 9.97337 107.773 10.1923 107.761 10.415C107.749 10.6378 107.66 10.8461 107.513 10.9941C107.365 11.1422 107.172 11.2178 106.976 11.2045V11.1989Z" fill="#FAFAFA"/>
<path opacity="0.6" d="M73.2849 77.6796C73.0884 77.6796 72.8999 77.5911 72.761 77.4336C72.622 77.2761 72.5439 77.0625 72.5439 76.8398V73.4805C72.5439 73.2577 72.622 73.0441 72.761 72.8866C72.8999 72.7291 73.0884 72.6406 73.2849 72.6406C73.4815 72.6406 73.6699 72.7291 73.8089 72.8866C73.9479 73.0441 74.0259 73.2577 74.0259 73.4805V76.8398C74.0259 77.0625 73.9479 77.2761 73.8089 77.4336C73.6699 77.5911 73.4815 77.6796 73.2849 77.6796Z" fill="#FAFAFA"/>
</g>
<path d="M153.896 144.704C148.228 144.695 142.794 142.139 138.786 137.597C134.778 133.054 132.523 126.896 132.516 120.472V99.2691C132.516 99.0463 132.594 98.8327 132.733 98.6752C132.871 98.5177 133.06 98.4293 133.257 98.4293C133.453 98.4293 133.642 98.5177 133.78 98.6752C133.919 98.8327 133.998 99.0463 133.998 99.2691V120.472C133.998 126.453 136.094 132.189 139.826 136.419C143.557 140.648 148.618 143.024 153.896 143.024C159.173 143.024 164.234 140.648 167.966 136.419C171.698 132.189 173.794 126.453 173.794 120.472V62.0478C173.794 61.8251 173.872 61.6115 174.011 61.454C174.15 61.2965 174.339 61.208 174.535 61.208C174.732 61.208 174.92 61.2965 175.059 61.454C175.198 61.6115 175.276 61.8251 175.276 62.0478V120.472C175.268 126.896 173.013 133.054 169.005 137.597C164.997 142.139 159.564 144.695 153.896 144.704Z" fill="#00847A"/>
<path opacity="0.3" d="M153.896 144.704C148.228 144.695 142.794 142.139 138.786 137.597C134.778 133.054 132.523 126.896 132.516 120.472V99.2691C132.516 99.0463 132.594 98.8327 132.733 98.6752C132.871 98.5177 133.06 98.4293 133.257 98.4293C133.453 98.4293 133.642 98.5177 133.78 98.6752C133.919 98.8327 133.998 99.0463 133.998 99.2691V120.472C133.998 126.453 136.094 132.189 139.826 136.419C143.557 140.648 148.618 143.024 153.896 143.024C159.173 143.024 164.234 140.648 167.966 136.419C171.698 132.189 173.794 126.453 173.794 120.472V62.0478C173.794 61.8251 173.872 61.6115 174.011 61.454C174.15 61.2965 174.339 61.208 174.535 61.208C174.732 61.208 174.92 61.2965 175.059 61.454C175.198 61.6115 175.276 61.8251 175.276 62.0478V120.472C175.268 126.896 173.013 133.054 169.005 137.597C164.997 142.139 159.564 144.695 153.896 144.704Z" fill="black"/>
<path d="M59.0231 205.647H95.5001C96.1991 205.655 96.8919 205.498 97.5344 205.186C98.1769 204.874 98.755 204.413 99.2318 203.834C99.7086 203.254 100.074 202.569 100.304 201.821C100.534 201.073 100.624 200.278 100.569 199.489L93.366 83.0321C93.2358 81.3705 92.5678 79.8221 91.4907 78.6851C90.4137 77.5481 89.0036 76.9028 87.5319 76.8734H51.0747C50.3754 76.8646 49.6823 77.0212 49.0394 77.3331C48.3966 77.645 47.8182 78.1055 47.3413 78.6851C46.8643 79.2646 46.4992 79.9506 46.2693 80.6991C46.0395 81.4476 45.9499 82.2422 46.0062 83.0321L53.189 199.489C53.3193 201.15 53.9872 202.699 55.0643 203.836C56.1414 204.973 57.5515 205.618 59.0231 205.647Z" fill="#00847A"/>
<path opacity="0.3" d="M59.0231 205.647H95.5001C96.1991 205.655 96.8919 205.498 97.5344 205.186C98.1769 204.874 98.755 204.413 99.2318 203.834C99.7086 203.254 100.074 202.569 100.304 201.821C100.534 201.073 100.624 200.278 100.569 199.489L93.366 83.0321C93.2358 81.3705 92.5678 79.8221 91.4907 78.6851C90.4137 77.5481 89.0036 76.9028 87.5319 76.8734H51.0747C50.3754 76.8646 49.6823 77.0212 49.0394 77.3331C48.3966 77.645 47.8182 78.1055 47.3413 78.6851C46.8643 79.2646 46.4992 79.9506 46.2693 80.6991C46.0395 81.4476 45.9499 82.2422 46.0062 83.0321L53.189 199.489C53.3193 201.15 53.9872 202.699 55.0643 203.836C56.1414 204.973 57.5515 205.618 59.0231 205.647Z" fill="#FAFAFA"/>
<path d="M62.9553 205.647H99.4372C100.136 205.655 100.829 205.498 101.472 205.186C102.114 204.874 102.692 204.413 103.169 203.834C103.646 203.254 104.011 202.569 104.241 201.821C104.471 201.073 104.561 200.278 104.506 199.489L97.318 83.0321C97.1899 81.3705 96.5233 79.8215 95.4468 78.6841C94.3703 77.5468 92.9603 76.9017 91.4888 76.8734H55.0118C54.3126 76.8646 53.6194 77.0212 52.9766 77.3331C52.3337 77.645 51.7554 78.1055 51.2784 78.6851C50.8014 79.2646 50.4364 79.9506 50.2065 80.6991C49.9766 81.4476 49.887 82.2422 49.9434 83.0321L57.1261 199.489C57.2552 201.15 57.9221 202.698 58.9984 203.835C60.0747 204.972 61.4842 205.618 62.9553 205.647Z" fill="#00847A"/>
<path opacity="0.6" d="M62.9553 205.647H99.4372C100.136 205.655 100.829 205.498 101.472 205.186C102.114 204.874 102.692 204.413 103.169 203.834C103.646 203.254 104.011 202.569 104.241 201.821C104.471 201.073 104.561 200.278 104.506 199.489L97.318 83.0321C97.1899 81.3705 96.5233 79.8215 95.4468 78.6841C94.3703 77.5468 92.9603 76.9017 91.4888 76.8734H55.0118C54.3126 76.8646 53.6194 77.0212 52.9766 77.3331C52.3337 77.645 51.7554 78.1055 51.2784 78.6851C50.8014 79.2646 50.4364 79.9506 50.2065 80.6991C49.9766 81.4476 49.887 82.2422 49.9434 83.0321L57.1261 199.489C57.2552 201.15 57.9221 202.698 58.9984 203.835C60.0747 204.972 61.4842 205.618 62.9553 205.647Z" fill="#FAFAFA"/>
<path d="M58.4551 198.956H103.048C103.144 198.957 103.238 198.935 103.325 198.892C103.412 198.849 103.491 198.786 103.556 198.707C103.621 198.629 103.671 198.535 103.702 198.434C103.734 198.332 103.747 198.224 103.74 198.117L96.7401 84.6724C96.7287 84.4734 96.6509 84.2867 96.5224 84.1505C96.3939 84.0142 96.2244 83.9386 96.0485 83.939H51.4551C51.3597 83.9395 51.2655 83.9621 51.1781 84.0056C51.0908 84.0491 51.0123 84.1124 50.9475 84.1917C50.8826 84.2709 50.8329 84.3644 50.8012 84.4664C50.7695 84.5683 50.7567 84.6766 50.7635 84.7844L57.7635 198.223C57.7748 198.422 57.8526 198.609 57.9811 198.745C58.1096 198.881 58.2791 198.957 58.4551 198.956Z" fill="#FAFAFA"/>
<path d="M55.4417 134.95L58.707 125.718C59.0973 124.626 60.4903 124.626 61.2215 125.718L67.3619 134.95C68.0881 136.07 67.6039 137.419 66.4875 137.419H64.3534C66.5616 145.549 73.2454 152.01 80.5813 153.096C81.2032 153.196 81.7829 153.51 82.2409 153.998C82.6989 154.485 83.013 155.12 83.1402 155.817C83.2177 156.187 83.2111 156.572 83.121 156.938C83.0309 157.303 82.8603 157.637 82.6252 157.907C82.3902 158.178 82.0983 158.376 81.777 158.483C81.4558 158.591 81.1157 158.604 80.7888 158.522C71.0323 157.088 62.1452 148.337 59.4776 137.431H57.0817C55.9653 137.419 55.0514 136.048 55.4417 134.95Z" fill="#00847A"/>
<path d="M76.6737 114.246C76.5965 113.877 76.6032 113.492 76.6931 113.127C76.7829 112.762 76.953 112.429 77.1875 112.158C77.422 111.888 77.7131 111.69 78.0336 111.582C78.3541 111.474 78.6936 111.46 79.0202 111.541C88.7767 112.975 97.6638 121.726 100.331 132.632H102.752C103.868 132.632 104.782 134.004 104.392 135.096L101.127 144.328C100.741 145.448 99.3434 145.448 98.6122 144.328L92.4471 135.101C91.7209 134.01 92.2051 132.638 93.3215 132.638H95.4605C93.2474 124.508 86.5685 118.047 79.2277 116.961C78.6073 116.861 78.0293 116.546 77.5723 116.061C77.1153 115.575 76.8015 114.941 76.6737 114.246Z" fill="#00847A"/>
<g opacity="0.3">
<path opacity="0.3" d="M55.4417 134.95L58.707 125.718C59.0973 124.626 60.4903 124.626 61.2215 125.718L67.3619 134.95C68.0881 136.07 67.6039 137.419 66.4875 137.419H64.3534C66.5616 145.549 73.2454 152.01 80.5813 153.096C81.2032 153.196 81.7829 153.51 82.2409 153.998C82.6989 154.485 83.013 155.12 83.1402 155.817C83.2177 156.187 83.2111 156.572 83.121 156.938C83.0309 157.303 82.8603 157.637 82.6252 157.907C82.3902 158.178 82.0983 158.376 81.777 158.483C81.4558 158.591 81.1157 158.604 80.7888 158.522C71.0323 157.088 62.1452 148.337 59.4776 137.431H57.0817C55.9653 137.419 55.0514 136.048 55.4417 134.95Z" fill="black"/>
<path opacity="0.3" d="M76.6738 114.246C76.5967 113.877 76.6033 113.492 76.6932 113.127C76.783 112.762 76.9532 112.429 77.1876 112.158C77.4221 111.888 77.7132 111.69 78.0337 111.582C78.3543 111.474 78.6937 111.46 79.0203 111.541C88.7768 112.975 97.6639 121.726 100.331 132.632H102.752C103.869 132.632 104.782 134.004 104.392 135.096L101.127 144.328C100.742 145.448 99.3435 145.448 98.6124 144.328L92.4472 135.101C91.7211 134.01 92.2052 132.638 93.3216 132.638H95.4606C93.2475 124.508 86.5686 118.047 79.2278 116.961C78.6074 116.861 78.0294 116.546 77.5724 116.061C77.1154 115.575 76.8016 114.941 76.6738 114.246Z" fill="black"/>
</g>
<path d="M65.7465 80.1096C65.7638 80.372 65.8672 80.6177 66.0364 80.798C66.2055 80.9783 66.4282 81.0803 66.6604 81.0838C66.7711 81.0858 66.881 81.0615 66.9828 81.0123C67.0847 80.9632 67.1764 80.8903 67.2518 80.7985C67.3273 80.7066 67.3848 80.5979 67.4208 80.4792C67.4568 80.3605 67.4704 80.2346 67.4607 80.1096C67.4458 79.8431 67.3431 79.5926 67.1729 79.408C67.0027 79.2234 66.7774 79.1181 66.5418 79.113C66.4295 79.1104 66.3179 79.1353 66.2147 79.1858C66.1116 79.2363 66.0192 79.3114 65.9438 79.4059C65.8684 79.5003 65.8118 79.612 65.7777 79.7334C65.7437 79.8548 65.733 79.9831 65.7465 80.1096Z" fill="#00847A"/>
<path opacity="0.4" d="M65.7465 80.1096C65.7638 80.372 65.8672 80.6177 66.0364 80.798C66.2055 80.9783 66.4282 81.0803 66.6604 81.0838C66.7711 81.0858 66.881 81.0615 66.9828 81.0123C67.0847 80.9632 67.1764 80.8903 67.2518 80.7985C67.3273 80.7066 67.3848 80.5979 67.4208 80.4792C67.4568 80.3605 67.4704 80.2346 67.4607 80.1096C67.4458 79.8431 67.3431 79.5926 67.1729 79.408C67.0027 79.2234 66.7774 79.1181 66.5418 79.113C66.4295 79.1104 66.3179 79.1353 66.2147 79.1858C66.1116 79.2363 66.0192 79.3114 65.9438 79.4059C65.8684 79.5003 65.8118 79.612 65.7777 79.7334C65.7437 79.8548 65.733 79.9831 65.7465 80.1096Z" fill="#FAFAFA"/>
<path d="M70.148 81.0836H79.6427C79.7528 81.084 79.8617 81.0585 79.9627 81.0088C80.0636 80.959 80.1543 80.886 80.2291 80.7944C80.3038 80.7029 80.361 80.5947 80.397 80.4768C80.4329 80.3589 80.4469 80.2338 80.438 80.1094C80.4246 79.8453 80.3243 79.5965 80.1569 79.412C79.9896 79.2275 79.7674 79.1208 79.534 79.1128H70.0492C69.9387 79.1116 69.8292 79.1366 69.7277 79.186C69.6262 79.2354 69.5349 79.3083 69.4596 79.4C69.3843 79.4916 69.3267 79.6001 69.2904 79.7184C69.2541 79.8367 69.24 79.9622 69.2489 80.087C69.2645 80.3494 69.3648 80.596 69.5306 80.7798C69.6965 80.9637 69.9163 81.0718 70.148 81.0836Z" fill="#00847A"/>
<path opacity="0.4" d="M70.148 81.0836H79.6427C79.7528 81.084 79.8617 81.0585 79.9627 81.0088C80.0636 80.959 80.1543 80.886 80.2291 80.7944C80.3038 80.7029 80.361 80.5947 80.397 80.4768C80.4329 80.3589 80.4469 80.2338 80.438 80.1094C80.4246 79.8453 80.3243 79.5965 80.1569 79.412C79.9896 79.2275 79.7674 79.1208 79.534 79.1128H70.0492C69.9387 79.1116 69.8292 79.1366 69.7277 79.186C69.6262 79.2354 69.5349 79.3083 69.4596 79.4C69.3843 79.4916 69.3267 79.6001 69.2904 79.7184C69.2541 79.8367 69.24 79.9622 69.2489 80.087C69.2645 80.3494 69.3648 80.596 69.5306 80.7798C69.6965 80.9637 69.9163 81.0718 70.148 81.0836Z" fill="#FAFAFA"/>
</svg>
